<?xml version="1.0" standalone="no"?>
<!DOCTYPE svg PUBLIC "-//W3C//DTD SVG 1.1//EN" "http://www.w3.org/Graphics/SVG/1.1/DTD/svg11.dtd" >
<svg xmlns="http://www.w3.org/2000/svg" xmlns:xlink="http://www.w3.org/1999/xlink" version="1.1">
<metadata>
Created by FontForge 20170910 at Tue May  1 20:24:30 2012
 By Jimmy Wärting
Copyright 2002, 2003, 2005, 2008, 2009, 2010, 2012 GNU Freefont contributors.
</metadata>
<defs>
<font id="FreeSans" horiz-adv-x="0" >
  <font-face 
    font-family="FreeSans"
    font-weight="400"
    font-stretch="normal"
    units-per-em="1000"
    panose-1="2 11 5 4 2 2 2 2 2 4"
    ascent="800"
    descent="-200"
    x-height="524"
    cap-height="729"
    bbox="-1166 -638 2260 1050"
    underline-thickness="50"
    underline-position="-151"
    stemh="82"
    stemv="93"
    unicode-range="U+0020-1091F"
  />
<missing-glyph horiz-adv-x="800" 
d="M619 520c0 -165 -179 -184 -179 -303v-47h-90v55c0 136 179 169 179 295c0 68 -51 114 -128 114c-104 0 -129 -67 -129 -156h-85c0 154 75 234 219 234c130 0 213 -75 213 -192zM440 75v-104h-90v104h90zM35 -139v939h730v-939h-730zM118 -69h564v799h-564v-799z" />
    <glyph glyph-name="IJ" unicode="IJ" horiz-adv-x="759" 
d="M469 55c91 0 112 69 112 161v513h93v-547c0 -126 -79 -205 -206 -205c-125 0 -203 75 -203 193v64h95v-47c0 -85 39 -132 109 -132zM194 729v-729h-94v729h94z" />
    <glyph glyph-name="ij" unicode="ij" horiz-adv-x="384" 
d="M250 524h83v-633c0 -71 -49 -109 -143 -109c-13 0 -18 1 -28 3v71c7 -1 16 -2 23 -2c49 0 65 18 65 70v600zM333 729v-105h-83v105h83zM150 524v-524h-83v524h83zM150 729v-105h-84v105h84z" />
    <glyph glyph-name="Ldot" unicode="L&#xb7;" horiz-adv-x="563" 
d="M527 331v-104h-104v104h104zM173 729v-647h360v-82h-453v729h93z" />
    <glyph glyph-name="ldot" unicode="l&#xb7;" horiz-adv-x="360" 
d="M335 331v-104h-104v104h104zM144 729v-729h-84v729h84z" />
    <glyph glyph-name="ff" unicode="ff" horiz-adv-x="495" 
d="M475 524v-68h-87v-456h-83v456h-134v-456h-83v456h-70v68h70v89c0 75 46 119 123 119c17 0 28 -1 47 -5v-69c-19 1 -22 1 -29 1c-38 0 -58 -18 -58 -53v-82h134v89c0 75 46 119 123 119c17 0 28 -1 47 -5v-69c-19 1 -22 1 -29 1c-38 0 -58 -18 -58 -53v-82h87z" />
    <glyph glyph-name="fi" unicode="fi" horiz-adv-x="460" 
d="M388 524v-524h-83v456h-140v-456h-83v456h-70v68h70v89c0 75 46 119 123 119h179v-102h-69c-4 12 -77 29 -92 29c-38 0 -58 -18 -58 -53v-82h140h8h75z" />
    <glyph glyph-name="fl" unicode="fl" horiz-adv-x="465" 
d="M395 729v-729h-83v456h-141v-456h-83v456h-70v68h70v89c0 75 46 119 123 119c17 0 82 -1 101 -5v2h83zM312 658c-19 1 -76 1 -83 1c-38 0 -58 -18 -58 -53v-82h141v134z" />
    <glyph glyph-name="ffi" unicode="ffi" horiz-adv-x="652" 
d="M580 729v-105h-83v34c-22 1 -58 1 -64 1c-38 0 -58 -18 -58 -53v-82h205v-524h-83v456h-122v-456h-83v456h-121v-456h-83v456h-70v68h70v89c0 75 46 119 123 119c17 0 28 -1 47 -5v-69c-19 1 -22 1 -29 1c-38 0 -58 -18 -58 -53v-82h121v89c0 75 46 119 123 119
c17 0 73 -2 90 -3h75z" />
    <glyph glyph-name="ffl" unicode="ffl" horiz-adv-x="645" 
d="M575 729v-729h-83v456h-117v-456h-83v456h-121v-456h-83v456h-70v68h70v89c0 75 46 119 123 119c17 0 28 -1 47 -5v-69c-19 1 -22 1 -29 1c-38 0 -58 -18 -58 -53v-82h121v89c0 75 46 119 123 119c17 0 33 -3 77 -3h83zM492 524v134c-23 0 -54 1 -59 1
c-38 0 -58 -18 -58 -53v-82h117z" />
    <glyph glyph-name="cyrillic_ukrainian_yi_yi_lig" unicode="&#x457;&#x457;" horiz-adv-x="526" 
d="M162 524v-524h-83v524h83zM443 524v-524h-83v524h83zM104 708v-104h-104v104h104zM525 708v-104h-104v104h104zM243 708v-104h-104v104h104zM387 708v-104h-104v104h104z" />
    <glyph glyph-name="dapostrophe" unicode="d&#x313;" horiz-adv-x="674" 
d="M561 741h88v-73c0 -57 -33 -90 -88 -90v42c34 0 45 12 45 47h-45v74zM499 729v-729h-74v69c-45 -65 -95 -92 -167 -92c-141 0 -228 109 -228 286c0 167 89 276 225 276c70 0 126 -28 161 -81v271h83zM269 461c-91 0 -152 -81 -152 -203s61 -203 153 -203
c88 0 146 80 146 201c0 125 -57 205 -147 205z" />
    <glyph glyph-name="lapostrophe" unicode="l&#x313;" horiz-adv-x="329" 
d="M216 741h88v-73c0 -57 -33 -90 -88 -90v42c34 0 45 12 45 47h-45v74zM144 729v-729h-84v729h84z" />
    <glyph glyph-name="tapostrophe" unicode="t&#x313;" horiz-adv-x="393" 
d="M280 741h88v-73c0 -57 -33 -90 -88 -90v42c34 0 45 12 45 47h-45v74zM260 524v-68h-86v-359c0 -37 10 -47 46 -47c16 0 29 1 40 4v-70c-28 -5 -48 -7 -68 -7c-65 0 -101 30 -101 83v396h-71v68h71v144h83v-144h86z" />
    <glyph glyph-name=".notdef" horiz-adv-x="800" 
d="M619 520c0 -165 -179 -184 -179 -303v-47h-90v55c0 136 179 169 179 295c0 68 -51 114 -128 114c-104 0 -129 -67 -129 -156h-85c0 154 75 234 219 234c130 0 213 -75 213 -192zM440 75v-104h-90v104h90zM35 -139v939h730v-939h-730zM118 -69h564v799h-564v-799z" />
    <glyph glyph-name="space" unicode=" " horiz-adv-x="250" 
 />
    <glyph glyph-name="exclam" unicode="!" horiz-adv-x="333" 
d="M208 729v-338l-22 -223h-39l-22 223v338h83zM208 104v-104h-84v104h84z" />
    <glyph glyph-name="quotedbl" unicode="&#x22;" horiz-adv-x="333" 
d="M40 709h93v-111l-27 -134h-39l-27 134v111zM200 709h93v-111l-27 -134h-39l-27 134v111z" />
    <glyph glyph-name="numbersign" unicode="#" horiz-adv-x="556" 
d="M485 697l-36 -196h93v-68h-106l-31 -174h105v-68h-117l-39 -211h-76l38 211h-124l-39 -211h-76l38 211h-101v68h114l31 174h-108v68h121l36 196h76l-36 -196h125l35 196h77zM360 433h-124l-32 -174h125z" />
    <glyph glyph-name="dollar" unicode="$" horiz-adv-x="556" 
d="M518 195c0 -127 -75 -208 -216 -218v-103h-59v103c-145 10 -210 90 -210 231h79c6 -68 10 -146 131 -162v272c-120 36 -197 71 -197 198c0 114 69 184 197 200v54h59v-54c121 -9 194 -83 194 -197h-79c-1 73 -48 124 -115 127v-249c60 -18 216 -40 216 -202zM243 405v240
c-74 -10 -116 -53 -116 -119c0 -61 37 -100 116 -121zM302 46c93 11 134 68 134 137c0 66 -32 96 -134 126v-263z" />
    <glyph glyph-name="percent" unicode="%" horiz-adv-x="889" 
d="M199 685c96 0 171 -76 171 -173c0 -92 -77 -169 -170 -169c-94 0 -171 77 -171 171s77 171 170 171zM199 615c-55 0 -101 -45 -101 -101c0 -55 46 -101 102 -101c55 0 101 45 101 100c0 57 -45 102 -102 102zM609 709h66l-395 -729h-66zM688 322c96 0 171 -76 171 -172
c0 -92 -78 -169 -170 -169c-94 0 -171 77 -171 171c0 93 77 170 170 170zM688 252c-55 0 -101 -45 -101 -100c0 -56 46 -101 102 -101c55 0 101 45 101 99c0 57 -45 102 -102 102z" />
    <glyph glyph-name="ampersand" unicode="&#x26;" horiz-adv-x="667" 
d="M466 78c-32 -31 -95 -101 -209 -101c-123 0 -205 79 -205 199c0 91 38 141 162 213c-62 78 -81 116 -81 163c0 88 76 157 171 157s163 -65 163 -157c0 -72 -34 -115 -138 -174l133 -163c19 34 31 79 31 115v4h80c0 -60 -21 -126 -58 -183l122 -151h-109zM285 431
c78 49 103 78 103 123c0 49 -37 85 -87 85c-52 0 -86 -34 -86 -86c0 -35 9 -52 70 -122zM418 137l-160 200c-91 -58 -122 -98 -122 -154c0 -70 59 -128 131 -128c52 0 95 23 151 82z" />
    <glyph glyph-name="quotesingle" unicode="'" horiz-adv-x="200" 
d="M53 709h94v-111l-27 -134h-40l-27 134v111z" />
    <glyph glyph-name="parenleft" unicode="(" horiz-adv-x="333" 
d="M236 729h55c-88 -142 -137 -311 -137 -470c0 -160 49 -328 137 -471h-55c-100 131 -163 313 -163 471c0 157 63 339 163 470z" />
    <glyph glyph-name="parenright" unicode=")" horiz-adv-x="333" 
d="M93 -212h-55c88 142 137 311 137 470c0 160 -49 328 -137 471h55c100 -131 163 -313 163 -471c0 -157 -63 -339 -163 -470z" />
    <glyph glyph-name="asterisk" unicode="*" horiz-adv-x="389" 
d="M160 729h63l-5 -112l106 38l19 -59l-108 -30l70 -89l-51 -36l-62 93l-63 -93l-50 36l69 89l-108 30l19 59l106 -38z" />
    <glyph glyph-name="plus" unicode="+" horiz-adv-x="584" 
d="M534 267v-70h-207v-207h-70v207h-207v70h207v207h70v-207h207z" />
    <glyph glyph-name="comma" unicode="," horiz-adv-x="278" 
d="M87 104h105v-120c0 -86 -35 -131 -105 -131v38c38 2 53 22 53 91v18h-53v104z" />
    <glyph glyph-name="hyphen" unicode="-" horiz-adv-x="333" 
d="M287 312v-72h-241v72h241z" />
    <glyph glyph-name="period" unicode="." horiz-adv-x="250" 
d="M184 104v-104h-104v104h104z" />
    <glyph glyph-name="slash" unicode="/" horiz-adv-x="278" 
d="M229 729h55l-237 -749h-55z" />
    <glyph glyph-name="zero" unicode="0" horiz-adv-x="556" 
d="M43 343c0 311 133 366 232 366c176 0 232 -166 232 -372c0 -233 -82 -360 -232 -360c-152 0 -232 127 -232 366zM275 631c-95 0 -142 -95 -142 -289s47 -292 140 -292c98 0 144 94 144 295c0 190 -47 286 -142 286z" />
    <glyph glyph-name="one" unicode="1" horiz-adv-x="556" 
d="M259 505h-157v63c136 17 156 32 187 141h58v-709h-88v505z" />
    <glyph glyph-name="two" unicode="2" horiz-adv-x="556" 
d="M50 463c6 214 137 246 234 246c134 0 227 -85 227 -208c0 -87 -51 -160 -150 -214l-100 -54c-89 -48 -119 -88 -128 -146h373v-87h-472c8 156 51 223 199 307l92 52c63 36 96 84 96 140c0 76 -60 133 -140 133c-122 0 -139 -103 -143 -169h-88z" />
    <glyph glyph-name="three" unicode="3" horiz-adv-x="556" 
d="M270 632c-112 0 -133 -75 -135 -152h-88c3 151 79 229 222 229c135 0 216 -73 216 -195c0 -71 -33 -121 -99 -147c85 -29 120 -79 120 -169c0 -134 -94 -221 -240 -221c-148 0 -223 75 -234 229h88c6 -103 53 -151 149 -151c92 0 147 53 147 142c0 85 -50 129 -147 129
l-37 -1h-11v75c117 2 174 19 174 111c0 75 -47 121 -125 121z" />
    <glyph glyph-name="four" unicode="4" horiz-adv-x="556" 
d="M327 170h-299v93l322 446h65v-460h105v-79h-105v-170h-88v170zM327 249v310l-222 -310h222z" />
    <glyph glyph-name="five" unicode="5" horiz-adv-x="556" 
d="M476 709v-87h-295l-28 -198c41 30 81 43 131 43c136 0 229 -96 229 -236c0 -150 -100 -254 -243 -254c-200 0 -226 151 -235 197h88c21 -80 68 -119 145 -119c96 0 155 62 155 164c0 105 -60 170 -155 170c-55 0 -89 -17 -130 -66h-81l53 386h366z" />
    <glyph glyph-name="six" unicode="6" horiz-adv-x="556" 
d="M43 323c0 328 150 386 254 386c108 0 184 -69 201 -185h-88c-14 68 -57 107 -119 107c-101 0 -157 -96 -158 -269c38 52 93 79 163 79c127 0 217 -93 217 -225c0 -139 -97 -239 -232 -239c-177 0 -238 146 -238 346zM285 363c-87 0 -147 -61 -147 -149
c0 -91 62 -159 144 -159c81 0 141 65 141 154c0 95 -53 154 -138 154z" />
    <glyph glyph-name="seven" unicode="7" horiz-adv-x="556" 
d="M520 709v-74c-160 -213 -249 -408 -288 -635h-94c53 233 122 381 291 622h-383v87h474z" />
    <glyph glyph-name="eight" unicode="8" horiz-adv-x="556" 
d="M391 373c82 -39 122 -98 122 -177c0 -129 -98 -219 -238 -219s-238 90 -238 220c0 78 40 137 121 176c-72 45 -96 81 -96 147c0 111 88 189 213 189c126 0 213 -78 213 -189c0 -67 -24 -103 -97 -147zM275 631c-74 0 -123 -44 -123 -112c0 -67 49 -111 123 -111
s123 44 123 110c0 69 -48 113 -123 113zM275 334c-88 0 -148 -56 -148 -139s60 -140 146 -140c90 0 150 56 150 140c0 83 -60 139 -148 139z" />
    <glyph glyph-name="nine" unicode="9" horiz-adv-x="556" 
d="M509 363c0 -328 -151 -386 -255 -386c-108 0 -184 69 -201 185h88c14 -68 57 -107 119 -107c101 0 157 96 158 269c-46 -55 -95 -79 -162 -79c-128 0 -218 93 -218 225c0 139 97 239 232 239c176 0 239 -144 239 -346zM269 632c-81 0 -141 -65 -141 -155
c0 -95 53 -154 138 -154c86 0 147 62 147 149c0 92 -62 160 -144 160z" />
    <glyph glyph-name="colon" unicode=":" horiz-adv-x="250" 
d="M184 104v-104h-104v104h104zM184 524v-104h-104v104h104z" />
    <glyph glyph-name="semicolon" unicode=";" horiz-adv-x="250" 
d="M185 524v-104h-104v104h104zM80 104h105v-120c0 -86 -35 -131 -105 -131v38c38 2 53 22 53 91v18h-53v104z" />
    <glyph glyph-name="less" unicode="&#x3c;" horiz-adv-x="584" 
d="M45 198v69l489 207v-79l-394 -161l394 -164v-79z" />
    <glyph glyph-name="equal" unicode="=" horiz-adv-x="584" 
d="M534 353v-70h-484v70h484zM534 181v-70h-484v70h484z" />
    <glyph glyph-name="greater" unicode="&#x3e;" horiz-adv-x="584" 
d="M539 267v-69l-489 -207v79l394 161l-394 164v79z" />
    <glyph glyph-name="question" unicode="?" horiz-adv-x="556" 
d="M509 549c0 -165 -179 -184 -179 -303v-47h-90v55c0 136 179 169 179 295c0 68 -51 114 -128 114c-104 0 -129 -67 -129 -156h-85c0 154 75 234 219 234c130 0 213 -75 213 -192zM330 104v-104h-90v104h90z" />
    <glyph glyph-name="at" unicode="@" horiz-adv-x="1015" 
d="M665 501h83l-90 -280c-8 -23 -12 -41 -12 -50c0 -24 23 -44 50 -44c85 0 168 113 168 230c0 167 -161 307 -352 307c-211 0 -393 -181 -393 -391c0 -191 163 -338 375 -338c54 0 111 9 193 32l28 -67c-72 -27 -152 -42 -226 -42c-253 0 -455 178 -455 400
c0 260 224 483 491 483c233 0 426 -169 426 -372c0 -149 -93 -312 -272 -312c-63 0 -101 26 -110 77c-46 -50 -89 -72 -142 -72c-93 0 -163 79 -163 183c0 145 123 277 257 277c55 0 97 -30 122 -87zM453 126c95 0 156 155 156 242c0 51 -40 90 -94 90
c-84 0 -161 -102 -161 -214c0 -66 44 -118 99 -118z" />
    <glyph glyph-name="A" unicode="A" horiz-adv-x="666" 
d="M472 219h-281l-77 -219h-99l260 729h120l256 -729h-104zM446 297l-112 332l-120 -332h232z" />
    <glyph glyph-name="B" unicode="B" horiz-adv-x="664" 
d="M624 208c0 -125 -86 -208 -215 -208h-329v729h296c173 0 216 -111 216 -185s-35 -128 -101 -159c93 -36 133 -89 133 -177zM499 531c0 94 -68 116 -146 116h-180v-232h180c88 0 146 29 146 116zM400 82c105 0 131 74 131 125c0 74 -45 126 -131 126h-227v-251h227z" />
    <glyph glyph-name="C" unicode="C" horiz-adv-x="709" 
d="M40 356c0 152 67 385 333 385c160 0 252 -78 281 -238h-95c-21 102 -79 156 -197 156c-141 0 -229 -115 -229 -302c0 -182 92 -298 237 -298c122 0 181 69 203 207h96c-22 -193 -122 -289 -300 -289c-263 0 -329 230 -329 379z" />
    <glyph glyph-name="D" unicode="D" horiz-adv-x="698" 
d="M80 0v729h281c185 0 297 -138 297 -364c0 -227 -113 -365 -297 -365h-281zM173 82h172c144 0 220 98 220 282c0 186 -76 283 -220 283h-172v-565z" />
    <glyph glyph-name="E" unicode="E" horiz-adv-x="633" 
d="M173 332v-250h430v-82h-523v729h505v-82h-412v-233h397v-82h-397z" />
    <glyph glyph-name="F" unicode="F" horiz-adv-x="599" 
d="M173 332v-332h-93v729h489v-82h-396v-233h348v-82h-348z" />
    <glyph glyph-name="G" unicode="G" horiz-adv-x="765" 
d="M133 362c0 -117 52 -303 261 -303c133 0 229 94 229 224v20h-222v82h304v-389h-59l-23 97c-71 -79 -150 -116 -249 -116c-197 0 -334 156 -334 380c0 146 70 384 350 384c167 0 279 -85 305 -233h-95c-20 94 -100 151 -211 151c-154 0 -256 -118 -256 -297z" />
    <glyph glyph-name="H" unicode="H" horiz-adv-x="721" 
d="M548 332h-375v-332h-93v729h93v-315h375v315h93v-729h-93v332z" />
    <glyph glyph-name="I" unicode="I" horiz-adv-x="278" 
d="M194 729v-729h-94v729h94z" />
    <glyph glyph-name="J" unicode="J" horiz-adv-x="528" 
d="M239 55c91 0 112 69 112 161v513h93v-547c0 -126 -79 -205 -206 -205c-125 0 -203 75 -203 193v64h95v-47c0 -85 39 -132 109 -132z" />
    <glyph glyph-name="K" unicode="K" horiz-adv-x="674" 
d="M173 255v-255h-93v729h93v-369l363 369h120l-297 -297l300 -432h-110l-257 374z" />
    <glyph glyph-name="L" unicode="L" horiz-adv-x="563" 
d="M173 729v-647h360v-82h-453v729h93z" />
    <glyph glyph-name="M" unicode="M" horiz-adv-x="846" 
d="M473 0h-98l-207 611v-611h-88v729h129l216 -635l212 635h129v-729h-88v611z" />
    <glyph glyph-name="N" unicode="N" horiz-adv-x="730" 
d="M650 729v-729h-105l-377 591v-591h-88v729h101l381 -596v596h88z" />
    <glyph glyph-name="O" unicode="O" horiz-adv-x="784" 
d="M744 353c0 -210 -134 -376 -352 -376c-210 0 -352 154 -352 382s142 382 351 382c214 0 353 -153 353 -388zM391 659c-154 0 -258 -120 -258 -300s104 -300 259 -300c154 0 259 120 259 296c0 184 -102 304 -260 304z" />
    <glyph glyph-name="P" unicode="P" horiz-adv-x="656" 
d="M606 515c0 -125 -84 -206 -204 -206h-229v-309h-93v729h301c144 0 225 -77 225 -214zM173 391h194c89 0 142 48 142 128s-53 128 -142 128h-194v-256z" />
    <glyph glyph-name="Q" unicode="Q" horiz-adv-x="784" 
d="M735 -1l-47 -58l-105 87c-59 -35 -119 -51 -191 -51c-210 0 -352 154 -352 382s142 382 352 382s352 -154 352 -380c0 -115 -34 -209 -103 -285zM483 205l89 -73c54 61 79 134 79 228c0 179 -104 299 -259 299s-259 -120 -259 -300s103 -300 258 -300c44 0 77 8 120 28
l-74 62z" />
    <glyph glyph-name="R" unicode="R" horiz-adv-x="709" 
d="M523 360c91 -39 100 -105 100 -171c0 -17 -1 -35 -1 -51c0 -47 5 -89 44 -115v-23h-113c-13 30 -20 74 -20 119v65c0 90 -37 130 -120 130h-240v-314h-93v729h336c143 0 222 -69 222 -195c0 -83 -33 -134 -115 -174zM541 521c0 104 -65 126 -143 126h-225v-251h225
c99 0 143 39 143 125z" />
    <glyph glyph-name="S" unicode="S" horiz-adv-x="667" 
d="M342 59c158 0 186 80 186 132c0 57 -42 94 -134 118l-181 48c-96 25 -143 81 -143 170c0 132 99 214 259 214c168 0 266 -83 267 -226h-88c-1 95 -66 148 -182 148c-98 0 -163 -49 -163 -123c0 -56 32 -84 120 -108l183 -49c99 -27 155 -93 155 -183
c0 -89 -57 -223 -285 -223c-126 0 -285 48 -288 255h88v-5c0 -74 41 -168 206 -168z" />
    <glyph glyph-name="T" unicode="T" horiz-adv-x="632" 
d="M363 647v-647h-93v647h-240v82h572v-82h-239z" />
    <glyph glyph-name="U" unicode="U" horiz-adv-x="720" 
d="M547 729h93v-512c0 -146 -110 -240 -281 -240c-173 0 -279 92 -279 240v512h93v-512c0 -110 79 -158 186 -158c117 0 188 60 188 158v512z" />
    <glyph glyph-name="V" unicode="V" horiz-adv-x="645" 
d="M377 0h-100l-262 729h100l214 -617l202 617h99z" />
    <glyph glyph-name="W" unicode="W" horiz-adv-x="937" 
d="M737 0h-102l-168 599l-163 -599h-102l-187 729h104l137 -592l162 592h100l166 -592l134 592h104z" />
    <glyph glyph-name="X" unicode="X" horiz-adv-x="657" 
d="M384 374l258 -374h-115l-199 304l-200 -304h-113l258 374l-242 355h113l187 -286l188 286h111z" />
    <glyph glyph-name="Y" unicode="Y" horiz-adv-x="678" 
d="M389 286v-286h-93v286l-281 443h115l214 -355l208 355h111z" />
    <glyph glyph-name="Z" unicode="Z" horiz-adv-x="615" 
d="M583 729v-84l-436 -563h438v-82h-555v82l438 565h-410v82h525z" />
    <glyph glyph-name="bracketleft" unicode="[" horiz-adv-x="278" 
d="M250 729v-72h-103v-797h103v-72h-186v941h186z" />
    <glyph glyph-name="backslash" unicode="\" horiz-adv-x="278" 
d="M47 729l237 -749h-55l-237 749h55z" />
    <glyph glyph-name="bracketright" unicode="]" horiz-adv-x="277" 
d="M22 -212v72h103v797h-103v72h186v-941h-186z" />
    <glyph glyph-name="asciicircum" unicode="^" horiz-adv-x="469" 
d="M197 709h73l155 -380h-69l-122 300l-121 -300h-69z" />
    <glyph glyph-name="underscore" unicode="_" horiz-adv-x="556" 
d="M578 -126v-50h-600v50h600z" />
    <glyph glyph-name="grave" unicode="`" horiz-adv-x="250" 
d="M135 740l96 -148h-60l-149 148h113z" />
    <glyph glyph-name="a" unicode="a" horiz-adv-x="543" 
d="M53 369c5 142 116 170 210 170c129 0 197 -50 197 -143v-308c0 -26 16 -41 45 -41c5 0 9 0 18 2v-63c-27 -7 -40 -9 -57 -9c-54 0 -80 24 -86 77c-59 -54 -112 -77 -178 -77c-106 0 -172 60 -172 155c0 140 107 152 260 172c66 8 87 23 87 58v22c0 50 -42 78 -117 78
c-78 0 -116 -29 -123 -93h-84zM220 50c99 0 157 65 157 115v94c-85 -39 -260 -10 -260 -125c0 -53 38 -84 103 -84z" />
    <glyph glyph-name="b" unicode="b" horiz-adv-x="559" 
d="M60 729h83v-276c39 59 90 86 162 86c138 0 224 -105 224 -275c0 -174 -90 -287 -228 -287c-73 0 -126 29 -166 90v-67h-75v729zM289 461c-88 0 -146 -80 -146 -203s58 -203 146 -203c91 0 153 81 153 200c0 125 -60 206 -153 206z" />
    <glyph glyph-name="c" unicode="c" horiz-adv-x="506" 
d="M470 348h-84c-10 73 -54 114 -124 114c-91 0 -145 -78 -145 -209c0 -124 55 -199 147 -199c71 0 114 42 128 126h84c-10 -128 -89 -203 -214 -203c-142 0 -232 107 -232 276c0 174 92 286 233 286c120 0 197 -66 207 -191z" />
    <glyph glyph-name="d" unicode="d" horiz-adv-x="559" 
d="M499 729v-729h-74v69c-45 -65 -95 -92 -167 -92c-141 0 -228 109 -228 286c0 167 89 276 225 276c70 0 126 -28 161 -81v271h83zM269 461c-91 0 -152 -81 -152 -203s61 -203 153 -203c88 0 146 80 146 201c0 125 -57 205 -147 205z" />
    <glyph glyph-name="e" unicode="e" horiz-adv-x="533" 
d="M503 234h-386c2 -107 57 -180 154 -180c67 0 114 36 137 105h84c-21 -114 -104 -182 -224 -182c-147 0 -238 106 -238 278s94 284 240 284c162 0 233 -115 233 -305zM119 302h295c0 90 -59 160 -145 160c-84 0 -143 -63 -150 -160z" />
    <glyph glyph-name="f" unicode="f" horiz-adv-x="280" 
d="M260 524v-68h-87v-456h-83v456h-70v68h70v89c0 75 46 119 123 119c17 0 28 -1 47 -5v-69c-19 1 -22 1 -29 1c-38 0 -58 -18 -58 -53v-82h87z" />
    <glyph glyph-name="g" unicode="g" horiz-adv-x="550" 
d="M246 -23c-119 0 -216 105 -216 276c0 170 90 286 223 286c67 0 118 -29 160 -91l-10 76h87v-438c0 -182 -35 -304 -234 -304c-123 0 -200 59 -209 158h85c14 -85 101 -88 127 -88c118 0 146 72 146 192v27c-47 -66 -93 -94 -159 -94zM262 462c-89 0 -145 -78 -145 -204
c0 -127 55 -204 146 -204c88 0 142 76 142 201c0 131 -53 207 -143 207z" />
    <glyph glyph-name="h" unicode="h" horiz-adv-x="536" 
d="M393 363c0 82 -65 103 -108 103c-86 0 -142 -70 -142 -177v-289h-83v729h83v-277c49 64 94 87 168 87c102 0 165 -55 165 -143v-396h-83v363z" />
    <glyph glyph-name="i" unicode="i" horiz-adv-x="222" 
d="M150 524v-524h-83v524h83zM150 729v-105h-84v105h84z" />
    <glyph glyph-name="j" unicode="j" horiz-adv-x="243" 
d="M88 524h83v-633c0 -71 -49 -109 -143 -109c-13 0 -18 1 -28 3v71c7 -1 16 -2 23 -2c49 0 65 18 65 70v600zM171 729v-105h-83v105h83z" />
    <glyph glyph-name="k" unicode="k" horiz-adv-x="514" 
d="M143 729v-427l222 222h107l-182 -181l214 -343h-103l-177 284l-81 -80v-204h-83v729h83z" />
    <glyph glyph-name="l" unicode="l" horiz-adv-x="214" 
d="M144 729v-729h-84v729h84z" />
    <glyph glyph-name="m" unicode="m" horiz-adv-x="812" 
d="M60 524h77v-74c45 63 91 89 161 89c68 0 110 -24 141 -80c49 59 91 80 161 80c98 0 152 -52 152 -146v-393h-84v361c0 66 -36 105 -97 105c-68 0 -123 -61 -123 -137v-329h-84v361c0 67 -35 105 -97 105c-68 0 -123 -61 -123 -137v-329h-84v524z" />
    <glyph glyph-name="n" unicode="n" horiz-adv-x="537" 
d="M60 524h77v-88c46 73 96 103 174 103c101 0 166 -56 166 -143v-396h-83v363c0 63 -42 103 -108 103c-86 0 -142 -70 -142 -177v-289h-84v524z" />
    <glyph glyph-name="o" unicode="o" horiz-adv-x="534" 
d="M266 539c151 0 238 -104 238 -285c0 -172 -90 -277 -237 -277c-149 0 -237 105 -237 281s89 281 236 281zM267 462c-93 0 -150 -78 -150 -204c0 -127 57 -204 150 -204c92 0 150 78 150 201c0 130 -56 207 -150 207z" />
    <glyph glyph-name="p" unicode="p" horiz-adv-x="559" 
d="M60 -218v742h77v-79c39 62 96 94 167 94c139 0 225 -110 225 -286c0 -167 -89 -276 -224 -276c-68 0 -117 24 -161 78v-273h-84zM290 461c-88 0 -146 -80 -146 -203s58 -203 146 -203c91 0 152 81 152 200c0 125 -60 206 -152 206z" />
    <glyph glyph-name="q" unicode="q" horiz-adv-x="559" 
d="M499 -218h-83v278c-39 -57 -89 -83 -162 -83c-138 0 -224 105 -224 275c0 174 90 287 228 287c69 0 128 -30 167 -85v70h74v-742zM270 461c-92 0 -153 -82 -153 -203c0 -122 61 -203 153 -203c88 0 146 80 146 200c0 126 -57 206 -146 206z" />
    <glyph glyph-name="r" unicode="r" horiz-adv-x="332" 
d="M312 451c-101 -2 -168 -32 -168 -179v-272h-84v524h77v-95c48 78 89 110 143 110c11 0 18 -1 32 -3v-85z" />
    <glyph glyph-name="s" unicode="s" horiz-adv-x="493" 
d="M122 156c7 -51 26 -102 128 -102c73 0 122 33 122 82c0 38 -23 59 -81 73l-78 19c-124 30 -166 69 -166 151c0 97 79 160 201 160c121 0 189 -58 190 -161h-88c-2 55 -38 84 -105 84c-68 0 -111 -31 -111 -79c0 -37 29 -59 97 -75l80 -19c104 -25 148 -68 148 -146
c0 -101 -84 -166 -216 -166c-137 0 -205 58 -209 179h88z" />
    <glyph glyph-name="t" unicode="t" horiz-adv-x="280" 
d="M260 524v-68h-86v-359c0 -37 10 -47 46 -47c16 0 29 1 40 4v-70c-28 -5 -48 -7 -68 -7c-65 0 -101 30 -101 83v396h-71v68h71v144h83v-144h86z" />
    <glyph glyph-name="u" unicode="u" horiz-adv-x="537" 
d="M477 0h-75v73c-49 -69 -98 -96 -175 -96c-102 0 -167 56 -167 143v404h83v-371c0 -63 42 -103 108 -103c87 0 143 70 143 177v297h83v-524z" />
    <glyph glyph-name="v" unicode="v" horiz-adv-x="496" 
d="M285 0h-91l-184 524h94l140 -425l148 425h94z" />
    <glyph glyph-name="w" unicode="w" horiz-adv-x="722" 
d="M558 0h-95l-106 411l-101 -411h-94l-152 524h92l107 -408l100 408h102l103 -408l104 408h94z" />
    <glyph glyph-name="x" unicode="x" horiz-adv-x="476" 
d="M285 271l181 -271h-97l-131 201l-133 -201h-95l185 267l-175 257h95l126 -190l126 190h94z" />
    <glyph glyph-name="y" unicode="y" horiz-adv-x="478" 
d="M378 524h90l-233 -634c-29 -77 -78 -108 -135 -108c-22 0 -39 4 -56 13v75c18 -4 32 -6 44 -6c35 0 53 14 67 51l32 83l-177 526h89l134 -408z" />
    <glyph glyph-name="z" unicode="z" horiz-adv-x="486" 
d="M442 524v-74l-311 -377h325v-73h-426v75l313 376h-292v73h391z" />
    <glyph glyph-name="braceleft" unicode="{" horiz-adv-x="333" 
d="M276 729v-65h-15c-49 0 -63 -15 -63 -67v-181c0 -92 -21 -133 -82 -157c56 -26 82 -75 82 -158v-181c0 -52 14 -67 63 -67h15v-65h-46c-69 0 -109 48 -109 131v167c0 92 -19 126 -78 138v69c59 12 78 45 78 138v167c0 83 40 131 109 131h46z" />
    <glyph glyph-name="bar" unicode="|" horiz-adv-x="250" 
d="M95 729h60v-941h-60v941z" />
    <glyph glyph-name="braceright" unicode="}" horiz-adv-x="333" 
d="M57 -212v65h16c50 0 64 15 64 67v181c0 83 26 132 82 157c-56 26 -82 76 -82 158v181c0 52 -14 67 -64 67h-16v65h47c70 0 110 -48 110 -131v-167c0 -92 19 -126 76 -138v-69c-57 -12 -76 -46 -76 -138v-167c0 -83 -40 -131 -110 -131h-47z" />
    <glyph glyph-name="asciitilde" unicode="~" horiz-adv-x="500" 
d="M139 371c-43 0 -51 -51 -53 -78h-53c5 94 43 145 108 145c18 0 37 -6 54 -16l117 -69c20 -12 36 -17 50 -17c43 0 51 29 51 75h53c0 -104 -42 -143 -105 -143c-25 0 -55 10 -81 26l-98 63c-10 6 -33 14 -43 14z" />
    <glyph glyph-name="nonbreakingspace" unicode="&#xa0;" horiz-adv-x="278" 
 />
    <glyph glyph-name="exclamdown" unicode="&#xa1;" horiz-adv-x="333" 
d="M122 -205v338l22 223h39l22 -223v-338h-83zM122 420v104h84v-104h-84z" />
    <glyph glyph-name="cent" unicode="&#xa2;" horiz-adv-x="556" 
d="M312 462v-409c64 7 102 48 114 127h84c-7 -120 -82 -197 -198 -203v-97h-42v98c-135 12 -218 116 -218 275c0 163 83 271 218 285v90h42v-89c117 -8 186 -77 192 -191h-84c-7 67 -47 109 -108 114zM270 55v406c-86 -16 -131 -87 -131 -208c0 -113 48 -185 131 -198z" />
    <glyph glyph-name="sterling" unicode="&#xa3;" horiz-adv-x="556" 
d="M147 523c0 -62 33 -94 59 -147h160v-55h-136c10 -29 15 -52 15 -71c0 -52 -28 -98 -118 -189c39 26 79 39 122 39c64 0 109 -31 161 -31c26 0 54 10 83 30l42 -66c-40 -39 -79 -56 -131 -56c-84 0 -139 46 -212 46c-35 0 -71 -12 -109 -37l-48 66c92 79 125 130 125 191
c0 25 -9 53 -24 78h-110v55h81c-46 76 -53 95 -53 139c0 121 104 214 238 214c85 0 217 -32 220 -232h-88c-3 103 -49 154 -136 154c-85 0 -141 -51 -141 -128z" />
    <glyph glyph-name="currency" unicode="&#xa4;" horiz-adv-x="556" 
d="M485 190l-58 -54l-53 53c-27 -20 -61 -30 -100 -30c-33 0 -68 9 -94 25l-51 -51l-56 57l48 49c-20 27 -32 66 -32 102s12 74 32 102l-54 55l56 53l55 -55c29 17 61 26 97 26c37 0 72 -10 98 -28l59 53l57 -58l-55 -55c16 -25 26 -61 26 -93c0 -34 -10 -66 -29 -97z
M274 445c-58 0 -106 -47 -106 -105c0 -57 48 -104 107 -104c57 0 106 47 106 103c0 59 -47 106 -107 106z" />
    <glyph glyph-name="yen" unicode="&#xa5;" horiz-adv-x="556" 
d="M495 354v-51h-170v-77h170v-51h-170v-175h-88v175h-172v51h172v77h-172v51h151l-205 355h85l185 -322l179 322h85l-201 -355h151z" />
    <glyph glyph-name="brokenbar" unicode="&#xa6;" horiz-adv-x="260" 
d="M100 729h60v-401h-60v401zM100 189h60v-401h-60v401z" />
    <glyph glyph-name="section" unicode="&#xa7;" horiz-adv-x="556" 
d="M162 -14c0 -104 61 -122 102 -122c57 0 96 35 96 86c0 35 -16 61 -55 88l-170 117c-65 45 -92 92 -92 157c0 66 31 111 105 150c-31 36 -44 64 -44 102c0 92 81 165 185 165s175 -71 175 -177v-28h-84v26c0 62 -38 102 -97 102c-51 0 -89 -36 -89 -85
c0 -29 15 -49 57 -77l146 -94c81 -52 109 -95 109 -167c0 -76 -37 -129 -109 -156c40 -45 53 -75 53 -118c0 -96 -80 -168 -187 -168c-72 0 -186 30 -186 199h85zM188 229l166 -123c47 25 73 62 73 102c0 41 -24 78 -73 112l-161 109c-52 -34 -71 -61 -71 -101
s13 -60 66 -99z" />
    <glyph glyph-name="dieresis" unicode="&#xa8;" horiz-adv-x="333" 
d="M308 716v-104h-104v104h104zM129 716v-104h-104v104h104z" />
    <glyph glyph-name="copyright" unicode="&#xa9;" horiz-adv-x="800" 
d="M205 347c0 90 43 233 201 233c94 0 153 -51 170 -146h-69c-14 59 -44 81 -108 81c-79 0 -126 -62 -126 -167c0 -101 53 -165 131 -165c70 0 94 32 111 112h69c-13 -114 -76 -176 -181 -176c-155 0 -198 141 -198 228zM405 653c-159 0 -306 -145 -306 -303
c0 -156 139 -305 301 -305c168 0 301 143 301 302c0 161 -137 306 -296 306zM406 708c193 0 355 -164 355 -361c0 -199 -162 -361 -361 -361c-200 0 -361 162 -361 364c0 199 163 358 367 358z" />
    <glyph glyph-name="ordfeminine" unicode="&#xaa;" horiz-adv-x="370" 
d="M320 354v-51h-277v51h277zM333 449v-44c-13 -5 -20 -6 -32 -6c-33 0 -49 12 -55 43c-33 -29 -66 -43 -105 -43c-64 0 -104 37 -104 96c0 63 34 96 157 105c38 3 49 11 49 33v13c0 28 -24 44 -67 44c-45 0 -61 -13 -68 -56h-59c2 71 47 108 129 108c81 0 122 -31 122 -94
v-179c0 -15 8 -23 23 -23c3 0 6 1 10 3zM243 568c-56 -24 -148 -4 -148 -70c0 -30 21 -47 57 -47c49 0 91 31 91 66v51z" />
    <glyph glyph-name="guillemotleft" unicode="&#xab;" horiz-adv-x="500" 
d="M71 227v89l152 122v-83l-106 -83l106 -83v-83zM276 227v89l152 122v-83l-106 -83l106 -83v-83z" />
    <glyph glyph-name="logicalnot" unicode="&#xac;" horiz-adv-x="584" 
d="M40 375h504v-289h-70v219h-434v70z" />
    <glyph glyph-name="softhyphen" unicode="&#xad;" horiz-adv-x="333" 
d="M287 312v-72h-241v72h241z" />
    <glyph glyph-name="registered" unicode="&#xae;" horiz-adv-x="800" 
d="M512 348c38 -19 47 -63 47 -101c0 -11 -1 -21 -1 -31c0 -27 4 -50 27 -65v-16h-76c-7 18 -12 45 -12 71v37c0 46 -22 73 -66 73h-133v-181h-64v431h199c84 0 135 -44 135 -118c0 -50 -18 -83 -56 -100zM502 440c0 62 -34 68 -80 68h-124v-135h124c49 0 80 16 80 67z
M405 653c-159 0 -306 -145 -306 -303c0 -156 139 -305 301 -305c168 0 301 143 301 302c0 161 -137 306 -296 306zM406 708c193 0 355 -164 355 -361c0 -199 -162 -361 -361 -361c-200 0 -361 162 -361 364c0 199 163 358 367 358z" />
    <glyph glyph-name="macron" unicode="&#xaf;" horiz-adv-x="333" 
d="M302 701v-70h-274v70h274z" />
    <glyph glyph-name="degree" unicode="&#xb0;" horiz-adv-x="606" 
d="M303 686c83 0 151 -68 151 -151c0 -85 -68 -152 -153 -152c-82 0 -150 69 -150 152s68 151 152 151zM303 629c-52 0 -95 -43 -95 -94c0 -52 43 -95 93 -95c54 0 96 42 96 95c0 52 -42 94 -94 94z" />
    <glyph glyph-name="plusminus" unicode="&#xb1;" horiz-adv-x="584" 
d="M534 59v-70h-484v70h484zM534 416v-70h-207v-207h-70v207h-207v70h207v207h70v-207h207z" />
    <glyph glyph-name="twosuperior" unicode="&#xb2;" horiz-adv-x="350" 
d="M178 762c-74 0 -84 -56 -87 -99h-62c3 103 52 152 151 152c86 0 146 -52 146 -126c0 -53 -33 -98 -96 -129l-63 -32c-43 -23 -61 -42 -73 -80h229v-58h-304c5 97 31 136 127 187l58 31c39 21 59 48 59 79c0 43 -37 75 -85 75z" />
    <glyph glyph-name="threesuperior" unicode="&#xb3;" horiz-adv-x="350" 
d="M169 764c-66 0 -81 -36 -81 -89h-63c2 94 51 142 144 142c86 0 139 -46 139 -120c0 -39 -20 -68 -57 -85c48 -16 71 -49 71 -100c0 -81 -61 -134 -155 -134c-96 0 -151 52 -151 142h62c3 -62 31 -89 91 -89c56 0 90 30 90 81c0 36 -23 64 -58 70c-15 2 -31 2 -66 2v51
c86 0 110 14 110 61c0 42 -29 68 -76 68z" />
    <glyph glyph-name="acute" unicode="&#xb4;" horiz-adv-x="333" 
d="M188 740h113l-149 -148h-60z" />
    <glyph glyph-name="micro" unicode="&#xb5;" horiz-adv-x="556" 
d="M544 49v-63c-26 -7 -39 -9 -57 -9c-57 0 -84 26 -86 83c-39 -55 -95 -83 -163 -83c-36 0 -65 8 -90 26v-223h-83v744h83v-371c0 -63 42 -103 107 -103c87 0 143 70 143 177v297h83v-436c0 -27 16 -41 45 -41c4 0 8 0 18 2z" />
    <glyph glyph-name="paragraph" unicode="&#xb6;" horiz-adv-x="537" 
d="M255 259c-135 7 -207 111 -207 230c0 135 98 240 224 240h250v-64h-57v-842h-64v842h-82v-842h-64v436z" />
    <glyph glyph-name="middot" unicode="&#xb7;" horiz-adv-x="250" 
d="M191 331v-104h-104v104h104z" />
    <glyph glyph-name="cedilla" unicode="&#xb8;" horiz-adv-x="333" 
d="M60 -140c39 -17 61 -33 98 -33c31 0 54 19 54 45c0 23 -17 37 -46 37c-12 0 -19 -2 -31 -8l-12 7l42 92h38l-23 -56c13 2 20 2 28 2c50 0 79 -24 79 -67c0 -57 -47 -93 -123 -93c-39 0 -63 7 -125 34z" />
    <glyph glyph-name="onesuperior" unicode="&#xb9;" horiz-adv-x="350" 
d="M168 686h-99v46l15 1c72 7 86 18 103 82h43v-425h-62v296z" />
    <glyph glyph-name="ordmasculine" unicode="&#xba;" horiz-adv-x="365" 
d="M314 354v-51h-263v51h263zM182 742c91 0 142 -62 142 -174c0 -106 -53 -169 -142 -169c-90 0 -142 63 -142 172c0 108 52 171 142 171zM182 690c-52 0 -84 -45 -84 -119c0 -75 32 -120 84 -120s84 45 84 118c0 76 -31 121 -84 121z" />
    <glyph glyph-name="guillemotright" unicode="&#xbb;" horiz-adv-x="500" 
d="M429 317v-89l-152 -122v83l106 83l-106 83v83zM224 317v-89l-152 -122v83l106 83l-106 83v83z" />
    <glyph glyph-name="onequarter" unicode="&#xbc;" horiz-adv-x="869" 
d="M160 597h-99v46l15 1c72 7 86 18 103 82h43v-425h-62v296zM643 709h58l-452 -729h-58zM720 100h-188v59l204 266h46v-272h67v-53h-67v-100h-62v100zM720 153v170l-129 -170h129z" />
    <glyph glyph-name="onehalf" unicode="&#xbd;" horiz-adv-x="869" 
d="M160 600h-99v46l15 1c72 7 86 18 103 82h43v-425h-62v296zM619 709h58l-452 -729h-58zM696 372c-74 0 -84 -56 -87 -99h-62c3 103 52 152 151 152c86 0 146 -52 146 -126c0 -53 -33 -98 -96 -129l-63 -32c-43 -23 -61 -42 -73 -80h229v-58h-304c5 97 31 136 127 187
l58 31c39 21 59 48 59 79c0 43 -37 75 -85 75z" />
    <glyph glyph-name="threequarters" unicode="&#xbe;" horiz-adv-x="879" 
d="M179 681c-66 0 -81 -36 -81 -89h-63c2 94 51 142 144 142c86 0 139 -46 139 -120c0 -39 -20 -68 -57 -85c48 -16 71 -49 71 -100c0 -81 -61 -134 -155 -134c-96 0 -151 52 -151 142h62c3 -62 31 -89 91 -89c56 0 90 30 90 81c0 36 -23 64 -58 70c-15 2 -31 2 -66 2v51
c86 0 110 14 110 61c0 42 -29 68 -76 68zM640 709h58l-452 -729h-58zM707 100h-188v59l204 266h46v-272h67v-53h-67v-100h-62v100zM707 153v170l-129 -170h129z" />
    <glyph glyph-name="questiondown" unicode="&#xbf;" horiz-adv-x="556" 
d="M96 -25c0 165 179 184 179 303v47h90v-55c0 -136 -179 -169 -179 -295c0 -68 51 -114 128 -114c104 0 129 67 129 156h85c0 -154 -75 -234 -219 -234c-130 0 -213 75 -213 192zM275 420v104h90v-104h-90z" />
    <glyph glyph-name="Agrave" unicode="&#xc0;" horiz-adv-x="666" 
d="M315 900l106 -126h-65l-164 126h123zM472 219h-281l-77 -219h-99l260 729h120l256 -729h-104zM446 297l-112 332l-120 -332h232z" />
    <glyph glyph-name="Aacute" unicode="&#xc1;" horiz-adv-x="666" 
d="M375 900h123l-164 -125h-65zM472 219h-281l-77 -219h-99l260 729h120l256 -729h-104zM446 297l-112 332l-120 -332h232z" />
    <glyph glyph-name="Acircumflex" unicode="&#xc2;" horiz-adv-x="666" 
d="M286 900h95l96 -125h-63l-81 61l-79 -61h-64zM472 219h-281l-77 -219h-99l260 729h120l256 -729h-104zM446 297l-112 332l-120 -332h232z" />
    <glyph glyph-name="Atilde" unicode="&#xc3;" horiz-adv-x="666" 
d="M266 887c49 0 92 -37 133 -37c18 0 29 12 37 37h58c-10 -69 -40 -104 -89 -104c-37 0 -105 38 -134 38c-15 0 -27 -14 -33 -37h-58c11 66 42 103 86 103zM472 219h-281l-77 -219h-99l260 729h120l256 -729h-104zM446 297l-112 332l-120 -332h232z" />
    <glyph glyph-name="Adieresis" unicode="&#xc4;" horiz-adv-x="666" 
d="M482 881v-104h-104v104h104zM303 881v-104h-104v104h104zM472 220h-281l-77 -219h-99l260 729h120l256 -729h-104zM446 298l-112 332l-120 -332h232z" />
    <glyph glyph-name="Aring" unicode="&#xc5;" horiz-adv-x="666" 
d="M335 966c59 0 106 -47 106 -106c0 -58 -48 -104 -106 -104s-106 48 -106 105s48 105 106 105zM335 904c-24 0 -44 -20 -44 -43c0 -24 20 -44 44 -44s44 20 44 43c0 25 -19 44 -44 44zM472 219h-281l-77 -219h-99l260 729h120l256 -729h-104zM446 297l-112 332l-120 -332
h232z" />
    <glyph glyph-name="AE" unicode="&#xc6;" horiz-adv-x="984" 
d="M472 214h-269l-85 -214h-103l299 729h622v-82h-371v-233h352v-82h-352v-250h389v-82h-482v214zM472 296v351h-100l-138 -351h238z" />
    <glyph glyph-name="Ccedilla" unicode="&#xc7;" horiz-adv-x="709" 
d="M370 58c122 0 180 67 203 208h96c-22 -191 -122 -289 -298 -289l-13 -33c13 2 20 2 28 2c50 0 79 -24 79 -67c0 -57 -47 -93 -123 -93c-38 0 -64 7 -125 34l21 40c32 -14 59 -33 98 -33c31 0 54 19 54 45c0 23 -17 37 -46 37c-12 0 -19 -2 -31 -8l-11 7l31 69
c-76 11 -106 22 -149 52c-91 65 -144 185 -144 327c0 152 67 385 333 385c160 0 252 -78 281 -238h-95c-20 99 -75 156 -196 156c-142 0 -230 -115 -230 -302c0 -183 92 -299 237 -299z" />
    <glyph glyph-name="Egrave" unicode="&#xc8;" horiz-adv-x="633" 
d="M325 900l106 -126h-65l-164 126h123zM173 332v-250h430v-82h-523v729h505v-82h-412v-233h397v-82h-397z" />
    <glyph glyph-name="Eacute" unicode="&#xc9;" horiz-adv-x="633" 
d="M345 900h123l-164 -125h-65zM173 332v-250h430v-82h-523v729h505v-82h-412v-233h397v-82h-397z" />
    <glyph glyph-name="Ecircumflex" unicode="&#xca;" horiz-adv-x="633" 
d="M286 900h95l96 -125h-63l-81 61l-79 -61h-64zM173 332v-250h430v-82h-523v729h505v-82h-412v-233h397v-82h-397z" />
    <glyph glyph-name="Edieresis" unicode="&#xcb;" horiz-adv-x="633" 
d="M478 884v-104h-104v104h104zM299 884v-104h-104v104h104zM173 332v-250h430v-82h-523v729h505v-82h-412v-233h397v-82h-397z" />
    <glyph glyph-name="Igrave" unicode="&#xcc;" horiz-adv-x="278" 
d="M123 900l106 -126h-65l-164 126h123zM194 729v-729h-94v729h94z" />
    <glyph glyph-name="Iacute" unicode="&#xcd;" horiz-adv-x="278" 
d="M155 900h123l-164 -125h-65zM194 729v-729h-94v729h94z" />
    <glyph glyph-name="Icircumflex" unicode="&#xce;" horiz-adv-x="300" 
d="M106 900h95l96 -125h-63l-81 61l-79 -61h-64zM199 729v-729h-94v729h94z" />
    <glyph glyph-name="Idieresis" unicode="&#xcf;" horiz-adv-x="300" 
d="M194 729v-729h-94v729h94zM291 882v-104h-104v104h104zM112 882v-104h-104v104h104z" />
    <glyph glyph-name="Eth" unicode="&#xd0;" horiz-adv-x="707" 
d="M89 339h-69v67h69v323h282c184 0 296 -138 296 -364c0 -227 -112 -365 -296 -365h-282v339zM182 339v-257h173c143 0 219 97 219 283c0 185 -76 282 -219 282h-173v-241h171v-67h-171z" />
    <glyph glyph-name="Ntilde" unicode="&#xd1;" horiz-adv-x="730" 
d="M290 870c49 0 92 -37 133 -37c18 0 29 12 37 37h58c-10 -69 -40 -104 -89 -104c-37 0 -105 38 -134 38c-15 0 -27 -14 -33 -37h-58c11 66 42 103 86 103zM650 729v-729h-105l-377 591v-591h-88v729h101l381 -596v596h88z" />
    <glyph glyph-name="Ograve" unicode="&#xd2;" horiz-adv-x="784" 
d="M365 900l106 -126h-65l-164 126h123zM744 353c0 -210 -134 -376 -352 -376c-210 0 -352 154 -352 382s142 382 351 382c214 0 353 -153 353 -388zM391 659c-154 0 -258 -120 -258 -300s104 -300 259 -300c154 0 259 120 259 296c0 184 -102 304 -260 304z" />
    <glyph glyph-name="Oacute" unicode="&#xd3;" horiz-adv-x="784" 
d="M425 900h123l-164 -125h-65zM744 353c0 -210 -134 -376 -352 -376c-210 0 -352 154 -352 382s142 382 351 382c214 0 353 -153 353 -388zM391 659c-154 0 -258 -120 -258 -300s104 -300 259 -300c154 0 259 120 259 296c0 184 -102 304 -260 304z" />
    <glyph glyph-name="Ocircumflex" unicode="&#xd4;" horiz-adv-x="784" 
d="M346 900h95l96 -125h-63l-81 61l-79 -61h-64zM744 353c0 -210 -134 -376 -352 -376c-210 0 -352 154 -352 382s142 382 351 382c214 0 353 -153 353 -388zM391 659c-154 0 -258 -120 -258 -300s104 -300 259 -300c154 0 259 120 259 296c0 184 -102 304 -260 304z" />
    <glyph glyph-name="Otilde" unicode="&#xd5;" horiz-adv-x="784" 
d="M318 882c49 0 92 -37 133 -37c18 0 29 12 37 37h58c-10 -69 -40 -104 -89 -104c-37 0 -105 38 -134 38c-15 0 -27 -14 -33 -37h-58c11 66 42 103 86 103zM744 353c0 -210 -134 -376 -352 -376c-210 0 -352 154 -352 382s142 382 351 382c214 0 353 -153 353 -388z
M391 659c-154 0 -258 -120 -258 -300s104 -300 259 -300c154 0 259 120 259 296c0 184 -102 304 -260 304z" />
    <glyph glyph-name="Odieresis" unicode="&#xd6;" horiz-adv-x="784" 
d="M534 884v-104h-104v104h104zM355 884v-104h-104v104h104zM744 353c0 -210 -134 -376 -352 -376c-210 0 -352 154 -352 382s142 382 351 382c214 0 353 -153 353 -388zM391 659c-154 0 -258 -120 -258 -300s104 -300 259 -300c154 0 259 120 259 296
c0 184 -102 304 -260 304z" />
    <glyph glyph-name="multiply" unicode="&#xd7;" horiz-adv-x="584" 
d="M438 427l49 -50l-146 -146l147 -147l-50 -50l-147 147l-146 -146l-50 49l147 147l-146 146l49 49l146 -145z" />
    <glyph glyph-name="Oslash" unicode="&#xd8;" horiz-adv-x="789" 
d="M35 19l81 89c-50 70 -76 155 -76 252c0 227 142 381 352 381c91 0 168 -27 230 -81l87 95l40 -36l-89 -97c54 -68 84 -162 84 -264c0 -227 -142 -381 -352 -381c-97 0 -175 29 -241 90l-77 -84zM179 176l384 419c-48 42 -106 64 -171 64c-155 0 -259 -120 -259 -299
c0 -69 16 -132 46 -184zM598 554l-387 -421c49 -49 110 -74 181 -74c155 0 259 120 259 299c0 75 -18 142 -53 196z" />
    <glyph glyph-name="Ugrave" unicode="&#xd9;" horiz-adv-x="720" 
d="M345 900l106 -126h-65l-164 126h123zM547 729h93v-512c0 -146 -110 -240 -281 -240c-173 0 -279 92 -279 240v512h93v-512c0 -110 79 -158 186 -158c117 0 188 60 188 158v512z" />
    <glyph glyph-name="Uacute" unicode="&#xda;" horiz-adv-x="720" 
d="M385 900h123l-164 -125h-65zM547 729h93v-512c0 -146 -110 -240 -281 -240c-173 0 -279 92 -279 240v512h93v-512c0 -110 79 -158 186 -158c117 0 188 60 188 158v512z" />
    <glyph glyph-name="Ucircumflex" unicode="&#xdb;" horiz-adv-x="720" 
d="M316 900h95l96 -125h-63l-81 61l-79 -61h-64zM547 729h93v-512c0 -146 -110 -240 -281 -240c-173 0 -279 92 -279 240v512h93v-512c0 -110 79 -158 186 -158c117 0 188 60 188 158v512z" />
    <glyph glyph-name="Udieresis" unicode="&#xdc;" horiz-adv-x="720" 
d="M547 729h93v-512c0 -146 -110 -240 -281 -240c-173 0 -279 92 -279 240v512h93v-512c0 -110 79 -158 186 -158c117 0 188 60 188 158v512zM510 881v-104h-104v104h104zM331 881v-104h-104v104h104z" />
    <glyph glyph-name="Yacute" unicode="&#xdd;" horiz-adv-x="678" 
d="M365 900h123l-164 -125h-65zM389 286v-286h-93v286l-281 443h115l214 -355l208 355h111z" />
    <glyph glyph-name="Thorn" unicode="&#xde;" horiz-adv-x="645" 
d="M173 189v-189h-93v729h93v-120h208c139 0 224 -80 224 -212c0 -122 -84 -208 -203 -208h-229zM173 271h194c87 0 138 48 138 128s-51 128 -138 128h-194v-256z" />
    <glyph glyph-name="ssharp" unicode="&#xdf;" horiz-adv-x="594" 
d="M277 427c120 0 155 54 155 113c0 65 -52 112 -132 112c-98 0 -132 -57 -132 -142v-510h-88v532c0 115 80 196 221 196c137 0 219 -71 219 -180c0 -97 -59 -133 -82 -148c74 -20 116 -106 116 -166c0 -177 -106 -258 -232 -258c-29 0 -61 11 -73 16v75
c15 -5 50 -11 64 -11c87 0 150 57 150 158c0 113 -73 140 -186 140v73z" />
    <glyph glyph-name="agrave" unicode="&#xe0;" horiz-adv-x="543" 
d="M242 740l96 -148h-60l-149 148h113zM53 369c5 142 116 170 210 170c129 0 197 -50 197 -143v-308c0 -26 16 -41 45 -41c5 0 9 0 18 2v-63c-27 -7 -40 -9 -57 -9c-54 0 -80 24 -86 77c-59 -54 -112 -77 -178 -77c-106 0 -172 60 -172 155c0 140 107 152 260 172
c66 8 87 23 87 58v22c0 50 -42 78 -117 78c-78 0 -116 -29 -123 -93h-84zM220 50c99 0 157 65 157 115v94c-85 -39 -260 -10 -260 -125c0 -53 38 -84 103 -84z" />
    <glyph glyph-name="aacute" unicode="&#xe1;" horiz-adv-x="543" 
d="M280 740h113l-149 -148h-60zM53 369c5 142 116 170 210 170c129 0 197 -50 197 -143v-308c0 -26 16 -41 45 -41c5 0 9 0 18 2v-63c-27 -7 -40 -9 -57 -9c-54 0 -80 24 -86 77c-59 -54 -112 -77 -178 -77c-106 0 -172 60 -172 155c0 140 107 152 260 172c66 8 87 23 87 58
v22c0 50 -42 78 -117 78c-78 0 -116 -29 -123 -93h-84zM220 50c99 0 157 65 157 115v94c-85 -39 -260 -10 -260 -125c0 -53 38 -84 103 -84z" />
    <glyph glyph-name="acircumflex" unicode="&#xe2;" horiz-adv-x="543" 
d="M228 727h95l96 -150h-63l-81 96l-79 -96h-64zM53 369c5 142 116 170 210 170c129 0 197 -50 197 -143v-308c0 -26 16 -41 45 -41c5 0 9 0 18 2v-63c-27 -7 -40 -9 -57 -9c-54 0 -80 24 -86 77c-59 -54 -112 -77 -178 -77c-106 0 -172 60 -172 155c0 140 107 152 260 172
c66 8 87 23 87 58v22c0 50 -42 78 -117 78c-78 0 -116 -29 -123 -93h-84zM220 50c99 0 157 65 157 115v94c-85 -39 -260 -10 -260 -125c0 -53 38 -84 103 -84z" />
    <glyph glyph-name="atilde" unicode="&#xe3;" horiz-adv-x="543" 
d="M204 709c49 0 92 -37 133 -37c18 0 29 12 37 37h58c-10 -69 -40 -104 -89 -104c-37 0 -105 38 -134 38c-15 0 -27 -14 -33 -37h-58c11 66 42 103 86 103zM53 369c5 142 116 170 210 170c129 0 197 -50 197 -143v-308c0 -26 16 -41 45 -41c5 0 9 0 18 2v-63
c-27 -7 -40 -9 -57 -9c-54 0 -80 24 -86 77c-59 -54 -112 -77 -178 -77c-106 0 -172 60 -172 155c0 140 107 152 260 172c66 8 87 23 87 58v22c0 50 -42 78 -117 78c-78 0 -116 -29 -123 -93h-84zM220 50c99 0 157 65 157 115v94c-85 -39 -260 -10 -260 -125
c0 -53 38 -84 103 -84z" />
    <glyph glyph-name="adieresis" unicode="&#xe4;" horiz-adv-x="543" 
d="M420 727v-104h-104v104h104zM241 727v-104h-104v104h104zM53 369c5 142 116 170 210 170c129 0 197 -50 197 -143v-308c0 -26 16 -41 45 -41c5 0 9 0 18 2v-63c-27 -7 -40 -9 -57 -9c-54 0 -80 24 -86 77c-59 -54 -112 -77 -178 -77c-106 0 -172 60 -172 155
c0 140 107 152 260 172c66 8 87 23 87 58v22c0 50 -42 78 -117 78c-78 0 -116 -29 -123 -93h-84zM220 50c99 0 157 65 157 115v94c-85 -39 -260 -10 -260 -125c0 -53 38 -84 103 -84z" />
    <glyph glyph-name="aring" unicode="&#xe5;" horiz-adv-x="543" 
d="M275 772c59 0 106 -47 106 -106c0 -58 -48 -104 -106 -104s-106 48 -106 105s48 105 106 105zM275 710c-24 0 -44 -20 -44 -43c0 -24 20 -44 44 -44s44 20 44 43c0 25 -19 44 -44 44zM53 369c5 142 116 170 210 170c129 0 197 -50 197 -143v-308c0 -26 16 -41 45 -41
c5 0 9 0 18 2v-63c-27 -7 -40 -9 -57 -9c-54 0 -80 24 -86 77c-59 -54 -112 -77 -178 -77c-106 0 -172 60 -172 155c0 140 107 152 260 172c66 8 87 23 87 58v22c0 50 -42 78 -117 78c-78 0 -116 -29 -123 -93h-84zM220 50c99 0 157 65 157 115v94
c-85 -39 -260 -10 -260 -125c0 -53 38 -84 103 -84z" />
    <glyph glyph-name="ae" unicode="&#xe6;" horiz-adv-x="871" 
d="M455 234c3 -146 92 -180 154 -180c67 0 114 36 138 105h84c-21 -114 -105 -182 -223 -182c-145 0 -188 100 -194 110c-75 -78 -138 -110 -216 -110c-102 0 -168 61 -168 155c0 131 107 158 260 171c68 6 87 20 87 59v22c0 51 -41 78 -118 78s-115 -29 -122 -93h-84
c5 142 117 170 208 170c85 0 144 -28 175 -82c36 51 101 82 173 82c97 0 177 -53 211 -138c15 -39 21 -87 21 -167h-386zM217 50c107 0 160 85 160 107v101c-99 -43 -260 -9 -260 -124c0 -52 38 -84 100 -84zM457 302h294c0 95 -59 160 -144 160c-84 0 -143 -63 -150 -160z
" />
    <glyph glyph-name="ccedilla" unicode="&#xe7;" horiz-adv-x="506" 
d="M224 -21c-188 35 -194 225 -194 274c0 174 92 286 233 286c120 0 197 -66 207 -191h-84c-10 73 -54 114 -124 114c-91 0 -145 -78 -145 -210c0 -124 55 -199 147 -199c71 0 114 43 128 127h84c-7 -125 -90 -203 -213 -203l-13 -33c14 2 20 2 28 2c50 0 79 -25 79 -67
c0 -57 -47 -93 -123 -93c-39 0 -61 6 -125 33l21 41c32 -14 58 -33 98 -33c31 0 54 19 54 45c0 23 -17 37 -46 37c-12 0 -19 -2 -31 -8l-12 7z" />
    <glyph glyph-name="egrave" unicode="&#xe8;" horiz-adv-x="533" 
d="M246 740l96 -148h-60l-149 148h113zM503 234h-386c2 -107 57 -180 154 -180c67 0 114 36 137 105h84c-21 -114 -104 -182 -224 -182c-147 0 -238 106 -238 278s94 284 240 284c162 0 233 -115 233 -305zM119 302h295c0 90 -59 160 -145 160c-84 0 -143 -63 -150 -160z
" />
    <glyph glyph-name="eacute" unicode="&#xe9;" horiz-adv-x="533" 
d="M294 740h113l-149 -148h-60zM503 234h-386c2 -107 57 -180 154 -180c67 0 114 36 137 105h84c-21 -114 -104 -182 -224 -182c-147 0 -238 106 -238 278s94 284 240 284c162 0 233 -115 233 -305zM119 302h295c0 90 -59 160 -145 160c-84 0 -143 -63 -150 -160z" />
    <glyph glyph-name="ecircumflex" unicode="&#xea;" horiz-adv-x="533" 
d="M229 727h95l96 -150h-63l-81 96l-79 -96h-64zM503 234h-386c2 -107 57 -180 154 -180c67 0 114 36 137 105h84c-21 -114 -104 -182 -224 -182c-147 0 -238 106 -238 278s94 284 240 284c162 0 233 -115 233 -305zM119 302h295c0 90 -59 160 -145 160
c-84 0 -143 -63 -150 -160z" />
    <glyph glyph-name="edieresis" unicode="&#xeb;" horiz-adv-x="533" 
d="M415 727v-104h-104v104h104zM236 727v-104h-104v104h104zM503 234h-386c2 -107 57 -180 154 -180c67 0 114 36 137 105h84c-21 -114 -104 -182 -224 -182c-147 0 -238 106 -238 278s94 284 240 284c162 0 233 -115 233 -305zM119 302h295c0 90 -59 160 -145 160
c-84 0 -143 -63 -150 -160z" />
    <glyph glyph-name="igrave" unicode="&#xec;" horiz-adv-x="222" 
d="M113 740l96 -148h-60l-149 148h113zM153 524v-524h-83v524h83z" />
    <glyph glyph-name="iacute" unicode="&#xed;" horiz-adv-x="222" 
d="M109 740h113l-149 -148h-60zM153 524v-524h-83v524h83z" />
    <glyph glyph-name="icircumflex" unicode="&#xee;" horiz-adv-x="262" 
d="M173 524v-524h-83v524h83zM84 727h95l96 -150h-63l-81 96l-79 -96h-64z" />
    <glyph glyph-name="idieresis" unicode="&#xef;" horiz-adv-x="262" 
d="M173 524v-524h-83v524h83zM272 728v-104h-104v104h104zM93 728v-104h-104v104h104z" />
    <glyph glyph-name="eth" unicode="&#xf0;" horiz-adv-x="534" 
d="M30 258c0 223 131 279 218 279c19 0 33 -3 63 -13c-35 35 -46 45 -98 89l-97 -45l-36 39l85 40c-26 20 -39 28 -82 52l44 44c31 -13 44 -20 111 -63l97 45l40 -37l-90 -41c71 -54 219 -170 219 -388c0 -180 -86 -282 -237 -282s-237 102 -237 281zM267 462
c-93 0 -150 -78 -150 -204s57 -204 150 -204c92 0 150 78 150 201c0 130 -56 207 -150 207z" />
    <glyph glyph-name="ntilde" unicode="&#xf1;" horiz-adv-x="537" 
d="M207 706c49 0 92 -37 133 -37c18 0 29 12 37 37h58c-10 -69 -40 -104 -89 -104c-37 0 -105 38 -134 38c-15 0 -27 -14 -33 -37h-58c11 66 42 103 86 103zM60 524h77v-88c46 73 96 103 174 103c101 0 166 -56 166 -143v-396h-83v363c0 63 -42 103 -108 103
c-86 0 -142 -70 -142 -177v-289h-84v524z" />
    <glyph glyph-name="ograve" unicode="&#xf2;" horiz-adv-x="534" 
d="M247 740l96 -148h-60l-149 148h113zM266 539c151 0 238 -104 238 -285c0 -172 -90 -277 -237 -277c-149 0 -237 105 -237 281s89 281 236 281zM267 462c-93 0 -150 -78 -150 -204c0 -127 57 -204 150 -204c92 0 150 78 150 201c0 130 -56 207 -150 207z" />
    <glyph glyph-name="oacute" unicode="&#xf3;" horiz-adv-x="534" 
d="M286 740h113l-149 -148h-60zM266 539c151 0 238 -104 238 -285c0 -172 -90 -277 -237 -277c-149 0 -237 105 -237 281s89 281 236 281zM267 462c-93 0 -150 -78 -150 -204c0 -127 57 -204 150 -204c92 0 150 78 150 201c0 130 -56 207 -150 207z" />
    <glyph glyph-name="ocircumflex" unicode="&#xf4;" horiz-adv-x="534" 
d="M216 730h95l96 -150h-63l-81 96l-79 -96h-64zM266 539c151 0 238 -104 238 -285c0 -172 -90 -277 -237 -277c-149 0 -237 105 -237 281s89 281 236 281zM267 462c-93 0 -150 -78 -150 -204c0 -127 57 -204 150 -204c92 0 150 78 150 201c0 130 -56 207 -150 207z" />
    <glyph glyph-name="otilde" unicode="&#xf5;" horiz-adv-x="534" 
d="M201 708c49 0 92 -37 133 -37c18 0 29 12 37 37h58c-10 -69 -40 -104 -89 -104c-37 0 -105 38 -134 38c-15 0 -27 -14 -33 -37h-58c11 66 42 103 86 103zM266 539c151 0 238 -104 238 -285c0 -172 -90 -277 -237 -277c-149 0 -237 105 -237 281s89 281 236 281zM267 462
c-93 0 -150 -78 -150 -204c0 -127 57 -204 150 -204c92 0 150 78 150 201c0 130 -56 207 -150 207z" />
    <glyph glyph-name="odieresis" unicode="&#xf6;" horiz-adv-x="534" 
d="M407 729v-104h-104v104h104zM228 729v-104h-104v104h104zM266 539c151 0 238 -104 238 -285c0 -172 -90 -277 -237 -277c-149 0 -237 105 -237 281s89 281 236 281zM267 462c-93 0 -150 -78 -150 -204c0 -127 57 -204 150 -204c92 0 150 78 150 201
c0 130 -56 207 -150 207z" />
    <glyph glyph-name="divide" unicode="&#xf7;" horiz-adv-x="584" 
d="M534 271v-70h-484v70h484zM344 104v-104h-104v104h104zM344 472v-104h-104v104h104z" />
    <glyph glyph-name="oslash" unicode="&#xf8;" horiz-adv-x="534" 
d="M521 511l-63 -71c30 -50 44 -106 44 -182c0 -176 -88 -281 -236 -281c-67 0 -123 21 -163 62l-61 -69l-32 28l66 74c-33 49 -48 108 -48 186c0 176 89 281 237 281c69 0 121 -20 166 -65l58 65zM397 371l-238 -269c29 -32 64 -48 106 -48c93 0 150 78 150 204
c0 44 -6 82 -18 113zM136 141l239 269c-26 33 -66 52 -110 52c-93 0 -150 -78 -150 -204c0 -47 7 -84 21 -117z" />
    <glyph glyph-name="ugrave" unicode="&#xf9;" horiz-adv-x="537" 
d="M236 740l96 -148h-60l-149 148h113zM477 0h-75v73c-49 -69 -98 -96 -175 -96c-102 0 -167 56 -167 143v404h83v-371c0 -63 42 -103 108 -103c87 0 143 70 143 177v297h83v-524z" />
    <glyph glyph-name="uacute" unicode="&#xfa;" horiz-adv-x="537" 
d="M303 740h113l-149 -148h-60zM477 0h-75v73c-49 -69 -98 -96 -175 -96c-102 0 -167 56 -167 143v404h83v-371c0 -63 42 -103 108 -103c87 0 143 70 143 177v297h83v-524z" />
    <glyph glyph-name="ucircumflex" unicode="&#xfb;" horiz-adv-x="537" 
d="M221 729h95l96 -150h-63l-81 96l-79 -96h-64zM477 0h-75v73c-49 -69 -98 -96 -175 -96c-102 0 -167 56 -167 143v404h83v-371c0 -63 42 -103 108 -103c87 0 143 70 143 177v297h83v-524z" />
    <glyph glyph-name="udieresis" unicode="&#xfc;" horiz-adv-x="537" 
d="M412 729v-104h-104v104h104zM233 729v-104h-104v104h104zM477 0h-75v73c-49 -69 -98 -96 -175 -96c-102 0 -167 56 -167 143v404h83v-371c0 -63 42 -103 108 -103c87 0 143 70 143 177v297h83v-524z" />
    <glyph glyph-name="yacute" unicode="&#xfd;" horiz-adv-x="478" 
d="M277 740h113l-149 -148h-60zM378 524h90l-233 -634c-29 -77 -78 -108 -135 -108c-22 0 -39 4 -56 13v75c18 -4 32 -6 44 -6c35 0 53 14 67 51l32 83l-177 526h89l134 -408z" />
    <glyph glyph-name="thorn" unicode="&#xfe;" horiz-adv-x="558" 
d="M60 -218v932h83v-255c36 51 94 80 161 80c136 0 224 -112 224 -286c0 -167 -89 -276 -224 -276c-68 0 -117 24 -161 78v-273h-83zM289 461c-88 0 -146 -80 -146 -203s58 -203 146 -203c91 0 152 81 152 200c0 125 -60 206 -152 206z" />
    <glyph glyph-name="ydieresis" unicode="&#xff;" horiz-adv-x="478" 
d="M394 729v-104h-104v104h104zM215 729v-104h-104v104h104zM378 524h90l-233 -634c-29 -77 -78 -108 -135 -108c-22 0 -39 4 -56 13v75c18 -4 32 -6 44 -6c35 0 53 14 67 51l32 83l-177 526h89l134 -408z" />
    <glyph glyph-name="Amacron" unicode="&#x100;" horiz-adv-x="666" 
d="M474 870v-70h-274v70h274zM472 219h-281l-77 -219h-99l260 729h120l256 -729h-104zM446 297l-112 332l-120 -332h232z" />
    <glyph glyph-name="amacron" unicode="&#x101;" horiz-adv-x="543" 
d="M412 681v-70h-274v70h274zM53 369c5 142 116 170 210 170c129 0 197 -50 197 -143v-308c0 -26 16 -41 45 -41c5 0 9 0 18 2v-63c-27 -7 -40 -9 -57 -9c-54 0 -80 24 -86 77c-59 -54 -112 -77 -178 -77c-106 0 -172 60 -172 155c0 140 107 152 260 172c66 8 87 23 87 58
v22c0 50 -42 78 -117 78c-78 0 -116 -29 -123 -93h-84zM220 50c99 0 157 65 157 115v94c-85 -39 -260 -10 -260 -125c0 -53 38 -84 103 -84z" />
    <glyph glyph-name="Abreve" unicode="&#x102;" horiz-adv-x="666" 
d="M187 900h59c5 -44 35 -66 92 -66c54 0 87 24 91 66h59c-7 -89 -59 -135 -152 -135c-61 0 -146 24 -149 135zM472 219h-281l-77 -219h-99l260 729h120l256 -729h-104zM446 297l-112 332l-120 -332h232z" />
    <glyph glyph-name="abreve" unicode="&#x103;" horiz-adv-x="543" 
d="M125 727h59c5 -44 35 -66 92 -66c54 0 87 24 91 66h59c-7 -89 -59 -135 -152 -135c-61 0 -146 24 -149 135zM53 369c5 142 116 170 210 170c129 0 197 -50 197 -143v-308c0 -26 16 -41 45 -41c5 0 9 0 18 2v-63c-27 -7 -40 -9 -57 -9c-54 0 -80 24 -86 77
c-59 -54 -112 -77 -178 -77c-106 0 -172 60 -172 155c0 140 107 152 260 172c66 8 87 23 87 58v22c0 50 -42 78 -117 78c-78 0 -116 -29 -123 -93h-84zM220 50c99 0 157 65 157 115v94c-85 -39 -260 -10 -260 -125c0 -53 38 -84 103 -84z" />
    <glyph glyph-name="Aogonek" unicode="&#x104;" horiz-adv-x="667" 
d="M616 -205c-73 0 -132 36 -132 94c0 48 36 89 97 111h-32l-75 219h-281l-77 -219h-99l260 729h120l256 -729h-2c-73 -41 -94 -64 -94 -106c0 -35 25 -54 72 -54c24 0 45 3 63 10v-45c-24 -5 -57 -10 -76 -10zM448 297l-112 332l-120 -332h232z" />
    <glyph glyph-name="aogonek" unicode="&#x105;" horiz-adv-x="543" 
d="M54 369c5 142 115 170 209 170c129 0 197 -50 197 -143v-308c0 -26 16 -41 45 -41c5 0 9 0 18 2v-63c-48 -19 -76 -52 -76 -91c0 -36 25 -55 72 -55c25 0 46 3 64 10v-45c-25 -6 -55 -10 -71 -10c-52 0 -137 22 -137 93c0 38 18 62 68 89c-38 7 -59 33 -63 77
c-56 -53 -112 -77 -178 -77c-106 0 -172 60 -172 155c0 142 120 154 261 172c65 8 86 22 86 58v22c0 51 -41 78 -117 78c-78 0 -116 -29 -122 -93h-84zM219 50c99 0 157 65 157 115v94c-85 -39 -260 -10 -260 -125c0 -53 38 -84 103 -84z" />
    <glyph glyph-name="Cacute" unicode="&#x106;" horiz-adv-x="709" 
d="M395 900h123l-164 -125h-65zM40 356c0 152 67 385 333 385c160 0 252 -78 281 -238h-95c-21 102 -79 156 -197 156c-141 0 -229 -115 -229 -302c0 -182 92 -298 237 -298c122 0 181 69 203 207h96c-22 -193 -122 -289 -300 -289c-263 0 -329 230 -329 379z" />
    <glyph glyph-name="cacute" unicode="&#x107;" horiz-adv-x="506" 
d="M285 740h113l-149 -148h-60zM470 348h-84c-10 73 -54 114 -124 114c-91 0 -145 -78 -145 -209c0 -124 55 -199 147 -199c71 0 114 42 128 126h84c-10 -128 -89 -203 -214 -203c-142 0 -232 107 -232 276c0 174 92 286 233 286c120 0 197 -66 207 -191z" />
    <glyph glyph-name="Ccircumflex" unicode="&#x108;" horiz-adv-x="709" 
d="M326 900h95l96 -125h-63l-81 61l-79 -61h-64zM40 356c0 152 67 385 333 385c160 0 252 -78 281 -238h-95c-21 102 -79 156 -197 156c-141 0 -229 -115 -229 -302c0 -182 92 -298 237 -298c122 0 181 69 203 207h96c-22 -193 -122 -289 -300 -289
c-263 0 -329 230 -329 379z" />
    <glyph glyph-name="ccircumflex" unicode="&#x109;" horiz-adv-x="506" 
d="M215 708h95l96 -150h-63l-81 96l-79 -96h-64zM470 348h-84c-10 73 -54 114 -124 114c-91 0 -145 -78 -145 -209c0 -124 55 -199 147 -199c71 0 114 42 128 126h84c-10 -128 -89 -203 -214 -203c-142 0 -232 107 -232 276c0 174 92 286 233 286c120 0 197 -66 207 -191z
" />
    <glyph glyph-name="Cdotaccent" unicode="&#x10a;" horiz-adv-x="709" 
d="M437 900v-104h-104v104h104zM40 356c0 152 67 385 333 385c160 0 252 -78 281 -238h-95c-21 102 -79 156 -197 156c-141 0 -229 -115 -229 -302c0 -182 92 -298 237 -298c122 0 181 69 203 207h96c-22 -193 -122 -289 -300 -289c-263 0 -329 230 -329 379z" />
    <glyph glyph-name="cdotaccent" unicode="&#x10b;" horiz-adv-x="506" 
d="M311 729v-104h-104v104h104zM470 348h-84c-10 73 -54 114 -124 114c-91 0 -145 -78 -145 -209c0 -124 55 -199 147 -199c71 0 114 42 128 126h84c-10 -128 -89 -203 -214 -203c-142 0 -232 107 -232 276c0 174 92 286 233 286c120 0 197 -66 207 -191z" />
    <glyph glyph-name="Ccaron" unicode="&#x10c;" horiz-adv-x="709" 
d="M425 775h-95l-96 125h63l81 -61l79 61h64zM40 356c0 152 67 385 333 385c160 0 252 -78 281 -238h-95c-21 102 -79 156 -197 156c-141 0 -229 -115 -229 -302c0 -182 92 -298 237 -298c122 0 181 69 203 207h96c-22 -193 -122 -289 -300 -289c-263 0 -329 230 -329 379z
" />
    <glyph glyph-name="ccaron" unicode="&#x10d;" horiz-adv-x="506" 
d="M313 582h-95l-96 150h63l81 -96l79 96h64zM470 348h-84c-10 73 -54 114 -124 114c-91 0 -145 -78 -145 -209c0 -124 55 -199 147 -199c71 0 114 42 128 126h84c-10 -128 -89 -203 -214 -203c-142 0 -232 107 -232 276c0 174 92 286 233 286c120 0 197 -66 207 -191z" />
    <glyph glyph-name="Dcaron" unicode="&#x10e;" horiz-adv-x="698" 
d="M386 775h-95l-96 125h63l81 -61l79 61h64zM80 0v729h281c185 0 297 -138 297 -364c0 -227 -113 -365 -297 -365h-281zM173 82h172c144 0 220 98 220 282c0 186 -76 283 -220 283h-172v-565z" />
    <glyph glyph-name="dcaron" unicode="&#x10f;" horiz-adv-x="745" 
d="M617 740h103l-119 -148h-50zM499 729v-729h-74v69c-45 -65 -95 -92 -167 -92c-141 0 -228 109 -228 286c0 167 89 276 225 276c70 0 126 -28 161 -81v271h83zM269 461c-91 0 -152 -81 -152 -203s61 -203 153 -203c88 0 146 80 146 201c0 125 -57 205 -147 205z" />
    <glyph glyph-name="Dcroat" unicode="&#x110;" horiz-adv-x="707" 
d="M89 339h-69v67h69v323h282c184 0 296 -138 296 -364c0 -227 -112 -365 -296 -365h-282v339zM182 339v-257h173c143 0 219 97 219 283c0 185 -76 282 -219 282h-173v-241h171v-67h-171z" />
    <glyph glyph-name="dcroat" unicode="&#x111;" horiz-adv-x="576" 
d="M498 653h63v-53h-63v-600h-74v59c-48 -56 -101 -82 -168 -82c-136 0 -226 114 -226 287c0 166 89 275 224 275c68 0 117 -24 161 -78v139h-150v53h150v76h83v-76zM269 457c-91 0 -152 -80 -152 -199s61 -199 152 -199c88 0 146 78 146 197c0 123 -57 201 -146 201z" />
    <glyph glyph-name="Emacron" unicode="&#x112;" horiz-adv-x="633" 
d="M480 870v-70h-274v70h274zM173 332v-250h430v-82h-523v729h505v-82h-412v-233h397v-82h-397z" />
    <glyph glyph-name="emacron" unicode="&#x113;" horiz-adv-x="533" 
d="M416 681v-70h-274v70h274zM503 234h-386c2 -107 57 -180 154 -180c67 0 114 36 137 105h84c-21 -114 -104 -182 -224 -182c-147 0 -238 106 -238 278s94 284 240 284c162 0 233 -115 233 -305zM119 302h295c0 90 -59 160 -145 160c-84 0 -143 -63 -150 -160z" />
    <glyph glyph-name="Ebreve" unicode="&#x114;" horiz-adv-x="633" 
d="M192 900h59c5 -44 35 -66 92 -66c54 0 87 24 91 66h59c-7 -89 -59 -135 -152 -135c-61 0 -146 24 -149 135zM173 332v-250h430v-82h-523v729h505v-82h-412v-233h397v-82h-397z" />
    <glyph glyph-name="ebreve" unicode="&#x115;" horiz-adv-x="533" 
d="M129 729h59c5 -44 35 -66 92 -66c54 0 87 24 91 66h59c-7 -89 -59 -135 -152 -135c-61 0 -146 24 -149 135zM503 234h-386c2 -107 57 -180 154 -180c67 0 114 36 137 105h84c-21 -114 -104 -182 -224 -182c-147 0 -238 106 -238 278s94 284 240 284
c162 0 233 -115 233 -305zM119 302h295c0 90 -59 160 -145 160c-84 0 -143 -63 -150 -160z" />
    <glyph glyph-name="Edotaccent" unicode="&#x116;" horiz-adv-x="633" 
d="M395 899v-104h-104v104h104zM173 332v-250h430v-82h-523v729h505v-82h-412v-233h397v-82h-397z" />
    <glyph glyph-name="edotaccent" unicode="&#x117;" horiz-adv-x="533" 
d="M332 729v-104h-104v104h104zM503 234h-386c2 -107 57 -180 154 -180c67 0 114 36 137 105h84c-21 -114 -104 -182 -224 -182c-147 0 -238 106 -238 278s94 284 240 284c162 0 233 -115 233 -305zM119 302h295c0 90 -59 160 -145 160c-84 0 -143 -63 -150 -160z" />
    <glyph glyph-name="Eogonek" unicode="&#x118;" horiz-adv-x="642" 
d="M566 -205c-73 0 -132 36 -132 94c0 48 36 89 97 111h-451v729h505v-82h-412v-233h397v-82h-397v-250h430v-82h-2c-73 -41 -94 -64 -94 -106c0 -35 25 -54 72 -54c24 0 45 3 63 10v-45c-24 -5 -57 -10 -76 -10z" />
    <glyph glyph-name="eogonek" unicode="&#x119;" horiz-adv-x="533" 
d="M493 159c-27 -148 -152 -164 -152 -268c0 -32 27 -51 72 -51c25 0 46 3 64 10v-45c-27 -6 -47 -9 -69 -9c-84 0 -139 35 -139 88c0 57 51 88 68 101c-30 -6 -45 -8 -68 -8c-149 0 -239 104 -239 277s94 285 240 285c167 0 233 -116 233 -305h-386
c3 -146 94 -180 154 -180c67 0 114 36 138 105h84zM414 302c0 90 -59 160 -145 160c-84 0 -143 -63 -149 -160h294z" />
    <glyph glyph-name="Ecaron" unicode="&#x11a;" horiz-adv-x="633" 
d="M391 775h-95l-96 125h63l81 -61l79 61h64zM173 332v-250h430v-82h-523v729h505v-82h-412v-233h397v-82h-397z" />
    <glyph glyph-name="ecaron" unicode="&#x11b;" horiz-adv-x="533" 
d="M334 580h-95l-96 150h63l81 -96l79 96h64zM503 234h-386c2 -107 57 -180 154 -180c67 0 114 36 137 105h84c-21 -114 -104 -182 -224 -182c-147 0 -238 106 -238 278s94 284 240 284c162 0 233 -115 233 -305zM119 302h295c0 90 -59 160 -145 160
c-84 0 -143 -63 -150 -160z" />
    <glyph glyph-name="Gcircumflex" unicode="&#x11c;" horiz-adv-x="765" 
d="M346 900h95l96 -125h-63l-81 61l-79 -61h-64zM133 362c0 -117 52 -303 261 -303c133 0 229 94 229 224v20h-222v82h304v-389h-59l-23 97c-71 -79 -150 -116 -249 -116c-197 0 -334 156 -334 380c0 146 70 384 350 384c167 0 279 -85 305 -233h-95
c-20 94 -100 151 -211 151c-154 0 -256 -118 -256 -297z" />
    <glyph glyph-name="gcircumflex" unicode="&#x11d;" horiz-adv-x="550" 
d="M233 719h95l96 -150h-63l-81 96l-79 -96h-64zM246 -23c-119 0 -216 105 -216 276c0 170 90 286 223 286c67 0 118 -29 160 -91l-10 76h87v-438c0 -182 -35 -304 -234 -304c-123 0 -200 59 -209 158h85c14 -85 101 -88 127 -88c118 0 146 72 146 192v27
c-47 -66 -93 -94 -159 -94zM262 462c-89 0 -145 -78 -145 -204c0 -127 55 -204 146 -204c88 0 142 76 142 201c0 131 -53 207 -143 207z" />
    <glyph glyph-name="Gbreve" unicode="&#x11e;" horiz-adv-x="765" 
d="M237 900h59c5 -44 35 -66 92 -66c54 0 87 24 91 66h59c-7 -89 -59 -135 -152 -135c-61 0 -146 24 -149 135zM133 362c0 -117 52 -303 261 -303c133 0 229 94 229 224v20h-222v82h304v-389h-59l-23 97c-71 -79 -150 -116 -249 -116c-197 0 -334 156 -334 380
c0 146 70 384 350 384c167 0 279 -85 305 -233h-95c-20 94 -100 151 -211 151c-154 0 -256 -118 -256 -297z" />
    <glyph glyph-name="gbreve" unicode="&#x11f;" horiz-adv-x="550" 
d="M112 730h59c5 -44 35 -66 92 -66c54 0 87 24 91 66h59c-7 -89 -59 -135 -152 -135c-61 0 -146 24 -149 135zM246 -23c-119 0 -216 105 -216 276c0 170 90 286 223 286c67 0 118 -29 160 -91l-10 76h87v-438c0 -182 -35 -304 -234 -304c-123 0 -200 59 -209 158h85
c14 -85 101 -88 127 -88c118 0 146 72 146 192v27c-47 -66 -93 -94 -159 -94zM262 462c-89 0 -145 -78 -145 -204c0 -127 55 -204 146 -204c88 0 142 76 142 201c0 131 -53 207 -143 207z" />
    <glyph glyph-name="Gdotaccent" unicode="&#x120;" horiz-adv-x="765" 
d="M438 900v-104h-104v104h104zM133 362c0 -117 52 -303 261 -303c133 0 229 94 229 224v20h-222v82h304v-389h-59l-23 97c-71 -79 -150 -116 -249 -116c-197 0 -334 156 -334 380c0 146 70 384 350 384c167 0 279 -85 305 -233h-95c-20 94 -100 151 -211 151
c-154 0 -256 -118 -256 -297z" />
    <glyph glyph-name="gdotaccent" unicode="&#x121;" horiz-adv-x="550" 
d="M307 729v-104h-104v104h104zM246 -23c-119 0 -216 105 -216 276c0 170 90 286 223 286c67 0 118 -29 160 -91l-10 76h87v-438c0 -182 -35 -304 -234 -304c-123 0 -200 59 -209 158h85c14 -85 101 -88 127 -88c118 0 146 72 146 192v27c-47 -66 -93 -94 -159 -94zM262 462
c-89 0 -145 -78 -145 -204c0 -127 55 -204 146 -204c88 0 142 76 142 201c0 131 -53 207 -143 207z" />
    <glyph glyph-name="Gcommaaccent" unicode="&#x122;" horiz-adv-x="765" 
d="M325 -76h100v-103c0 -74 -37 -121 -98 -121h-2v38c36 0 55 28 55 78v8h-55v100zM133 362c0 -117 52 -303 261 -303c133 0 229 94 229 224v20h-222v82h304v-389h-59l-23 97c-71 -79 -150 -116 -249 -116c-197 0 -334 156 -334 380c0 146 70 384 350 384
c167 0 279 -85 305 -233h-95c-20 94 -100 151 -211 151c-154 0 -256 -118 -256 -297z" />
    <glyph glyph-name="gcommaaccent" unicode="&#x123;" horiz-adv-x="550" 
d="M294 583h-88v73c0 57 33 90 88 90v-42c-34 0 -45 -12 -45 -47h45v-74zM246 -23c-119 0 -216 105 -216 276c0 170 90 286 223 286c67 0 118 -29 160 -91l-10 76h87v-438c0 -182 -35 -304 -234 -304c-123 0 -200 59 -209 158h85c14 -85 101 -88 127 -88
c118 0 146 72 146 192v27c-47 -66 -93 -94 -159 -94zM262 462c-89 0 -145 -78 -145 -204c0 -127 55 -204 146 -204c88 0 142 76 142 201c0 131 -53 207 -143 207z" />
    <glyph glyph-name="Hcircumflex" unicode="&#x124;" horiz-adv-x="721" 
d="M316 900h95l96 -125h-63l-81 61l-79 -61h-64zM548 332h-375v-332h-93v729h93v-315h375v315h93v-729h-93v332z" />
    <glyph glyph-name="hcircumflex" unicode="&#x125;" horiz-adv-x="536" 
d="M246 900h95l96 -150h-63l-81 96l-79 -96h-64zM393 363c0 82 -65 103 -108 103c-86 0 -142 -70 -142 -177v-289h-83v729h83v-277c49 64 94 87 168 87c102 0 165 -55 165 -143v-396h-83v363z" />
    <glyph glyph-name="Hbar" unicode="&#x126;" horiz-adv-x="722" 
d="M172 504v-90h375v90h-375zM79 576v153h93v-153h375v153h93v-153h52v-70h-52v-506h-93v332h-374v-332h-94v506h-49v70h49z" />
    <glyph glyph-name="hbar" unicode="&#x127;" horiz-adv-x="554" 
d="M411 363c0 82 -65 103 -108 103c-86 0 -142 -70 -142 -177v-289h-83v600h-63v53h63v76h83v-76h150v-53h-150v-148c49 64 94 87 168 87c102 0 165 -55 165 -143v-396h-83v363z" />
    <glyph glyph-name="Itilde" unicode="&#x128;" horiz-adv-x="300" 
d="M79 873c49 0 92 -37 133 -37c18 0 29 12 37 37h58c-10 -69 -40 -104 -89 -104c-37 0 -105 38 -134 38c-15 0 -27 -14 -33 -37h-58c11 66 42 103 86 103zM197 729v-729h-94v729h94z" />
    <glyph glyph-name="itilde" unicode="&#x129;" horiz-adv-x="262" 
d="M60 698c49 0 92 -37 133 -37c18 0 29 12 37 37h58c-10 -69 -40 -104 -89 -104c-37 0 -105 38 -134 38c-15 0 -27 -14 -33 -37h-58c11 66 42 103 86 103zM173 524v-524h-83v524h83z" />
    <glyph glyph-name="Imacron" unicode="&#x12a;" horiz-adv-x="278" 
d="M276 870v-70h-274v70h274zM194 729v-729h-94v729h94z" />
    <glyph glyph-name="imacron" unicode="&#x12b;" horiz-adv-x="262" 
d="M173 524v-524h-83v524h83zM268 681v-70h-274v70h274z" />
    <glyph glyph-name="Ibreve" unicode="&#x12c;" horiz-adv-x="300" 
d="M-3 900h59c5 -44 35 -66 92 -66c54 0 87 24 91 66h59c-7 -89 -59 -135 -152 -135c-61 0 -146 24 -149 135zM197 729v-729h-94v729h94z" />
    <glyph glyph-name="ibreve" unicode="&#x12d;" horiz-adv-x="262" 
d="M-15 729h59c5 -44 35 -66 92 -66c54 0 87 24 91 66h59c-7 -89 -59 -135 -152 -135c-61 0 -146 24 -149 135zM173 524v-524h-83v524h83z" />
    <glyph glyph-name="Iogonek" unicode="&#x12e;" horiz-adv-x="278" 
d="M158 -205c-73 0 -132 36 -132 94c0 48 36 89 97 111h-23v729h94v-729c-73 -41 -95 -64 -95 -106c0 -35 25 -54 72 -54c24 0 45 3 63 10v-45c-24 -5 -57 -10 -76 -10z" />
    <glyph glyph-name="iogonek" unicode="&#x12f;" horiz-adv-x="262" 
d="M134 -205c-73 0 -132 36 -132 94c0 45 31 83 85 106v523h83v-524h-12c-64 -37 -83 -60 -83 -100c0 -35 25 -54 72 -54c24 0 45 3 63 10v-45c-24 -5 -57 -10 -76 -10zM170 729v-105h-84v105h84z" />
    <glyph glyph-name="Idotaccent" unicode="&#x130;" horiz-adv-x="278" 
d="M199 883v-104h-104v104h104zM194 729v-729h-94v729h94z" />
    <glyph glyph-name="dotlessi" unicode="&#x131;" horiz-adv-x="222" 
d="M153 524v-524h-83v524h83z" />
    <glyph glyph-name="Jcircumflex" unicode="&#x134;" horiz-adv-x="528" 
d="M337 900h95l96 -125h-63l-81 61l-79 -61h-64zM239 55c91 0 112 69 112 161v513h93v-547c0 -126 -79 -205 -206 -205c-125 0 -203 75 -203 193v64h95v-47c0 -85 39 -132 109 -132z" />
    <glyph glyph-name="jcircumflex" unicode="&#x135;" horiz-adv-x="262" 
d="M90 524h83v-633c0 -71 -49 -109 -143 -109c-13 0 -18 1 -28 3v71c17 -1 17 -1 20 -1c51 0 68 17 68 69v600zM83 719h95l96 -150h-63l-81 96l-79 -96h-64z" />
    <glyph glyph-name="Kcommaaccent" unicode="&#x136;" horiz-adv-x="674" 
d="M295 -76h100v-103c0 -74 -37 -121 -98 -121h-2v38c36 0 55 28 55 78v8h-55v100zM173 255v-255h-93v729h93v-369l363 369h120l-297 -297l300 -432h-110l-257 374z" />
    <glyph glyph-name="kcommaaccent" unicode="&#x137;" horiz-adv-x="514" 
d="M227 -76h100v-103c0 -74 -37 -121 -98 -121h-2v38c36 0 55 28 55 78v8h-55v100zM143 729v-427l222 222h107l-182 -181l214 -343h-103l-177 284l-81 -80v-204h-83v729h83z" />
    <glyph glyph-name="kgreenlandic" unicode="&#x138;" horiz-adv-x="514" 
d="M143 524v-222l222 222h107l-272 -260l304 -264h-103l-258 216v-216h-83v524h83z" />
    <glyph glyph-name="Lacute" unicode="&#x139;" horiz-adv-x="563" 
d="M225 900h123l-164 -125h-65zM173 729v-647h360v-82h-453v729h93z" />
    <glyph glyph-name="lacute" unicode="&#x13a;" horiz-adv-x="242" 
d="M119 900h123l-164 -125h-65zM144 729v-729h-84v729h84z" />
    <glyph glyph-name="Lcommaaccent" unicode="&#x13b;" horiz-adv-x="563" 
d="M255 -76h100v-103c0 -74 -37 -121 -98 -121h-2v38c36 0 55 28 55 78v8h-55v100zM173 729v-647h360v-82h-453v729h93z" />
    <glyph glyph-name="lcommaaccent" unicode="&#x13c;" horiz-adv-x="214" 
d="M66 -76h100v-103c0 -74 -37 -121 -98 -121h-2v38c36 0 55 28 55 78v8h-55v100zM144 729v-729h-84v729h84z" />
    <glyph glyph-name="Lcaron" unicode="&#x13d;" horiz-adv-x="563" 
d="M347 740h103l-119 -148h-50zM173 729v-647h360v-82h-453v729h93z" />
    <glyph glyph-name="lcaron" unicode="&#x13e;" horiz-adv-x="385" 
d="M257 740h103l-119 -148h-50zM144 729v-729h-84v729h84z" />
    <glyph glyph-name="Lslash" unicode="&#x141;" horiz-adv-x="612" 
d="M203 406l171 121v-76l-171 -122v-247h379v-82h-472v280l-80 -57v77l80 56v373h93v-323z" />
    <glyph glyph-name="lslash" unicode="&#x142;" horiz-adv-x="252" 
d="M166 421l66 51v-64l-66 -51v-357h-83v313l-63 -50v64l63 50v352h83v-308z" />
    <glyph glyph-name="Nacute" unicode="&#x143;" horiz-adv-x="730" 
d="M395 900h123l-164 -125h-65zM650 729v-729h-105l-377 591v-591h-88v729h101l381 -596v596h88z" />
    <glyph glyph-name="nacute" unicode="&#x144;" horiz-adv-x="537" 
d="M313 740h113l-149 -148h-60zM60 524h77v-88c46 73 96 103 174 103c101 0 166 -56 166 -143v-396h-83v363c0 63 -42 103 -108 103c-86 0 -142 -70 -142 -177v-289h-84v524z" />
    <glyph glyph-name="Ncommaaccent" unicode="&#x145;" horiz-adv-x="730" 
d="M305 -76h100v-103c0 -74 -37 -121 -98 -121h-2v38c36 0 55 28 55 78v8h-55v100zM650 729v-729h-105l-377 591v-591h-88v729h101l381 -596v596h88z" />
    <glyph glyph-name="ncommaaccent" unicode="&#x146;" horiz-adv-x="537" 
d="M227 -76h100v-103c0 -74 -37 -121 -98 -121h-2v38c36 0 55 28 55 78v8h-55v100zM60 524h77v-88c46 73 96 103 174 103c101 0 166 -56 166 -143v-396h-83v363c0 63 -42 103 -108 103c-86 0 -142 -70 -142 -177v-289h-84v524z" />
    <glyph glyph-name="Ncaron" unicode="&#x147;" horiz-adv-x="730" 
d="M408 775h-95l-96 125h63l81 -61l79 61h64zM650 729v-729h-105l-377 591v-591h-88v729h101l381 -596v596h88z" />
    <glyph glyph-name="ncaron" unicode="&#x148;" horiz-adv-x="537" 
d="M326 581h-95l-96 150h63l81 -96l79 96h64zM60 524h77v-88c46 73 96 103 174 103c101 0 166 -56 166 -143v-396h-83v363c0 63 -42 103 -108 103c-86 0 -142 -70 -142 -177v-289h-84v524z" />
    <glyph glyph-name="napostrophe" unicode="&#x149;" horiz-adv-x="647" 
d="M39 728h105v-120c0 -86 -35 -131 -105 -131v38c47 2 55 22 55 91v18h-55v104zM170 524h77v-88c46 73 96 103 174 103c101 0 166 -56 166 -143v-396h-83v363c0 63 -42 103 -108 103c-86 0 -142 -70 -142 -177v-289h-84v524z" />
    <glyph glyph-name="Eng" unicode="&#x14a;" horiz-adv-x="677" 
d="M382 -16c-62 0 -94 14 -104 16v71c17 -1 50 -14 96 -14c78 0 171 129 171 334c0 221 -129 280 -195 280c-86 0 -177 -70 -177 -177v-494h-93v729h93v-77c46 73 124 92 202 92c101 0 262 -90 262 -320c0 -324 -135 -440 -255 -440z" />
    <glyph glyph-name="eng" unicode="&#x14b;" horiz-adv-x="537" 
d="M477 396v-505c0 -71 -49 -109 -143 -109c-13 0 -18 1 -28 3v71c17 -1 17 -1 20 -1c51 0 68 17 68 69v439c0 63 -42 103 -108 103c-86 0 -142 -70 -142 -177v-289h-84v524h77v-88c46 73 96 103 174 103c101 0 166 -56 166 -143z" />
    <glyph glyph-name="Omacron" unicode="&#x14c;" horiz-adv-x="784" 
d="M526 870v-70h-274v70h274zM744 353c0 -210 -134 -376 -352 -376c-210 0 -352 154 -352 382s142 382 351 382c214 0 353 -153 353 -388zM391 659c-154 0 -258 -120 -258 -300s104 -300 259 -300c154 0 259 120 259 296c0 184 -102 304 -260 304z" />
    <glyph glyph-name="omacron" unicode="&#x14d;" horiz-adv-x="534" 
d="M408 681v-70h-274v70h274zM266 539c151 0 238 -104 238 -285c0 -172 -90 -277 -237 -277c-149 0 -237 105 -237 281s89 281 236 281zM267 462c-93 0 -150 -78 -150 -204c0 -127 57 -204 150 -204c92 0 150 78 150 201c0 130 -56 207 -150 207z" />
    <glyph glyph-name="Obreve" unicode="&#x14e;" horiz-adv-x="784" 
d="M239 900h59c5 -44 35 -66 92 -66c54 0 87 24 91 66h59c-7 -89 -59 -135 -152 -135c-61 0 -146 24 -149 135zM744 353c0 -210 -134 -376 -352 -376c-210 0 -352 154 -352 382s142 382 351 382c214 0 353 -153 353 -388zM391 659c-154 0 -258 -120 -258 -300
s104 -300 259 -300c154 0 259 120 259 296c0 184 -102 304 -260 304z" />
    <glyph glyph-name="obreve" unicode="&#x14f;" horiz-adv-x="534" 
d="M123 729h59c5 -44 35 -66 92 -66c54 0 87 24 91 66h59c-7 -89 -59 -135 -152 -135c-61 0 -146 24 -149 135zM266 539c151 0 238 -104 238 -285c0 -172 -90 -277 -237 -277c-149 0 -237 105 -237 281s89 281 236 281zM267 462c-93 0 -150 -78 -150 -204
c0 -127 57 -204 150 -204c92 0 150 78 150 201c0 130 -56 207 -150 207z" />
    <glyph glyph-name="Ohungarumlaut" unicode="&#x150;" horiz-adv-x="784" 
d="M316 900h123l-104 -125h-65zM480 900h123l-127 -125h-65zM744 353c0 -210 -134 -376 -352 -376c-210 0 -352 154 -352 382s142 382 351 382c214 0 353 -153 353 -388zM391 659c-154 0 -258 -120 -258 -300s104 -300 259 -300c154 0 259 120 259 296
c0 184 -102 304 -260 304z" />
    <glyph glyph-name="ohungarumlaut" unicode="&#x151;" horiz-adv-x="534" 
d="M207 740h113l-104 -150h-60zM376 740h113l-129 -150h-60zM266 539c151 0 238 -104 238 -285c0 -172 -90 -277 -237 -277c-149 0 -237 105 -237 281s89 281 236 281zM267 462c-93 0 -150 -78 -150 -204c0 -127 57 -204 150 -204c92 0 150 78 150 201
c0 130 -56 207 -150 207z" />
    <glyph glyph-name="OE" unicode="&#x152;" horiz-adv-x="986" 
d="M40 356c0 308 178 385 299 385c82 0 141 -28 183 -88v76h429v-82h-336v-238h328v-82h-328v-245h341v-82h-434v74c-46 -65 -103 -94 -184 -94c-123 0 -298 75 -298 376zM133 360c0 -253 117 -298 205 -298c84 0 144 39 184 120v357c-40 81 -99 120 -183 120
c-93 0 -206 -49 -206 -299z" />
    <glyph glyph-name="oe" unicode="&#x153;" horiz-adv-x="919" 
d="M503 234c3 -146 92 -180 154 -180c67 0 114 36 137 105h84c-21 -114 -104 -182 -223 -182c-85 0 -154 37 -194 103c-42 -69 -106 -103 -194 -103c-151 0 -237 102 -237 282c0 179 86 280 237 280c89 0 156 -36 196 -106c41 67 112 106 193 106c98 0 178 -52 212 -138
c15 -39 21 -87 21 -167h-386zM267 462c-93 0 -150 -77 -150 -203c0 -128 57 -205 150 -205c92 0 150 77 150 202c0 129 -56 206 -150 206zM505 302h294c0 95 -59 160 -144 160c-84 0 -143 -63 -150 -160z" />
    <glyph glyph-name="Racute" unicode="&#x154;" horiz-adv-x="709" 
d="M375 900h123l-164 -125h-65zM523 360c91 -39 100 -105 100 -171c0 -17 -1 -35 -1 -51c0 -47 5 -89 44 -115v-23h-113c-13 30 -20 74 -20 119v65c0 90 -37 130 -120 130h-240v-314h-93v729h336c143 0 222 -69 222 -195c0 -83 -33 -134 -115 -174zM541 521
c0 104 -65 126 -143 126h-225v-251h225c99 0 143 39 143 125z" />
    <glyph glyph-name="racute" unicode="&#x155;" horiz-adv-x="332" 
d="M218 740h113l-149 -148h-60zM312 451c-101 -2 -168 -32 -168 -179v-272h-84v524h77v-95c48 78 89 110 143 110c11 0 18 -1 32 -3v-85z" />
    <glyph glyph-name="Rcommaaccent" unicode="&#x156;" horiz-adv-x="709" 
d="M315 -76h100v-103c0 -74 -37 -121 -98 -121h-2v38c36 0 55 28 55 78v8h-55v100zM523 360c91 -39 100 -105 100 -171c0 -17 -1 -35 -1 -51c0 -47 5 -89 44 -115v-23h-113c-13 30 -20 74 -20 119v65c0 90 -37 130 -120 130h-240v-314h-93v729h336c143 0 222 -69 222 -195
c0 -83 -33 -134 -115 -174zM541 521c0 104 -65 126 -143 126h-225v-251h225c99 0 143 39 143 125z" />
    <glyph glyph-name="rcommaaccent" unicode="&#x157;" horiz-adv-x="332" 
d="M70 -76h100v-103c0 -74 -37 -121 -98 -121h-2v38c36 0 55 28 55 78v8h-55v100zM312 451c-101 -2 -168 -32 -168 -179v-272h-84v524h77v-95c48 78 89 110 143 110c11 0 18 -1 32 -3v-85z" />
    <glyph glyph-name="Rcaron" unicode="&#x158;" horiz-adv-x="709" 
d="M404 775h-95l-96 125h63l81 -61l79 61h64zM523 360c91 -39 100 -105 100 -171c0 -17 -1 -35 -1 -51c0 -47 5 -89 44 -115v-23h-113c-13 30 -20 74 -20 119v65c0 90 -37 130 -120 130h-240v-314h-93v729h336c143 0 222 -69 222 -195c0 -83 -33 -134 -115 -174zM541 521
c0 104 -65 126 -143 126h-225v-251h225c99 0 143 39 143 125z" />
    <glyph glyph-name="rcaron" unicode="&#x159;" horiz-adv-x="332" 
d="M236 591h-95l-96 150h63l81 -96l79 96h64zM312 451c-101 -2 -168 -32 -168 -179v-272h-84v524h77v-95c48 78 89 110 143 110c11 0 18 -1 32 -3v-85z" />
    <glyph glyph-name="Sacute" unicode="&#x15a;" horiz-adv-x="667" 
d="M365 900h123l-164 -125h-65zM342 59c158 0 186 80 186 132c0 57 -42 94 -134 118l-181 48c-96 25 -143 81 -143 170c0 132 99 214 259 214c168 0 266 -83 267 -226h-88c-1 95 -66 148 -182 148c-98 0 -163 -49 -163 -123c0 -56 32 -84 120 -108l183 -49
c99 -27 155 -93 155 -183c0 -89 -57 -223 -285 -223c-126 0 -285 48 -288 255h88v-5c0 -74 41 -168 206 -168z" />
    <glyph glyph-name="sacute" unicode="&#x15b;" horiz-adv-x="493" 
d="M274 740h113l-149 -148h-60zM122 156c7 -51 26 -102 128 -102c73 0 122 33 122 82c0 38 -23 59 -81 73l-78 19c-124 30 -166 69 -166 151c0 97 79 160 201 160c121 0 189 -58 190 -161h-88c-2 55 -38 84 -105 84c-68 0 -111 -31 -111 -79c0 -37 29 -59 97 -75l80 -19
c104 -25 148 -68 148 -146c0 -101 -84 -166 -216 -166c-137 0 -205 58 -209 179h88z" />
    <glyph glyph-name="Scircumflex" unicode="&#x15c;" horiz-adv-x="667" 
d="M286 900h95l96 -125h-63l-81 61l-79 -61h-64zM342 59c158 0 186 80 186 132c0 57 -42 94 -134 118l-181 48c-96 25 -143 81 -143 170c0 132 99 214 259 214c168 0 266 -83 267 -226h-88c-1 95 -66 148 -182 148c-98 0 -163 -49 -163 -123c0 -56 32 -84 120 -108l183 -49
c99 -27 155 -93 155 -183c0 -89 -57 -223 -285 -223c-126 0 -285 48 -288 255h88v-5c0 -74 41 -168 206 -168z" />
    <glyph glyph-name="scircumflex" unicode="&#x15d;" horiz-adv-x="493" 
d="M202 720h95l96 -150h-63l-81 96l-79 -96h-64zM122 156c7 -51 26 -102 128 -102c73 0 122 33 122 82c0 38 -23 59 -81 73l-78 19c-124 30 -166 69 -166 151c0 97 79 160 201 160c121 0 189 -58 190 -161h-88c-2 55 -38 84 -105 84c-68 0 -111 -31 -111 -79
c0 -37 29 -59 97 -75l80 -19c104 -25 148 -68 148 -146c0 -101 -84 -166 -216 -166c-137 0 -205 58 -209 179h88z" />
    <glyph glyph-name="Scedilla" unicode="&#x15e;" horiz-adv-x="667" 
d="M342 59c158 0 186 80 186 132c0 57 -42 94 -134 118l-181 48c-96 25 -143 81 -143 170c0 132 99 214 259 214c168 0 266 -83 267 -226h-88c-1 95 -66 148 -182 148c-98 0 -163 -49 -163 -123c0 -56 32 -84 120 -108l183 -49c99 -27 155 -93 155 -183
c0 -95 -50 -214 -286 -224l-15 -32c14 2 20 2 28 2c50 0 79 -24 79 -67c0 -57 -47 -93 -123 -93c-38 0 -63 7 -125 34l21 40c32 -14 59 -33 98 -33c31 0 54 19 54 45c0 23 -17 37 -46 37c-11 0 -19 -2 -31 -7l-11 6l31 69c-6 2 -10 3 -11 3l-44 7c-119 25 -192 117 -192 238
v7h88v-5c0 -74 41 -168 206 -168z" />
    <glyph glyph-name="scedilla" unicode="&#x15f;" horiz-adv-x="493" 
d="M122 156c7 -51 26 -102 128 -102c73 0 122 33 122 82c0 38 -23 59 -81 73l-78 19c-124 30 -166 69 -166 151c0 97 79 160 201 160c121 0 189 -58 190 -161h-88c-2 55 -38 84 -105 84c-68 0 -111 -31 -111 -79c0 -37 29 -59 97 -75l80 -19c104 -25 148 -68 148 -146
c0 -62 -37 -118 -98 -145c-27 -12 -57 -18 -117 -22l-14 -32c14 2 20 2 28 2c50 0 79 -24 79 -67c0 -57 -47 -93 -123 -93c-38 0 -63 7 -125 34l21 40c32 -14 59 -33 98 -33c31 0 54 19 54 45c0 23 -17 37 -46 37c-12 0 -19 -2 -31 -7l-11 6l31 71c-112 11 -169 69 -171 177
h88z" />
    <glyph glyph-name="Scaron" unicode="&#x160;" horiz-adv-x="667" 
d="M379 775h-95l-96 125h63l81 -61l79 61h64zM342 59c158 0 186 80 186 132c0 57 -42 94 -134 118l-181 48c-96 25 -143 81 -143 170c0 132 99 214 259 214c168 0 266 -83 267 -226h-88c-1 95 -66 148 -182 148c-98 0 -163 -49 -163 -123c0 -56 32 -84 120 -108l183 -49
c99 -27 155 -93 155 -183c0 -89 -57 -223 -285 -223c-126 0 -285 48 -288 255h88v-5c0 -74 41 -168 206 -168z" />
    <glyph glyph-name="scaron" unicode="&#x161;" horiz-adv-x="493" 
d="M294 583h-95l-96 150h63l81 -96l79 96h64zM122 156c7 -51 26 -102 128 -102c73 0 122 33 122 82c0 38 -23 59 -81 73l-78 19c-124 30 -166 69 -166 151c0 97 79 160 201 160c121 0 189 -58 190 -161h-88c-2 55 -38 84 -105 84c-68 0 -111 -31 -111 -79
c0 -37 29 -59 97 -75l80 -19c104 -25 148 -68 148 -146c0 -101 -84 -166 -216 -166c-137 0 -205 58 -209 179h88z" />
    <glyph glyph-name="Tcedilla" unicode="&#x162;" horiz-adv-x="632" 
d="M197 -139c39 -17 61 -33 98 -33c31 0 54 19 54 45c0 23 -17 37 -46 37c-12 0 -19 -2 -31 -8l-12 7l42 91h-32v647h-240v82h572v-82h-239v-647h-23l-23 -55c13 2 20 2 28 2c50 0 79 -24 79 -67c0 -57 -47 -93 -123 -93c-39 0 -63 7 -125 34z" />
    <glyph glyph-name="tcedilla" unicode="&#x163;" horiz-adv-x="284" 
d="M72 -153c39 -17 61 -33 98 -33c31 0 54 19 54 45c0 23 -17 37 -46 37c-12 0 -19 -2 -31 -8l-12 7l38 83c-53 5 -82 34 -82 82v396h-71v68h71v144h83v-144h86v-68h-86v-359c0 -37 10 -47 46 -47c16 0 29 1 40 4v-70c-19 -3 -35 -5 -49 -6l-19 -47c13 2 20 2 28 2
c50 0 79 -24 79 -67c0 -57 -47 -93 -123 -93c-39 0 -63 7 -125 34z" />
    <glyph glyph-name="Tcaron" unicode="&#x164;" horiz-adv-x="632" 
d="M355 775h-95l-96 125h63l81 -61l79 61h64zM363 647v-647h-93v647h-240v82h572v-82h-239z" />
    <glyph glyph-name="tcaron" unicode="&#x165;" horiz-adv-x="440" 
d="M307 740h103l-119 -148h-50zM260 524v-68h-86v-359c0 -37 10 -47 46 -47c16 0 29 1 40 4v-70c-28 -5 -48 -7 -68 -7c-65 0 -101 30 -101 83v396h-71v68h71v144h83v-144h86z" />
    <glyph glyph-name="Tbar" unicode="&#x166;" horiz-adv-x="632" 
d="M129 357v72h141v218h-240v82h572v-82h-239v-218h141v-72h-141v-357h-93v357h-141z" />
    <glyph glyph-name="tbar" unicode="&#x167;" horiz-adv-x="285" 
d="M265 524v-68h-86v-144h79v-72h-79v-143c0 -37 10 -47 46 -47c16 0 29 1 40 4v-70c-28 -5 -48 -7 -68 -7c-65 0 -101 30 -101 83v180h-76v72h76v144h-71v68h71v144h83v-144h86z" />
    <glyph glyph-name="Utilde" unicode="&#x168;" horiz-adv-x="720" 
d="M294 873c49 0 92 -37 133 -37c18 0 29 12 37 37h58c-10 -69 -40 -104 -89 -104c-37 0 -105 38 -134 38c-15 0 -27 -14 -33 -37h-58c11 66 42 103 86 103zM547 729h93v-512c0 -146 -110 -240 -281 -240c-173 0 -279 92 -279 240v512h93v-512c0 -110 79 -158 186 -158
c117 0 188 60 188 158v512z" />
    <glyph glyph-name="utilde" unicode="&#x169;" horiz-adv-x="537" 
d="M203 703c49 0 92 -37 133 -37c18 0 29 12 37 37h58c-10 -69 -40 -104 -89 -104c-37 0 -105 38 -134 38c-15 0 -27 -14 -33 -37h-58c11 66 42 103 86 103zM477 0h-75v73c-49 -69 -98 -96 -175 -96c-102 0 -167 56 -167 143v404h83v-371c0 -63 42 -103 108 -103
c87 0 143 70 143 177v297h83v-524z" />
    <glyph glyph-name="Umacron" unicode="&#x16a;" horiz-adv-x="720" 
d="M502 870v-70h-274v70h274zM547 729h93v-512c0 -146 -110 -240 -281 -240c-173 0 -279 92 -279 240v512h93v-512c0 -110 79 -158 186 -158c117 0 188 60 188 158v512z" />
    <glyph glyph-name="umacron" unicode="&#x16b;" horiz-adv-x="537" 
d="M410 681v-70h-274v70h274zM477 0h-75v73c-49 -69 -98 -96 -175 -96c-102 0 -167 56 -167 143v404h83v-371c0 -63 42 -103 108 -103c87 0 143 70 143 177v297h83v-524z" />
    <glyph glyph-name="Ubreve" unicode="&#x16c;" horiz-adv-x="720" 
d="M215 900h59c5 -44 35 -66 92 -66c54 0 87 24 91 66h59c-7 -89 -59 -135 -152 -135c-61 0 -146 24 -149 135zM547 729h93v-512c0 -146 -110 -240 -281 -240c-173 0 -279 92 -279 240v512h93v-512c0 -110 79 -158 186 -158c117 0 188 60 188 158v512z" />
    <glyph glyph-name="ubreve" unicode="&#x16d;" horiz-adv-x="537" 
d="M123 727h59c5 -44 35 -66 92 -66c54 0 87 24 91 66h59c-7 -89 -59 -135 -152 -135c-61 0 -146 24 -149 135zM477 0h-75v73c-49 -69 -98 -96 -175 -96c-102 0 -167 56 -167 143v404h83v-371c0 -63 42 -103 108 -103c87 0 143 70 143 177v297h83v-524z" />
    <glyph glyph-name="Uring" unicode="&#x16e;" horiz-adv-x="720" 
d="M365 964c59 0 106 -46 106 -105c0 -58 -48 -105 -106 -105s-106 48 -106 106c0 56 48 104 106 104zM365 903c-24 0 -44 -20 -44 -43c0 -24 20 -44 44 -44s44 20 44 43c0 25 -19 44 -44 44zM547 729h93v-512c0 -146 -110 -240 -281 -240c-173 0 -279 92 -279 240v512h93
v-512c0 -110 79 -158 186 -158c117 0 188 60 188 158v512z" />
    <glyph glyph-name="uring" unicode="&#x16f;" horiz-adv-x="537" 
d="M273 772c59 0 106 -47 106 -106c0 -58 -48 -104 -106 -104s-106 48 -106 105s48 105 106 105zM273 710c-24 0 -44 -20 -44 -43c0 -24 20 -44 44 -44s44 20 44 43c0 25 -19 44 -44 44zM477 0h-75v73c-49 -69 -98 -96 -175 -96c-102 0 -167 56 -167 143v404h83v-371
c0 -63 42 -103 108 -103c87 0 143 70 143 177v297h83v-524z" />
    <glyph glyph-name="Uhungarumlaut" unicode="&#x170;" horiz-adv-x="720" 
d="M276 900h123l-104 -125h-65zM440 900h123l-127 -125h-65zM547 729h93v-512c0 -146 -110 -240 -281 -240c-173 0 -279 92 -279 240v512h93v-512c0 -110 79 -158 186 -158c117 0 188 60 188 158v512z" />
    <glyph glyph-name="uhungarumlaut" unicode="&#x171;" horiz-adv-x="537" 
d="M183 731h113l-104 -150h-60zM352 731h113l-129 -150h-60zM477 0h-75v73c-49 -69 -98 -96 -175 -96c-102 0 -167 56 -167 143v404h83v-371c0 -63 42 -103 108 -103c87 0 143 70 143 177v297h83v-524z" />
    <glyph glyph-name="Uogonek" unicode="&#x172;" horiz-adv-x="720" 
d="M522 -205c-74 0 -133 37 -133 93c0 41 21 70 73 102c-44 -10 -65 -13 -101 -13c-174 0 -281 91 -281 240v512h93v-512c0 -110 79 -158 186 -158c117 0 188 60 188 158v512h93v-512c0 -188 -178 -224 -178 -323c0 -35 25 -54 72 -54c24 0 45 3 63 10v-45
c-24 -5 -57 -10 -75 -10z" />
    <glyph glyph-name="uogonek" unicode="&#x173;" horiz-adv-x="537" 
d="M477 524v-524c-46 -26 -77 -69 -77 -108c0 -32 26 -52 67 -52c16 0 28 2 49 10v-45c-19 -3 -38 -9 -52 -9c-83 0 -136 36 -136 93c0 43 30 77 96 111h-22v73c-49 -69 -98 -96 -175 -96c-102 0 -167 56 -167 143v404h83v-371c0 -63 42 -103 108 -103c87 0 143 70 143 177
v297h83z" />
    <glyph glyph-name="Wcircumflex" unicode="&#x174;" horiz-adv-x="937" 
d="M426 900h95l96 -125h-63l-81 61l-79 -61h-64zM737 0h-102l-168 599l-163 -599h-102l-187 729h104l137 -592l162 592h100l166 -592l134 592h104z" />
    <glyph glyph-name="wcircumflex" unicode="&#x175;" horiz-adv-x="722" 
d="M310 721h95l96 -150h-63l-81 96l-79 -96h-64zM558 0h-95l-106 411l-101 -411h-94l-152 524h92l107 -408l100 408h102l103 -408l104 408h94z" />
    <glyph glyph-name="Ycircumflex" unicode="&#x176;" horiz-adv-x="678" 
d="M288 900h95l96 -125h-63l-81 61l-79 -61h-64zM389 286v-286h-93v286l-281 443h115l214 -355l208 355h111z" />
    <glyph glyph-name="ycircumflex" unicode="&#x177;" horiz-adv-x="478" 
d="M202 719h95l96 -150h-63l-81 96l-79 -96h-64zM378 524h90l-233 -634c-29 -77 -78 -108 -135 -108c-22 0 -39 4 -56 13v75c18 -4 32 -6 44 -6c35 0 53 14 67 51l32 83l-177 526h89l134 -408z" />
    <glyph glyph-name="Ydieresis" unicode="&#x178;" horiz-adv-x="678" 
d="M482 881v-104h-104v104h104zM303 881v-104h-104v104h104zM389 286v-286h-93v286l-281 443h115l214 -355l208 355h111z" />
    <glyph glyph-name="Zacute" unicode="&#x179;" horiz-adv-x="615" 
d="M355 900h123l-164 -125h-65zM583 729v-84l-436 -563h438v-82h-555v82l438 565h-410v82h525z" />
    <glyph glyph-name="zacute" unicode="&#x17a;" horiz-adv-x="486" 
d="M283 740h113l-149 -148h-60zM442 524v-74l-311 -377h325v-73h-426v75l313 376h-292v73h391z" />
    <glyph glyph-name="Zdotaccent" unicode="&#x17b;" horiz-adv-x="615" 
d="M371 881v-104h-104v104h104zM583 729v-84l-436 -563h438v-82h-555v82l438 565h-410v82h525z" />
    <glyph glyph-name="zdotaccent" unicode="&#x17c;" horiz-adv-x="486" 
d="M299 729v-104h-104v104h104zM442 524v-74l-311 -377h325v-73h-426v75l313 376h-292v73h391z" />
    <glyph glyph-name="Zcaron" unicode="&#x17d;" horiz-adv-x="615" 
d="M367 775h-95l-96 125h63l81 -61l79 61h64zM583 729v-84l-436 -563h438v-82h-555v82l438 565h-410v82h525z" />
    <glyph glyph-name="zcaron" unicode="&#x17e;" horiz-adv-x="486" 
d="M298 583h-95l-96 150h63l81 -96l79 96h64zM442 524v-74l-311 -377h325v-73h-426v75l313 376h-292v73h391z" />
    <glyph glyph-name="longs" unicode="&#x17f;" horiz-adv-x="280" 
d="M173 0h-83v456h-70v68h70v89c0 75 46 119 123 119c17 0 28 -1 47 -5v-69c-19 1 -22 1 -29 1c-38 0 -58 -18 -58 -53v-606z" />
    <glyph glyph-name="uni0180" unicode="&#x180;" horiz-adv-x="581" 
d="M83 653v76h83v-76h150v-53h-150v-139c44 54 93 78 161 78c135 0 224 -109 224 -275c0 -173 -90 -287 -226 -287c-67 0 -120 26 -168 82v-59h-74v600h-63v53h63zM312 457c-89 0 -146 -78 -146 -201c0 -119 58 -197 146 -197c91 0 152 80 152 199s-61 199 -152 199z" />
    <glyph glyph-name="uni0181" unicode="&#x181;" horiz-adv-x="842" 
d="M578 82c105 0 131 74 131 125c0 74 -45 126 -131 126h-227v-251h227zM677 531c0 94 -68 116 -146 116h-180v-232h180c88 0 146 29 146 116zM163 448c-94 0 -123 67 -123 154c0 52 26 127 132 127h382c173 0 216 -111 216 -185s-35 -128 -101 -159
c93 -36 133 -89 133 -177c0 -125 -86 -208 -215 -208h-329v642h-82c-40 0 -49 -28 -49 -58c0 -29 16 -53 54 -53c7 0 10 1 29 1v-79c-19 -4 -30 -5 -47 -5z" />
    <glyph glyph-name="uni0182" unicode="&#x182;" horiz-adv-x="664" 
d="M624 218c0 -86 -43 -218 -215 -218h-329v729h489v-82h-396v-212h180c193 0 271 -84 271 -215v-2zM531 217c0 53 -20 136 -131 136h-227v-271h227c111 0 131 83 131 135z" />
    <glyph glyph-name="uni0183" unicode="&#x183;" horiz-adv-x="559" 
d="M289 461c-88 0 -146 -80 -146 -203s58 -203 146 -203c91 0 153 81 153 200c0 125 -60 206 -153 206zM60 0v729h391v-73h-308v-203c39 59 90 86 162 86c138 0 224 -105 224 -275c0 -174 -90 -287 -228 -287c-73 0 -126 29 -166 90v-67h-75z" />
    <glyph glyph-name="uni0184" unicode="&#x184;" horiz-adv-x="713" 
d="M222 82h212c86 0 146 62 146 143c0 85 -59 144 -146 144h-212v-287zM129 729h93v-278h165c211 0 286 -96 286 -222v-3c0 -133 -98 -226 -230 -226h-314v451l-128 139z" />
    <glyph glyph-name="uni0185" unicode="&#x185;" horiz-adv-x="593" 
d="M323 461c-88 0 -146 -80 -146 -203s58 -203 146 -203c91 0 153 81 153 200c0 125 -60 206 -153 206zM94 729h83v-276c39 59 90 86 162 86c138 0 224 -105 224 -275c0 -174 -90 -287 -228 -287c-73 0 -126 29 -166 90v-67h-75v451l-93 139z" />
    <glyph glyph-name="uni0186" unicode="&#x186;" horiz-adv-x="709" 
d="M669 362c0 -152 -67 -385 -333 -385c-160 0 -252 78 -281 238h95c21 -102 79 -156 197 -156c141 0 229 115 229 302c0 182 -92 298 -237 298c-122 0 -181 -69 -203 -207h-96c22 193 122 289 300 289c263 0 329 -230 329 -379z" />
    <glyph glyph-name="uni0187" unicode="&#x187;" horiz-adv-x="771" 
d="M40 356c0 152 67 385 333 385c92 0 162 -26 210 -79c20 38 59 59 111 59c17 0 28 -1 47 -5v-79c-19 1 -22 1 -29 1c-38 0 -58 -13 -58 -53v-82h-95c-21 102 -79 156 -197 156c-141 0 -229 -115 -229 -302c0 -182 92 -298 237 -298c122 0 181 69 203 207h96
c-22 -193 -122 -289 -300 -289c-263 0 -329 230 -329 379z" />
    <glyph glyph-name="uni0188" unicode="&#x188;" horiz-adv-x="577" 
d="M403 494c16 40 52 62 107 62c17 0 28 -1 47 -5v-69c-19 1 -22 1 -29 1c-38 0 -58 -13 -58 -53v-82h-84c-10 73 -54 114 -124 114c-91 0 -145 -78 -145 -209c0 -124 55 -199 147 -199c71 0 114 42 128 126h84c-10 -128 -89 -203 -214 -203c-142 0 -232 107 -232 276
c0 174 92 286 233 286c55 0 104 -16 140 -45z" />
    <glyph glyph-name="uni0189" unicode="&#x189;" horiz-adv-x="707" 
d="M89 339h-69v67h69v323h282c184 0 296 -138 296 -364c0 -227 -112 -365 -296 -365h-282v339zM182 339v-257h173c143 0 219 97 219 283c0 185 -76 282 -219 282h-173v-241h171v-67h-171z" />
    <glyph glyph-name="uni018A" unicode="&#x18a;" horiz-adv-x="876" 
d="M351 82h172c144 0 220 98 220 282c0 186 -76 283 -220 283h-172v-565zM163 448c-94 0 -123 67 -123 154c0 52 26 127 132 127h367c185 0 297 -138 297 -364c0 -227 -113 -365 -297 -365h-281v642h-82c-40 0 -49 -28 -49 -58c0 -29 16 -53 54 -53c7 0 10 1 29 1v-79
c-19 -4 -30 -5 -47 -5z" />
    <glyph glyph-name="uni018B" unicode="&#x18b;" horiz-adv-x="664" 
d="M40 218v2c0 131 78 215 271 215h180v212h-396v82h489v-729h-329c-172 0 -215 132 -215 218zM133 217c0 -52 20 -135 131 -135h227v271h-227c-111 0 -131 -83 -131 -136z" />
    <glyph glyph-name="uni018C" unicode="&#x18c;" horiz-adv-x="559" 
d="M270 461c-93 0 -153 -81 -153 -206c0 -119 62 -200 153 -200c88 0 146 80 146 203s-58 203 -146 203zM499 0h-75v67c-40 -61 -93 -90 -166 -90c-138 0 -228 113 -228 287c0 170 86 275 224 275c72 0 123 -27 162 -86v203h-308v73h391v-729z" />
    <glyph glyph-name="uni018D" unicode="&#x18d;" horiz-adv-x="552" 
d="M522 290c0 -154 -86 -257 -213 -257c-16 0 -22 2 -34 4l211 -162v-72h-398v72h269l-175 138c-50 39 -152 115 -152 269c0 212 150 266 254 266c98 0 238 -52 238 -258zM278 100c96 0 151 81 154 182c0 125 -60 184 -148 184c-106 0 -166 -70 -166 -186
c0 -105 53 -180 160 -180z" />
    <glyph glyph-name="uni018E" unicode="&#x18e;" horiz-adv-x="633" 
d="M460 332h-397v82h397v233h-412v82h505v-729h-523v82h430v250z" />
    <glyph glyph-name="uni018F" unicode="&#x18f;" horiz-adv-x="710" 
d="M148 252c13 -91 36 -193 192 -193c115 0 196 73 225 193h-417zM670 356c0 -149 -66 -379 -329 -379c-124 0 -300 46 -301 357h536c1 8 1 15 1 23c0 187 -88 302 -229 302c-119 0 -176 -54 -197 -156h-95c29 160 121 238 281 238c266 0 333 -233 333 -385z" />
    <glyph glyph-name="Epsilonlatin" unicode="&#x190;" horiz-adv-x="653" 
d="M325 -23c-228 0 -285 133 -285 223c0 82 47 143 130 174c-68 29 -105 78 -105 153c0 132 99 214 259 214c168 0 266 -83 267 -226h-88c-1 95 -66 148 -182 148c-98 0 -163 -49 -163 -123c0 -56 69 -137 158 -137h88v-82h-108c-95 0 -163 -73 -163 -130
c0 -51 28 -132 186 -132c165 0 206 93 206 168v5h88c-3 -207 -164 -255 -288 -255z" />
    <glyph glyph-name="uni0191" unicode="&#x191;" horiz-adv-x="609" 
d="M90 -76v805h489v-82h-396v-233h348v-82h-348v-441c0 -71 -59 -109 -153 -109c-13 0 -18 1 -28 3v81c17 -1 17 -1 20 -1c41 0 68 15 68 59z" />
    <glyph glyph-name="florin" unicode="&#x192;" horiz-adv-x="278" 
d="M258 524v-68h-87v-565c0 -71 -49 -109 -143 -109c-13 0 -18 1 -28 3v71c17 -1 17 -1 20 -1c51 0 68 17 68 69v532h-70v68h70v89c0 75 46 119 123 119c17 0 28 -1 47 -5v-69c-19 1 -22 1 -29 1c-38 0 -58 -18 -58 -53v-82h87z" />
    <glyph glyph-name="uni0193" unicode="&#x193;" horiz-adv-x="812" 
d="M133 362c0 -117 52 -303 261 -303c133 0 229 94 229 224v20h-222v82h304v-389h-59l-23 97c-71 -79 -150 -116 -249 -116c-197 0 -334 156 -334 380c0 146 70 384 350 384c97 0 176 -29 230 -82c18 43 59 67 115 67c17 0 28 -1 47 -5v-79c-19 1 -22 1 -29 1
c-38 0 -58 -13 -58 -53v-82h-95c-20 94 -100 151 -211 151c-154 0 -256 -118 -256 -297z" />
    <glyph glyph-name="uni0194" unicode="&#x194;" horiz-adv-x="678" 
d="M344 67c17 0 29 12 29 36c0 22 -10 55 -28 91c-25 -46 -32 -72 -32 -91c0 -26 17 -36 31 -36zM219 102c0 37 2 54 77 184l-281 443h115l214 -355l208 355h111l-274 -443c24 -32 77 -114 77 -176c0 -85 -58 -137 -122 -137c-96 0 -125 96 -125 129z" />
    <glyph glyph-name="uni0195" unicode="&#x195;" horiz-adv-x="853" 
d="M549 -23h-55c-65 0 -101 30 -101 83v303c0 82 -65 103 -108 103c-86 0 -142 -70 -142 -177v-289h-83v729h83v-277c49 64 94 87 168 87c102 0 165 -55 165 -143v-299c0 -37 39 -47 73 -47c158 0 185 163 185 204s-15 136 -125 213l102 4c66 -51 112 -143 112 -222
c0 -54 -55 -272 -274 -272z" />
    <glyph glyph-name="uni0196" unicode="&#x196;" horiz-adv-x="256" 
d="M149 729v-632c0 -37 10 -47 46 -47c16 0 29 1 40 4v-70c-28 -5 -48 -7 -68 -7c-65 0 -101 30 -101 83v669h83z" />
    <glyph glyph-name="uni0197" unicode="&#x197;" horiz-adv-x="363" 
d="M134 339h-119v67h119v323h94v-323h120v-67h-120v-339h-94v339z" />
    <glyph glyph-name="uni0198" unicode="&#x198;" horiz-adv-x="673" 
d="M173 255v-255h-93v729h93v-369l288 295c53 50 98 61 126 61c50 0 73 -19 86 -31l-56 -62c-10 10 -21 10 -26 10c-34 0 -51 -19 -63 -31l-169 -170l300 -432h-110l-257 374z" />
    <glyph glyph-name="uni0199" unicode="&#x199;" horiz-adv-x="514" 
d="M60 0v613c0 75 46 119 123 119c17 0 28 -1 47 -5v-69c-19 1 -22 1 -29 1c-38 0 -58 -18 -58 -53v-304l222 222h107l-182 -181l214 -343h-103l-177 284l-81 -80v-204h-83z" />
    <glyph glyph-name="lbar" unicode="&#x19a;" horiz-adv-x="345" 
d="M130 339h-124v67h124v323h84v-323h125v-67h-125v-339h-84v339z" />
    <glyph glyph-name="lambdastroke" unicode="&#x19b;" horiz-adv-x="546" 
d="M112 732c52 0 88 -15 130 -89l136 95v-76l-111 -77l187 -493c5 -12 15 -19 28 -19c6 0 30 7 34 11l20 -70c-32 -16 -59 -24 -81 -24c-52 0 -66 35 -81 78l-122 354l-146 -420h-96l198 520l-6 18l-168 -116v77c3 0 70 46 144 98c-24 42 -50 47 -78 47c-19 0 -54 -8 -54 -8
l10 82c22 8 41 12 56 12z" />
    <glyph glyph-name="uni019C" unicode="&#x19c;" horiz-adv-x="864" 
d="M784 0h-83v74c-45 -63 -91 -89 -161 -89c-68 0 -110 24 -141 80c-49 -59 -91 -80 -161 -80c-98 0 -158 52 -158 146v598h95v-555c0 -66 31 -105 92 -105c68 0 118 61 118 137v523h95v-555c0 -67 29 -105 91 -105c68 0 118 61 118 137v523h95v-729z" />
    <glyph glyph-name="uni019D" unicode="&#x19d;" horiz-adv-x="730" 
d="M80 -76v805h101l381 -596v596h88v-729h-105l-377 591v-700c0 -71 -54 -109 -148 -109c-13 0 -18 1 -28 3v76c17 -1 17 -1 20 -1c41 0 68 20 68 64z" />
    <glyph glyph-name="uni019E" unicode="&#x19e;" horiz-adv-x="537" 
d="M60 524h77v-88c46 73 96 103 174 103c101 0 166 -56 166 -143v-596h-83v563c0 63 -42 103 -108 103c-86 0 -142 -70 -142 -177v-289h-84v524z" />
    <glyph glyph-name="Obar" unicode="&#x19f;" horiz-adv-x="782" 
d="M744 353c0 -210 -134 -376 -352 -376c-210 0 -352 154 -352 382s142 382 351 382c214 0 353 -153 353 -388zM650 385c-10 167 -110 274 -259 274c-146 0 -248 -109 -257 -274h516zM649 315h-514c16 -155 115 -256 257 -256s242 102 257 256z" />
    <glyph glyph-name="Ohorn" unicode="&#x1a0;" horiz-adv-x="792" 
d="M391 659c-154 0 -258 -120 -258 -300s104 -300 259 -300c154 0 259 120 259 296c0 184 -102 304 -260 304zM744 353c0 -210 -134 -376 -352 -376c-210 0 -352 154 -352 382s142 382 351 382c141 0 213 -72 248 -72c42 0 67 1 67 30c0 17 -6 30 -17 43l64 54
c24 -28 37 -59 37 -99c0 -71 -45 -100 -107 -109c39 -62 61 -142 61 -235z" />
    <glyph glyph-name="ohorn" unicode="&#x1a1;" horiz-adv-x="559" 
d="M267 462c-93 0 -150 -78 -150 -204c0 -127 57 -204 150 -204c92 0 150 78 150 201c0 130 -56 207 -150 207zM522 631c24 -28 37 -59 37 -99c0 -65 -37 -94 -92 -106c24 -45 37 -103 37 -172c0 -172 -90 -277 -237 -277c-149 0 -237 105 -237 281s89 281 236 281
c97 0 111 -35 151 -35c38 0 58 4 58 30c0 17 -6 30 -17 43z" />
    <glyph glyph-name="Oi" unicode="&#x1a2;" horiz-adv-x="1016" 
d="M391 659c-154 0 -258 -120 -258 -300s104 -300 259 -300c154 0 259 120 259 296c0 184 -102 304 -260 304zM744 353c0 -210 -134 -376 -352 -376c-210 0 -352 154 -352 382s142 382 351 382c77 0 144 -20 199 -56c47 34 109 57 180 57c118 0 166 -82 166 -183v-559h-94
v589c0 29 -22 79 -78 79c-55 0 -75 -11 -108 -42c56 -67 88 -161 88 -273z" />
    <glyph glyph-name="oi" unicode="&#x1a3;" horiz-adv-x="726" 
d="M267 462c-93 0 -150 -78 -150 -204c0 -127 57 -204 150 -204c92 0 150 78 150 201c0 130 -56 207 -150 207zM666 369v-569h-84v589c0 43 -6 81 -56 81c-32 0 -50 -6 -74 -19c34 -48 52 -115 52 -197c0 -172 -90 -277 -237 -277c-149 0 -237 105 -237 281s89 281 236 281
c56 0 103 -14 140 -41c33 21 76 41 126 41c88 0 134 -35 134 -170z" />
    <glyph glyph-name="uni01A4" unicode="&#x1a4;" horiz-adv-x="824" 
d="M351 391h194c89 0 142 48 142 128s-53 128 -142 128h-194v-256zM784 515c0 -125 -84 -206 -204 -206h-229v-309h-93v642h-82c-40 0 -49 -28 -49 -58c0 -29 16 -53 54 -53c7 0 10 1 29 1v-79c-19 -4 -30 -5 -47 -5c-94 0 -123 67 -123 154c0 52 26 127 132 127h387
c144 0 225 -77 225 -214z" />
    <glyph glyph-name="uni01A5" unicode="&#x1a5;" horiz-adv-x="559" 
d="M290 461c-88 0 -146 -80 -146 -203s58 -203 146 -203c91 0 152 81 152 200c0 125 -60 206 -152 206zM137 606v-161c39 62 96 94 167 94c139 0 225 -110 225 -286c0 -167 -89 -276 -224 -276c-68 0 -117 24 -161 78v-273h-84v831c0 75 42 119 119 119c17 0 26 -1 45 -5
v-69c-19 1 -22 1 -29 1c-38 0 -58 -18 -58 -53z" />
    <glyph glyph-name="uni01A6" unicode="&#x1a6;" horiz-adv-x="655" 
d="M173 271h194c87 0 138 48 138 128s-51 128 -138 128h-194v-256zM173 189v-189h-93v729h93v-120h208c139 0 224 -80 224 -212c0 -76 -33 -138 -86 -174c58 -34 73 -118 73 -187c0 -61 9 -117 43 -138v-23h-113c-13 30 -20 74 -20 119v65c0 90 -39 130 -120 130h-209z" />
    <glyph glyph-name="uni01A7" unicode="&#x1a7;" horiz-adv-x="667" 
d="M327 59c165 0 206 94 206 168v5h88c-3 -207 -162 -255 -288 -255c-228 0 -285 134 -285 223c0 90 56 156 155 183l183 49c88 24 120 52 120 108c0 74 -65 123 -163 123c-116 0 -181 -53 -182 -148h-88c1 143 99 226 267 226c160 0 259 -82 259 -214
c0 -89 -47 -145 -143 -170l-181 -48c-92 -24 -134 -61 -134 -118c0 -52 28 -132 186 -132z" />
    <glyph glyph-name="uni01A8" unicode="&#x1a8;" horiz-adv-x="500" 
d="M371 156h88c-4 -121 -72 -179 -209 -179c-132 0 -216 65 -216 166c0 78 44 121 148 146l80 19c68 16 97 38 97 75c0 48 -43 79 -111 79c-67 0 -103 -29 -105 -84h-88c1 103 69 161 190 161c122 0 201 -63 201 -160c0 -82 -42 -121 -166 -151l-78 -19
c-58 -14 -81 -35 -81 -73c0 -49 49 -82 122 -82c102 0 121 51 128 102z" />
    <glyph glyph-name="uni01A9" unicode="&#x1a9;" horiz-adv-x="615" 
d="M249 365l-217 280v84h525v-82h-410l219 -282l-219 -283h438v-82h-555v82z" />
    <glyph glyph-name="uni01AA" unicode="&#x1aa;" horiz-adv-x="350" 
d="M123 670c-34 0 -62 -28 -62 -60c0 -33 28 -61 62 -61s62 28 62 60c0 35 -27 61 -62 61zM163 494c-13 -5 -26 -7 -40 -7c-67 0 -123 56 -123 123c0 66 56 122 123 122c77 0 123 -50 123 -124v-684c0 -52 18 -69 69 -69c3 0 3 0 20 1v-71c-10 -2 -15 -3 -28 -3
c-94 0 -144 38 -144 109v603z" />
    <glyph glyph-name="uni01AB" unicode="&#x1ab;" horiz-adv-x="280" 
d="M176 -22c-55 4 -85 34 -85 82v396h-71v68h71v144h83v-144h86v-68h-86v-359c0 -37 10 -47 46 -47c16 0 29 1 40 4v-163c0 -71 -50 -109 -144 -109c-13 0 -18 1 -28 3v71c17 -1 17 -1 20 -1c51 0 68 17 68 69v54z" />
    <glyph glyph-name="uni01AC" unicode="&#x1ac;" horiz-adv-x="638" 
d="M15 602c0 53 24 125 132 127h461v-82h-239v-647h-93v647h-43h-82c-38 0 -49 -28 -49 -58c0 -49 31 -58 54 -58c7 0 10 0 29 1v-79c-19 -4 -30 -5 -47 -5c-94 0 -123 67 -123 154z" />
    <glyph glyph-name="uni01AD" unicode="&#x1ad;" horiz-adv-x="281" 
d="M174 606v-82h86v-68h-86v-359c0 -37 10 -47 46 -47c16 0 29 1 40 4v-70c-28 -5 -48 -7 -68 -7c-65 0 -101 30 -101 83v396h-71v68h71v89c0 75 46 119 123 119c17 0 28 -1 47 -5v-69c-19 1 -22 1 -29 1c-38 0 -58 -18 -58 -53z" />
    <glyph glyph-name="uni01AE" unicode="&#x1ae;" horiz-adv-x="632" 
d="M270 -109v756h-240v82h572v-82h-239v-723c0 -44 27 -59 68 -59c3 0 3 0 20 1v-81c-10 -2 -15 -3 -28 -3c-94 0 -153 38 -153 109z" />
    <glyph glyph-name="Uhorn" unicode="&#x1af;" horiz-adv-x="776" 
d="M734 856c24 -28 37 -59 37 -99c0 -79 -56 -106 -131 -111v-429c0 -146 -110 -240 -281 -240c-173 0 -279 92 -279 240v512h93v-512c0 -110 79 -158 186 -158c117 0 188 60 188 158v512h93c27 1 47 4 47 30c0 17 -6 30 -17 43z" />
    <glyph glyph-name="uhorn" unicode="&#x1b0;" horiz-adv-x="619" 
d="M581 651c24 -28 37 -59 37 -99c0 -83 -62 -109 -141 -112v-440h-75v73c-49 -69 -98 -96 -175 -96c-102 0 -167 56 -167 143v404h83v-371c0 -63 42 -103 108 -103c87 0 143 70 143 177v297h93c27 1 47 4 47 30c0 17 -6 30 -17 43z" />
    <glyph glyph-name="uni01B1" unicode="&#x1b1;" horiz-adv-x="757" 
d="M326 653c-49 -20 -195 -130 -195 -317c0 -148 102 -267 255 -267c151 0 244 130 244 270c0 133 -80 268 -182 314v76h264v-72h-164c105 -62 169 -184 169 -319c0 -179 -135 -342 -329 -342c-209 0 -348 150 -348 338c0 143 79 266 188 323h-176v72h274v-76z" />
    <glyph glyph-name="uni01B2" unicode="&#x1b2;" horiz-adv-x="695" 
d="M329 -23c-126 0 -249 23 -249 230v522h93v-562c0 -89 74 -108 126 -108c122 0 263 59 263 275v2c-1 156 -68 258 -157 393h108c92 -123 142 -255 142 -383c0 -238 -134 -369 -326 -369z" />
    <glyph glyph-name="uni01B3" unicode="&#x1b3;" horiz-adv-x="728" 
d="M676 617c-13 13 -32 21 -46 21c-32 0 -51 -45 -62 -62l-179 -290v-286h-93v286l-281 443h115l214 -355l173 291c14 20 46 64 110 64c43 0 64 -19 86 -33c-1 -1 -37 -79 -37 -79z" />
    <glyph glyph-name="yhook" unicode="&#x1b4;" horiz-adv-x="613" 
d="M468 524l-233 -634c-28 -77 -78 -108 -135 -108c-22 0 -39 4 -56 13v75c18 -4 32 -6 44 -6c35 0 54 14 67 51l32 85l-177 524h89l134 -408l145 408c64 179 112 208 181 208c22 0 31 -1 49 -5v-69c-11 0 -15 1 -27 1c-50 0 -74 -28 -113 -135z" />
    <glyph glyph-name="uni01B5" unicode="&#x1b5;" horiz-adv-x="615" 
d="M583 729v-84l-185 -239h77v-67h-129l-199 -257h438v-82h-555v82l199 257h-87v67h139l187 241h-410v82h525z" />
    <glyph glyph-name="uni01B6" unicode="&#x1b6;" horiz-adv-x="486" 
d="M442 524v-74l-123 -149h83v-67h-138l-133 -161h325v-73h-426v75l132 159h-93v67h149l125 150h-292v73h391z" />
    <glyph glyph-name="Yogh" unicode="&#x1b7;" horiz-adv-x="619" 
d="M333 466l141 181h-410v82h525v-84l-180 -232c87 -21 175 -58 175 -212v-3c-1 -134 -115 -221 -280 -221c-163 0 -253 75 -264 229h88c6 -103 69 -151 179 -151c105 0 187 53 187 142c0 137 -140 158 -237 158v75c45 0 58 16 76 36z" />
    <glyph glyph-name="uni01B8" unicode="&#x1b8;" horiz-adv-x="609" 
d="M286 466c18 -20 31 -36 76 -36v-75c-97 0 -237 -21 -237 -158c0 -89 82 -142 187 -142c110 0 173 48 179 151h88c-11 -154 -101 -229 -264 -229c-165 0 -279 87 -280 221v3c0 154 88 191 175 212l-180 232v84h525v-82h-410z" />
    <glyph glyph-name="uni01B9" unicode="&#x1b9;" horiz-adv-x="524" 
d="M216 276l-143 174v74h391v-73h-292l143 -171v-75h-48c-97 0 -147 -43 -147 -128c0 -89 55 -142 147 -142c96 0 143 48 149 151h88c-11 -154 -86 -229 -234 -229c-146 0 -240 87 -240 221c0 120 71 184 186 198z" />
    <glyph glyph-name="uni01BA" unicode="&#x1ba;" horiz-adv-x="509" 
d="M296 276c124 -14 183 -74 183 -168c0 -108 -96 -178 -224 -178c-38 0 -91 17 -121 17c-15 0 -25 -4 -25 -16c0 -38 43 -60 115 -60c86 0 154 26 185 38l23 -69c-44 -16 -108 -42 -208 -42c-134 0 -194 58 -194 142c0 63 45 79 96 79c50 0 107 -16 129 -16
c51 0 145 29 145 100c0 55 -56 102 -155 102h-48v75l143 171h-292v73h391v-74z" />
    <glyph glyph-name="uni01BB" unicode="&#x1bb;" horiz-adv-x="556" 
d="M50 463c6 214 137 246 234 246c134 0 227 -85 227 -208c0 -81 -44 -150 -130 -202l87 -36v-77l-167 68l-40 -21c-89 -48 -119 -88 -128 -146h373v-87h-472c8 147 46 215 174 292l-83 34v77l161 -66l39 22c63 36 96 84 96 140c0 76 -60 133 -140 133
c-122 0 -139 -103 -143 -169h-88z" />
    <glyph glyph-name="uni01BE" unicode="&#x1be;" horiz-adv-x="492" 
d="M462 171c0 -129 -95 -192 -213 -192c-140 0 -219 89 -219 234h79c0 -77 30 -162 135 -162c79 0 135 33 135 114c0 149 -184 93 -184 261v30h-71v68h71v144h83v-144h86v-68h-86v-22c0 -112 184 -94 184 -263z" />
    <glyph glyph-name="wynn" unicode="&#x1bf;" horiz-adv-x="561" 
d="M144 360v-354c92 60 298 209 298 374c0 58 -46 82 -97 82c-45 0 -123 -20 -201 -102zM144 -63v-155h-84v742h75v-80c84 82 144 96 243 96c85 0 153 -65 153 -172c0 -215 -279 -368 -387 -431z" />
    <glyph glyph-name="uni01C0" unicode="&#x1c0;" horiz-adv-x="260" 
d="M95 729h60v-941h-60v941z" />
    <glyph glyph-name="uni01C1" unicode="&#x1c1;" horiz-adv-x="370" 
d="M205 729h60v-941h-60v941zM95 729h60v-941h-60v941z" />
    <glyph glyph-name="uni01C2" unicode="&#x1c2;" horiz-adv-x="584" 
d="M260 729h60v-376h214v-70h-214v-102h214v-70h-214v-323h-60v323h-210v70h210v102h-210v70h210v376z" />
    <glyph glyph-name="uni01C3" unicode="&#x1c3;" horiz-adv-x="278" 
d="M208 729v-338l-22 -223h-39l-22 223v338h83zM208 104v-104h-84v104h84z" />
    <glyph glyph-name="DZcaron" unicode="&#x1c4;" horiz-adv-x="1275" 
d="M1027 775h-95l-96 125h63l81 -61l79 61h64zM1243 729v-84l-436 -563h438v-82h-555v82l438 565h-410v82h525zM80 0v729h281c185 0 297 -138 297 -364c0 -227 -113 -365 -297 -365h-281zM173 82h172c144 0 220 98 220 282c0 186 -76 283 -220 283h-172v-565z" />
    <glyph glyph-name="Dzcaron" unicode="&#x1c5;" horiz-adv-x="1178" 
d="M986 583h-95l-96 150h63l81 -96l79 96h64zM1130 524v-74l-311 -377h325v-73h-426v75l313 376h-292v73h391zM80 0v729h281c185 0 297 -138 297 -364c0 -227 -113 -365 -297 -365h-281zM173 82h172c144 0 220 98 220 282c0 186 -76 283 -220 283h-172v-565z" />
    <glyph glyph-name="dzcaron" unicode="&#x1c6;" horiz-adv-x="1032" 
d="M844 583h-95l-96 150h63l81 -96l79 96h64zM988 524v-74l-311 -377h325v-73h-426v75l313 376h-292v73h391zM499 729v-729h-74v69c-45 -65 -95 -92 -167 -92c-141 0 -228 109 -228 286c0 167 89 276 225 276c70 0 126 -28 161 -81v271h83zM269 461
c-91 0 -152 -81 -152 -203s61 -203 153 -203c88 0 146 80 146 201c0 125 -57 205 -147 205z" />
    <glyph glyph-name="LJ" unicode="&#x1c7;" horiz-adv-x="1054" 
d="M765 55c91 0 112 69 112 161v513h93v-547c0 -126 -79 -205 -206 -205c-125 0 -203 75 -203 193v64h95v-47c0 -85 39 -132 109 -132zM173 729v-647h360v-82h-453v729h93z" />
    <glyph glyph-name="Lj" unicode="&#x1c8;" horiz-adv-x="778" 
d="M644 524h83v-633c0 -71 -49 -109 -143 -109c-13 0 -18 1 -28 3v71c7 -1 16 -2 23 -2c49 0 65 18 65 70v600zM727 729v-105h-83v105h83zM173 729v-647h360v-82h-453v729h93z" />
    <glyph glyph-name="lj" unicode="&#x1c9;" horiz-adv-x="424" 
d="M290 524h83v-633c0 -71 -49 -109 -143 -109c-13 0 -18 1 -28 3v71c7 -1 16 -2 23 -2c49 0 65 18 65 70v600zM373 729v-105h-83v105h83zM144 729v-729h-84v729h84z" />
    <glyph glyph-name="NJ" unicode="&#x1ca;" horiz-adv-x="1216" 
d="M927 55c91 0 112 69 112 161v513h93v-547c0 -126 -79 -205 -206 -205c-125 0 -203 75 -203 193v64h95v-47c0 -85 39 -132 109 -132zM650 729v-729h-105l-377 591v-591h-88v729h101l381 -596v596h88z" />
    <glyph glyph-name="Nj" unicode="&#x1cb;" horiz-adv-x="924" 
d="M790 524h83v-633c0 -71 -49 -109 -143 -109c-13 0 -18 1 -28 3v71c7 -1 16 -2 23 -2c49 0 65 18 65 70v600zM873 729v-105h-83v105h83zM650 729v-729h-105l-377 591v-591h-88v729h101l381 -596v596h88z" />
    <glyph glyph-name="nj" unicode="&#x1cc;" horiz-adv-x="758" 
d="M624 524h83v-633c0 -71 -49 -109 -143 -109c-13 0 -18 1 -28 3v71c7 -1 16 -2 23 -2c49 0 65 18 65 70v600zM707 729v-105h-83v105h83zM60 524h77v-88c46 73 96 103 174 103c101 0 166 -56 166 -143v-396h-83v363c0 63 -42 103 -108 103c-86 0 -142 -70 -142 -177v-289
h-84v524z" />
    <glyph glyph-name="Acaron" unicode="&#x1cd;" horiz-adv-x="666" 
d="M381 775h-95l-96 125h63l81 -61l79 61h64zM472 219h-281l-77 -219h-99l260 729h120l256 -729h-104zM446 297l-112 332l-120 -332h232z" />
    <glyph glyph-name="acaron" unicode="&#x1ce;" horiz-adv-x="543" 
d="M322 579h-95l-96 150h63l81 -96l79 96h64zM53 369c5 142 116 170 210 170c129 0 197 -50 197 -143v-308c0 -26 16 -41 45 -41c5 0 9 0 18 2v-63c-27 -7 -40 -9 -57 -9c-54 0 -80 24 -86 77c-59 -54 -112 -77 -178 -77c-106 0 -172 60 -172 155c0 140 107 152 260 172
c66 8 87 23 87 58v22c0 50 -42 78 -117 78c-78 0 -116 -29 -123 -93h-84zM220 50c99 0 157 65 157 115v94c-85 -39 -260 -10 -260 -125c0 -53 38 -84 103 -84z" />
    <glyph glyph-name="Icaron" unicode="&#x1cf;" horiz-adv-x="300" 
d="M198 775h-95l-96 125h63l81 -61l79 61h64zM197 729v-729h-94v729h94z" />
    <glyph glyph-name="icaron" unicode="&#x1d0;" horiz-adv-x="262" 
d="M178 579h-95l-96 150h63l81 -96l79 96h64zM173 524v-524h-83v524h83z" />
    <glyph glyph-name="Ocaron" unicode="&#x1d1;" horiz-adv-x="784" 
d="M435 775h-95l-96 125h63l81 -61l79 61h64zM744 353c0 -210 -134 -376 -352 -376c-210 0 -352 154 -352 382s142 382 351 382c214 0 353 -153 353 -388zM391 659c-154 0 -258 -120 -258 -300s104 -300 259 -300c154 0 259 120 259 296c0 184 -102 304 -260 304z" />
    <glyph glyph-name="ocaron" unicode="&#x1d2;" horiz-adv-x="534" 
d="M320 579h-95l-96 150h63l81 -96l79 96h64zM266 539c151 0 238 -104 238 -285c0 -172 -90 -277 -237 -277c-149 0 -237 105 -237 281s89 281 236 281zM267 462c-93 0 -150 -78 -150 -204c0 -127 57 -204 150 -204c92 0 150 78 150 201c0 130 -56 207 -150 207z" />
    <glyph glyph-name="Ucaron" unicode="&#x1d3;" horiz-adv-x="720" 
d="M413 775h-95l-96 125h63l81 -61l79 61h64zM547 729h93v-512c0 -146 -110 -240 -281 -240c-173 0 -279 92 -279 240v512h93v-512c0 -110 79 -158 186 -158c117 0 188 60 188 158v512z" />
    <glyph glyph-name="ucaron" unicode="&#x1d4;" horiz-adv-x="537" 
d="M321 579h-95l-96 150h63l81 -96l79 96h64zM477 0h-75v73c-49 -69 -98 -96 -175 -96c-102 0 -167 56 -167 143v404h83v-371c0 -63 42 -103 108 -103c87 0 143 70 143 177v297h83v-524z" />
    <glyph glyph-name="Udieresismacron" unicode="&#x1d5;" horiz-adv-x="720" 
d="M504 864v-104h-104v104h104zM325 864v-104h-104v104h104zM497 965v-70h-274v70h274zM547 729h93v-512c0 -146 -110 -240 -281 -240c-173 0 -279 92 -279 240v512h93v-512c0 -110 79 -158 186 -158c117 0 188 60 188 158v512z" />
    <glyph glyph-name="udieresismacron" unicode="&#x1d6;" horiz-adv-x="537" 
d="M418 689v-104h-104v104h104zM239 689v-104h-104v104h104zM477 0h-75v73c-49 -69 -98 -96 -175 -96c-102 0 -167 56 -167 143v404h83v-371c0 -63 42 -103 108 -103c87 0 143 70 143 177v297h83v-524zM411 821v-70h-274v70h274z" />
    <glyph glyph-name="Udieresisacute" unicode="&#x1d7;" horiz-adv-x="720" 
d="M405 990h123l-164 -125h-65zM510 843v-104h-104v104h104zM331 843v-104h-104v104h104zM547 729h93v-512c0 -146 -110 -240 -281 -240c-173 0 -279 92 -279 240v512h93v-512c0 -110 79 -158 186 -158c117 0 188 60 188 158v512z" />
    <glyph glyph-name="udieresisacute" unicode="&#x1d8;" horiz-adv-x="537" 
d="M418 699v-104h-104v104h104zM239 699v-104h-104v104h104zM477 0h-75v73c-49 -69 -98 -96 -175 -96c-102 0 -167 56 -167 143v404h83v-371c0 -63 42 -103 108 -103c87 0 143 70 143 177v297h83v-524zM340 900h113l-149 -148h-60z" />
    <glyph glyph-name="Udieresiscaron" unicode="&#x1d9;" horiz-adv-x="720" 
d="M411 855h-95l-96 125h63l81 -61l79 61h64zM510 828v-104h-104v104h104zM331 828v-104h-104v104h104zM547 729h93v-512c0 -146 -110 -240 -281 -240c-173 0 -279 92 -279 240v512h93v-512c0 -110 79 -158 186 -158c117 0 188 60 188 158v512z" />
    <glyph glyph-name="udieresiscaron" unicode="&#x1da;" horiz-adv-x="537" 
d="M418 689v-104h-104v104h104zM239 689v-104h-104v104h104zM477 0h-75v73c-49 -69 -98 -96 -175 -96c-102 0 -167 56 -167 143v404h83v-371c0 -63 42 -103 108 -103c87 0 143 70 143 177v297h83v-524zM322 750h-95l-96 150h63l81 -96l79 96h64z" />
    <glyph glyph-name="Udieresisgrave" unicode="&#x1db;" horiz-adv-x="720" 
d="M321 980l106 -126h-65l-164 126h123zM510 843v-104h-104v104h104zM331 843v-104h-104v104h104zM547 729h93v-512c0 -146 -110 -240 -281 -240c-173 0 -279 92 -279 240v512h93v-512c0 -110 79 -158 186 -158c117 0 188 60 188 158v512z" />
    <glyph glyph-name="udieresisgrave" unicode="&#x1dc;" horiz-adv-x="537" 
d="M418 689v-104h-104v104h104zM239 689v-104h-104v104h104zM477 0h-75v73c-49 -69 -98 -96 -175 -96c-102 0 -167 56 -167 143v404h83v-371c0 -63 42 -103 108 -103c87 0 143 70 143 177v297h83v-524zM208 900l96 -148h-60l-149 148h113z" />
    <glyph glyph-name="eturn" unicode="&#x1dd;" horiz-adv-x="533" 
d="M30 282h386c-2 107 -57 180 -154 180c-67 0 -114 -36 -137 -105h-84c21 114 104 182 224 182c147 0 238 -106 238 -278s-94 -284 -240 -284c-162 0 -233 115 -233 305zM414 214h-295c0 -90 59 -160 145 -160c84 0 143 63 150 160z" />
    <glyph glyph-name="uni01DE" unicode="&#x1de;" horiz-adv-x="666" 
d="M484 864v-104h-104v104h104zM305 864v-104h-104v104h104zM477 965v-70h-274v70h274zM472 219h-281l-77 -219h-99l260 729h120l256 -729h-104zM446 297l-112 332l-120 -332h232z" />
    <glyph glyph-name="uni01DF" unicode="&#x1df;" horiz-adv-x="543" 
d="M420 687v-104h-104v104h104zM241 687v-104h-104v104h104zM53 369c5 142 116 170 210 170c129 0 197 -50 197 -143v-308c0 -26 16 -41 45 -41c5 0 9 0 18 2v-63c-27 -7 -40 -9 -57 -9c-54 0 -80 24 -86 77c-59 -54 -112 -77 -178 -77c-106 0 -172 60 -172 155
c0 140 107 152 260 172c66 8 87 23 87 58v22c0 50 -42 78 -117 78c-78 0 -116 -29 -123 -93h-84zM220 50c99 0 157 65 157 115v94c-85 -39 -260 -10 -260 -125c0 -53 38 -84 103 -84zM415 800v-70h-274v70h274z" />
    <glyph glyph-name="uni01E0" unicode="&#x1e0;" horiz-adv-x="666" 
d="M389 855v-104h-104v104h104zM472 219h-281l-77 -219h-99l260 729h120l256 -729h-104zM446 297l-112 332l-120 -332h232zM474 952v-70h-274v70h274z" />
    <glyph glyph-name="uni01E1" unicode="&#x1e1;" horiz-adv-x="543" 
d="M327 687v-104h-104v104h104zM53 369c5 142 116 170 210 170c129 0 197 -50 197 -143v-308c0 -26 16 -41 45 -41c5 0 9 0 18 2v-63c-27 -7 -40 -9 -57 -9c-54 0 -80 24 -86 77c-59 -54 -112 -77 -178 -77c-106 0 -172 60 -172 155c0 140 107 152 260 172c66 8 87 23 87 58
v22c0 50 -42 78 -117 78c-78 0 -116 -29 -123 -93h-84zM220 50c99 0 157 65 157 115v94c-85 -39 -260 -10 -260 -125c0 -53 38 -84 103 -84zM412 800v-70h-274v70h274z" />
    <glyph glyph-name="uni01E2" unicode="&#x1e2;" horiz-adv-x="984" 
d="M758 871v-70h-274v70h274zM472 214h-269l-85 -214h-103l299 729h622v-82h-371v-233h352v-82h-352v-250h389v-82h-482v214zM472 296v351h-100l-138 -351h238z" />
    <glyph glyph-name="uni01E3" unicode="&#x1e3;" horiz-adv-x="871" 
d="M576 701v-70h-274v70h274zM455 234c3 -146 92 -180 154 -180c67 0 114 36 138 105h84c-21 -114 -105 -182 -223 -182c-145 0 -188 100 -194 110c-75 -78 -138 -110 -216 -110c-102 0 -168 61 -168 155c0 131 107 158 260 171c68 6 87 20 87 59v22c0 51 -41 78 -118 78
s-115 -29 -122 -93h-84c5 142 117 170 208 170c85 0 144 -28 175 -82c36 51 101 82 173 82c97 0 177 -53 211 -138c15 -39 21 -87 21 -167h-386zM217 50c107 0 160 85 160 107v101c-99 -43 -260 -9 -260 -124c0 -52 38 -84 100 -84zM457 302h294c0 95 -59 160 -144 160
c-84 0 -143 -63 -150 -160z" />
    <glyph glyph-name="uni01E4" unicode="&#x1e4;" horiz-adv-x="774" 
d="M133 362c0 -117 52 -303 261 -303c95 0 171 48 207 123h-200v58h218c3 14 4 28 4 43v20h-222v82h304v-145h53v-58h-53v-186h-59l-23 97c-71 -79 -150 -116 -249 -116c-197 0 -334 156 -334 380c0 146 70 384 350 384c167 0 279 -85 305 -233h-95
c-20 94 -100 151 -211 151c-154 0 -256 -118 -256 -297z" />
    <glyph glyph-name="uni01E5" unicode="&#x1e5;" horiz-adv-x="555" 
d="M262 462c-89 0 -145 -78 -145 -204c0 -127 55 -204 146 -204c88 0 142 76 142 201c0 131 -53 207 -143 207zM132 -60c14 -85 101 -88 127 -88c46 0 85 15 109 40h-99v52h126c7 25 10 58 10 100v27c-47 -66 -93 -94 -159 -94c-119 0 -216 105 -216 276
c0 170 90 286 223 286c67 0 118 -29 160 -91v76h77v-438c0 -59 -3 -105 -11 -142h36v-52h-53c-31 -72 -105 -110 -206 -110c-123 0 -200 59 -209 158h85z" />
    <glyph glyph-name="Gcaron" unicode="&#x1e6;" horiz-adv-x="765" 
d="M431 775h-95l-96 125h63l81 -61l79 61h64zM133 362c0 -117 52 -303 261 -303c133 0 229 94 229 224v20h-222v82h304v-389h-59l-23 97c-71 -79 -150 -116 -249 -116c-197 0 -334 156 -334 380c0 146 70 384 350 384c167 0 279 -85 305 -233h-95c-20 94 -100 151 -211 151
c-154 0 -256 -118 -256 -297z" />
    <glyph glyph-name="gcaron" unicode="&#x1e7;" horiz-adv-x="550" 
d="M300 579h-95l-96 150h63l81 -96l79 96h64zM246 -23c-119 0 -216 105 -216 276c0 170 90 286 223 286c67 0 118 -29 160 -91l-10 76h87v-438c0 -182 -35 -304 -234 -304c-123 0 -200 59 -209 158h85c14 -85 101 -88 127 -88c118 0 146 72 146 192v27
c-47 -66 -93 -94 -159 -94zM262 462c-89 0 -145 -78 -145 -204c0 -127 55 -204 146 -204c88 0 142 76 142 201c0 131 -53 207 -143 207z" />
    <glyph glyph-name="uni01E8" unicode="&#x1e8;" horiz-adv-x="674" 
d="M414 775h-95l-96 125h63l81 -61l79 61h64zM173 255v-255h-93v729h93v-369l363 369h120l-297 -297l300 -432h-110l-257 374z" />
    <glyph glyph-name="kcaron" unicode="&#x1e9;" horiz-adv-x="514" 
d="M312 750h-95l-96 150h63l81 -96l79 96h64zM143 729v-427l222 222h107l-182 -181l214 -343h-103l-177 284l-81 -80v-204h-83v729h83z" />
    <glyph glyph-name="Oogonek" unicode="&#x1ea;" horiz-adv-x="784" 
d="M392 -221c-73 0 -132 36 -132 94c0 45 32 84 86 107c-185 21 -306 168 -306 379c0 228 142 382 351 382c214 0 353 -153 353 -388c0 -202 -124 -364 -328 -375c-64 -37 -83 -60 -83 -100c0 -35 25 -54 72 -54c24 0 45 3 63 10v-45c-24 -5 -57 -10 -76 -10zM391 659
c-154 0 -258 -120 -258 -300s104 -300 259 -300c154 0 259 120 259 296c0 184 -102 304 -260 304z" />
    <glyph glyph-name="oogonek" unicode="&#x1eb;" horiz-adv-x="534" 
d="M267 -221c-73 0 -132 36 -132 94c0 45 32 85 88 107c-122 20 -193 120 -193 278c0 176 89 281 236 281c151 0 238 -104 238 -285c0 -162 -80 -265 -213 -276c-64 -37 -83 -60 -83 -100c0 -35 25 -54 72 -54c24 0 45 3 63 10v-45c-24 -5 -57 -10 -76 -10zM267 462
c-93 0 -150 -78 -150 -204c0 -127 57 -204 150 -204c92 0 150 78 150 201c0 130 -56 207 -150 207z" />
    <glyph glyph-name="uni01EC" unicode="&#x1ec;" horiz-adv-x="784" 
d="M526 870v-70h-274v70h274zM392 -221c-73 0 -132 36 -132 94c0 45 32 84 86 107c-185 21 -306 168 -306 379c0 228 142 382 351 382c214 0 353 -153 353 -388c0 -202 -124 -364 -328 -375c-64 -37 -83 -60 -83 -100c0 -35 25 -54 72 -54c24 0 45 3 63 10v-45
c-24 -5 -57 -10 -76 -10zM391 659c-154 0 -258 -120 -258 -300s104 -300 259 -300c154 0 259 120 259 296c0 184 -102 304 -260 304z" />
    <glyph glyph-name="uni01ED" unicode="&#x1ed;" horiz-adv-x="534" 
d="M409 649v-70h-274v70h274zM267 -221c-73 0 -132 36 -132 94c0 45 32 85 88 107c-122 20 -193 120 -193 278c0 176 89 281 236 281c151 0 238 -104 238 -285c0 -162 -80 -265 -213 -276c-64 -37 -83 -60 -83 -100c0 -35 25 -54 72 -54c24 0 45 3 63 10v-45
c-24 -5 -57 -10 -76 -10zM267 462c-93 0 -150 -78 -150 -204c0 -127 57 -204 150 -204c92 0 150 78 150 201c0 130 -56 207 -150 207z" />
    <glyph glyph-name="uni01EE" unicode="&#x1ee;" horiz-adv-x="619" 
d="M366 775h-95l-96 125h63l81 -61l79 61h64zM333 466l141 181h-410v82h525v-84l-180 -232c87 -21 175 -58 175 -212v-3c-1 -134 -115 -221 -280 -221c-163 0 -253 75 -264 229h88c6 -103 69 -151 179 -151c105 0 187 53 187 142c0 137 -140 158 -237 158v75
c45 0 58 16 76 36z" />
    <glyph glyph-name="ezhcaron" unicode="&#x1ef;" horiz-adv-x="524" 
d="M305 579h-95l-96 150h63l81 -96l79 96h64zM308 276c115 -14 186 -78 186 -198c0 -134 -94 -221 -240 -221c-148 0 -223 75 -234 229h88c6 -103 53 -151 149 -151c92 0 147 53 147 142c0 85 -50 128 -147 128h-48v75l143 171h-292v73h391v-74z" />
    <glyph glyph-name="jcaron" unicode="&#x1f0;" horiz-adv-x="222" 
d="M70 524h83v-633c0 -71 -49 -109 -143 -109c-13 0 -18 1 -28 3v71c17 -1 17 -1 20 -1c51 0 68 17 68 69v600zM158 564h-95l-96 150h63l81 -96l79 96h64z" />
    <glyph glyph-name="DZ" unicode="&#x1f1;" horiz-adv-x="1297" 
d="M1265 729v-84l-436 -563h438v-82h-555v82l438 565h-410v82h525zM80 0v729h281c185 0 297 -138 297 -364c0 -227 -113 -365 -297 -365h-281zM173 82h172c144 0 220 98 220 282c0 186 -76 283 -220 283h-172v-565z" />
    <glyph glyph-name="Dz" unicode="&#x1f2;" horiz-adv-x="1178" 
d="M1134 524v-74l-311 -377h325v-73h-426v75l313 376h-292v73h391zM80 0v729h281c185 0 297 -138 297 -364c0 -227 -113 -365 -297 -365h-281zM173 82h172c144 0 220 98 220 282c0 186 -76 283 -220 283h-172v-565z" />
    <glyph glyph-name="uni01F3" unicode="&#x1f3;" horiz-adv-x="1042" 
d="M998 524v-74l-311 -377h325v-73h-426v75l313 376h-292v73h391zM499 729v-729h-74v69c-45 -65 -95 -92 -167 -92c-141 0 -228 109 -228 286c0 167 89 276 225 276c70 0 126 -28 161 -81v271h83zM269 461c-91 0 -152 -81 -152 -203s61 -203 153 -203c88 0 146 80 146 201
c0 125 -57 205 -147 205z" />
    <glyph glyph-name="Gacute" unicode="&#x1f4;" horiz-adv-x="765" 
d="M435 900h123l-164 -125h-65zM133 362c0 -117 52 -303 261 -303c133 0 229 94 229 224v20h-222v82h304v-389h-59l-23 97c-71 -79 -150 -116 -249 -116c-197 0 -334 156 -334 380c0 146 70 384 350 384c167 0 279 -85 305 -233h-95c-20 94 -100 151 -211 151
c-154 0 -256 -118 -256 -297z" />
    <glyph glyph-name="gacute" unicode="&#x1f5;" horiz-adv-x="550" 
d="M318 727h113l-149 -148h-60zM246 -23c-119 0 -216 105 -216 276c0 170 90 286 223 286c67 0 118 -29 160 -91l-10 76h87v-438c0 -182 -35 -304 -234 -304c-123 0 -200 59 -209 158h85c14 -85 101 -88 127 -88c118 0 146 72 146 192v27c-47 -66 -93 -94 -159 -94zM262 462
c-89 0 -145 -78 -145 -204c0 -127 55 -204 146 -204c88 0 142 76 142 201c0 131 -53 207 -143 207z" />
    <glyph glyph-name="Wynn" unicode="&#x1f7;" horiz-adv-x="609" 
d="M175 555v-326c92 60 298 189 298 354c0 48 -56 75 -97 75c-45 0 -123 -21 -201 -103zM175 132v-132h-95v727h95v-80c84 82 135 96 234 96c85 0 160 -65 160 -172c0 -215 -286 -376 -394 -439z" />
    <glyph glyph-name="uni01F8" unicode="&#x1f8;" horiz-adv-x="730" 
d="M365 900l106 -126h-65l-164 126h123zM650 729v-729h-105l-377 591v-591h-88v729h101l381 -596v596h88z" />
    <glyph glyph-name="uni01F9" unicode="&#x1f9;" horiz-adv-x="537" 
d="M245 740l96 -148h-60l-149 148h113zM60 524h77v-88c46 73 96 103 174 103c101 0 166 -56 166 -143v-396h-83v363c0 63 -42 103 -108 103c-86 0 -142 -70 -142 -177v-289h-84v524z" />
    <glyph glyph-name="Aringacute" unicode="&#x1fa;" horiz-adv-x="666" 
d="M315 900h123l-164 -125h-65zM335 784c59 0 106 -47 106 -106c0 -58 -48 -104 -106 -104s-106 48 -106 105s48 105 106 105zM335 722c-24 0 -44 -20 -44 -43c0 -24 20 -44 44 -44s44 20 44 43c0 25 -19 44 -44 44zM472 164h-281l-77 -164h-99l260 547h120l256 -547h-104z
M446 223l-112 249l-120 -249h232z" />
    <glyph glyph-name="aringacute" unicode="&#x1fb;" horiz-adv-x="543" 
d="M285 900h123l-164 -125h-65zM275 772c59 0 106 -47 106 -106c0 -58 -48 -104 -106 -104s-106 48 -106 105s48 105 106 105zM275 710c-24 0 -44 -20 -44 -43c0 -24 20 -44 44 -44s44 20 44 43c0 25 -19 44 -44 44zM53 369c5 142 116 170 210 170c129 0 197 -50 197 -143
v-308c0 -26 16 -41 45 -41c5 0 9 0 18 2v-63c-27 -7 -40 -9 -57 -9c-54 0 -80 24 -86 77c-59 -54 -112 -77 -178 -77c-106 0 -172 60 -172 155c0 140 107 152 260 172c66 8 87 23 87 58v22c0 50 -42 78 -117 78c-78 0 -116 -29 -123 -93h-84zM220 50c99 0 157 65 157 115v94
c-85 -39 -260 -10 -260 -125c0 -53 38 -84 103 -84z" />
    <glyph glyph-name="AEacute" unicode="&#x1fc;" horiz-adv-x="984" 
d="M655 900h123l-164 -125h-65zM472 214h-269l-85 -214h-103l299 729h622v-82h-371v-233h352v-82h-352v-250h389v-82h-482v214zM472 296v351h-100l-138 -351h238z" />
    <glyph glyph-name="aeacute" unicode="&#x1fd;" horiz-adv-x="871" 
d="M505 727h113l-149 -148h-60zM455 234c3 -146 92 -180 154 -180c67 0 114 36 138 105h84c-21 -114 -105 -182 -223 -182c-145 0 -188 100 -194 110c-75 -78 -138 -110 -216 -110c-102 0 -168 61 -168 155c0 131 107 158 260 171c68 6 87 20 87 59v22c0 51 -41 78 -118 78
s-115 -29 -122 -93h-84c5 142 117 170 208 170c85 0 144 -28 175 -82c36 51 101 82 173 82c97 0 177 -53 211 -138c15 -39 21 -87 21 -167h-386zM217 50c107 0 160 85 160 107v101c-99 -43 -260 -9 -260 -124c0 -52 38 -84 100 -84zM457 302h294c0 95 -59 160 -144 160
c-84 0 -143 -63 -150 -160z" />
    <glyph glyph-name="Oslashacute" unicode="&#x1fe;" horiz-adv-x="789" 
d="M435 900h123l-164 -125h-65zM35 19l81 89c-50 70 -76 155 -76 252c0 227 142 381 352 381c91 0 168 -27 230 -81l87 95l40 -36l-89 -97c54 -68 84 -162 84 -264c0 -227 -142 -381 -352 -381c-97 0 -175 29 -241 90l-77 -84zM179 176l384 419c-48 42 -106 64 -171 64
c-155 0 -259 -120 -259 -299c0 -69 16 -132 46 -184zM598 554l-387 -421c49 -49 110 -74 181 -74c155 0 259 120 259 299c0 75 -18 142 -53 196z" />
    <glyph glyph-name="oslashacute" unicode="&#x1ff;" horiz-adv-x="611" 
d="M339 727h113l-149 -148h-60zM521 511l-63 -71c30 -50 44 -106 44 -182c0 -176 -88 -281 -236 -281c-67 0 -123 21 -163 62l-61 -69l-32 28l66 74c-33 49 -48 108 -48 186c0 176 89 281 237 281c69 0 121 -20 166 -65l58 65zM397 371l-238 -269c29 -32 64 -48 106 -48
c93 0 150 78 150 204c0 44 -6 82 -18 113zM136 141l239 269c-26 33 -66 52 -110 52c-93 0 -150 -78 -150 -204c0 -47 7 -84 21 -117z" />
    <glyph glyph-name="Adblgrave" unicode="&#x200;" horiz-adv-x="666" 
d="M397 900l46 -125h-65l-104 125h123zM233 900l69 -125h-65l-127 125h123zM472 219h-281l-77 -219h-99l260 729h120l256 -729h-104zM446 297l-112 332l-120 -332h232z" />
    <glyph glyph-name="adblgrave" unicode="&#x201;" horiz-adv-x="543" 
d="M333 729l51 -150h-60l-104 150h113zM164 729l76 -150h-60l-129 150h113zM53 369c5 142 116 170 210 170c129 0 197 -50 197 -143v-308c0 -26 16 -41 45 -41c5 0 9 0 18 2v-63c-27 -7 -40 -9 -57 -9c-54 0 -80 24 -86 77c-59 -54 -112 -77 -178 -77
c-106 0 -172 60 -172 155c0 140 107 152 260 172c66 8 87 23 87 58v22c0 50 -42 78 -117 78c-78 0 -116 -29 -123 -93h-84zM220 50c99 0 157 65 157 115v94c-85 -39 -260 -10 -260 -125c0 -53 38 -84 103 -84z" />
    <glyph glyph-name="Ainvertedbreve" unicode="&#x202;" horiz-adv-x="666" 
d="M485 765h-59c-5 44 -35 66 -92 66c-54 0 -87 -24 -91 -66h-59c7 89 59 135 152 135c61 0 146 -24 149 -135zM472 219h-281l-77 -219h-99l260 729h120l256 -729h-104zM446 297l-112 332l-120 -332h232z" />
    <glyph glyph-name="ainvertedbreve" unicode="&#x203;" horiz-adv-x="543" 
d="M420 579h-59c-5 44 -35 66 -92 66c-54 0 -87 -24 -91 -66h-59c7 89 59 135 152 135c61 0 146 -24 149 -135zM53 369c5 142 116 170 210 170c129 0 197 -50 197 -143v-308c0 -26 16 -41 45 -41c5 0 9 0 18 2v-63c-27 -7 -40 -9 -57 -9c-54 0 -80 24 -86 77
c-59 -54 -112 -77 -178 -77c-106 0 -172 60 -172 155c0 140 107 152 260 172c66 8 87 23 87 58v22c0 50 -42 78 -117 78c-78 0 -116 -29 -123 -93h-84zM220 50c99 0 157 65 157 115v94c-85 -39 -260 -10 -260 -125c0 -53 38 -84 103 -84z" />
    <glyph glyph-name="Edblgrave" unicode="&#x204;" horiz-adv-x="633" 
d="M427 900l46 -125h-65l-104 125h123zM263 900l69 -125h-65l-127 125h123zM173 332v-250h430v-82h-523v729h505v-82h-412v-233h397v-82h-397z" />
    <glyph glyph-name="edblgrave" unicode="&#x205;" horiz-adv-x="533" 
d="M346 729l51 -150h-60l-104 150h113zM177 729l76 -150h-60l-129 150h113zM503 234h-386c2 -107 57 -180 154 -180c67 0 114 36 137 105h84c-21 -114 -104 -182 -224 -182c-147 0 -238 106 -238 278s94 284 240 284c162 0 233 -115 233 -305zM119 302h295
c0 90 -59 160 -145 160c-84 0 -143 -63 -150 -160z" />
    <glyph glyph-name="Einvertedbreve" unicode="&#x206;" horiz-adv-x="633" 
d="M490 765h-59c-5 44 -35 66 -92 66c-54 0 -87 -24 -91 -66h-59c7 89 59 135 152 135c61 0 146 -24 149 -135zM173 332v-250h430v-82h-523v729h505v-82h-412v-233h397v-82h-397z" />
    <glyph glyph-name="einvertedbreve" unicode="&#x207;" horiz-adv-x="533" 
d="M430 579h-59c-5 44 -35 66 -92 66c-54 0 -87 -24 -91 -66h-59c7 89 59 135 152 135c61 0 146 -24 149 -135zM503 234h-386c2 -107 57 -180 154 -180c67 0 114 36 137 105h84c-21 -114 -104 -182 -224 -182c-147 0 -238 106 -238 278s94 284 240 284
c162 0 233 -115 233 -305zM119 302h295c0 90 -59 160 -145 160c-84 0 -143 -63 -150 -160z" />
    <glyph glyph-name="Idblgrave" unicode="&#x208;" horiz-adv-x="300" 
d="M254 900l46 -125h-65l-104 125h123zM90 900l69 -125h-65l-127 125h123zM194 729v-729h-94v729h94z" />
    <glyph glyph-name="idblgrave" unicode="&#x209;" horiz-adv-x="262" 
d="M211 729l51 -150h-60l-104 150h113zM42 729l76 -150h-60l-129 150h113zM173 524v-524h-83v524h83z" />
    <glyph glyph-name="Iinvertedbreve" unicode="&#x20a;" horiz-adv-x="300" 
d="M300 765h-59c-5 44 -35 66 -92 66c-54 0 -87 -24 -91 -66h-59c7 89 59 135 152 135c61 0 146 -24 149 -135zM197 729v-729h-94v729h94z" />
    <glyph glyph-name="iinvertedbreve" unicode="&#x20b;" horiz-adv-x="262" 
d="M282 579h-59c-5 44 -35 66 -92 66c-54 0 -87 -24 -91 -66h-59c7 89 59 135 152 135c61 0 146 -24 149 -135zM173 524v-524h-83v524h83z" />
    <glyph glyph-name="Odblgrave" unicode="&#x20c;" horiz-adv-x="784" 
d="M467 900l46 -125h-65l-104 125h123zM303 900l69 -125h-65l-127 125h123zM744 353c0 -210 -134 -376 -352 -376c-210 0 -352 154 -352 382s142 382 351 382c214 0 353 -153 353 -388zM391 659c-154 0 -258 -120 -258 -300s104 -300 259 -300c154 0 259 120 259 296
c0 184 -102 304 -260 304z" />
    <glyph glyph-name="odblgrave" unicode="&#x20d;" horiz-adv-x="534" 
d="M325 729l51 -150h-60l-104 150h113zM156 729l76 -150h-60l-129 150h113zM266 539c151 0 238 -104 238 -285c0 -172 -90 -277 -237 -277c-149 0 -237 105 -237 281s89 281 236 281zM267 462c-93 0 -150 -78 -150 -204c0 -127 57 -204 150 -204c92 0 150 78 150 201
c0 130 -56 207 -150 207z" />
    <glyph glyph-name="Oinvertedbreve" unicode="&#x20e;" horiz-adv-x="784" 
d="M540 765h-59c-5 44 -35 66 -92 66c-54 0 -87 -24 -91 -66h-59c7 89 59 135 152 135c61 0 146 -24 149 -135zM744 353c0 -210 -134 -376 -352 -376c-210 0 -352 154 -352 382s142 382 351 382c214 0 353 -153 353 -388zM391 659c-154 0 -258 -120 -258 -300
s104 -300 259 -300c154 0 259 120 259 296c0 184 -102 304 -260 304z" />
    <glyph glyph-name="oinvertedbreve" unicode="&#x20f;" horiz-adv-x="534" 
d="M425 579h-59c-5 44 -35 66 -92 66c-54 0 -87 -24 -91 -66h-59c7 89 59 135 152 135c61 0 146 -24 149 -135zM266 539c151 0 238 -104 238 -285c0 -172 -90 -277 -237 -277c-149 0 -237 105 -237 281s89 281 236 281zM267 462c-93 0 -150 -78 -150 -204
c0 -127 57 -204 150 -204c92 0 150 78 150 201c0 130 -56 207 -150 207z" />
    <glyph glyph-name="Rdblgrave" unicode="&#x210;" horiz-adv-x="709" 
d="M407 900l46 -125h-65l-104 125h123zM243 900l69 -125h-65l-127 125h123zM523 360c91 -39 100 -105 100 -171c0 -17 -1 -35 -1 -51c0 -47 5 -89 44 -115v-23h-113c-13 30 -20 74 -20 119v65c0 90 -37 130 -120 130h-240v-314h-93v729h336c143 0 222 -69 222 -195
c0 -83 -33 -134 -115 -174zM541 521c0 104 -65 126 -143 126h-225v-251h225c99 0 143 39 143 125z" />
    <glyph glyph-name="rdblgrave" unicode="&#x211;" horiz-adv-x="332" 
d="M261 729l51 -150h-60l-104 150h113zM92 729l76 -150h-60l-129 150h113zM312 451c-101 -2 -168 -32 -168 -179v-272h-84v524h77v-95c48 78 89 110 143 110c11 0 18 -1 32 -3v-85z" />
    <glyph glyph-name="Rinvertedbreve" unicode="&#x212;" horiz-adv-x="709" 
d="M501 765h-59c-5 44 -35 66 -92 66c-54 0 -87 -24 -91 -66h-59c7 89 59 135 152 135c61 0 146 -24 149 -135zM523 360c91 -39 100 -105 100 -171c0 -17 -1 -35 -1 -51c0 -47 5 -89 44 -115v-23h-113c-13 30 -20 74 -20 119v65c0 90 -37 130 -120 130h-240v-314h-93v729
h336c143 0 222 -69 222 -195c0 -83 -33 -134 -115 -174zM541 521c0 104 -65 126 -143 126h-225v-251h225c99 0 143 39 143 125z" />
    <glyph glyph-name="rinvertedbreve" unicode="&#x213;" horiz-adv-x="332" 
d="M346 579h-59c-5 44 -35 66 -92 66c-54 0 -87 -24 -91 -66h-59c7 89 59 135 152 135c61 0 146 -24 149 -135zM312 451c-101 -2 -168 -32 -168 -179v-272h-84v524h77v-95c48 78 89 110 143 110c11 0 18 -1 32 -3v-85z" />
    <glyph glyph-name="Udblgrave" unicode="&#x214;" horiz-adv-x="720" 
d="M427 900l46 -125h-65l-104 125h123zM263 900l69 -125h-65l-127 125h123zM547 729h93v-512c0 -146 -110 -240 -281 -240c-173 0 -279 92 -279 240v512h93v-512c0 -110 79 -158 186 -158c117 0 188 60 188 158v512z" />
    <glyph glyph-name="udblgrave" unicode="&#x215;" horiz-adv-x="537" 
d="M366 729l51 -150h-60l-104 150h113zM197 729l76 -150h-60l-129 150h113zM477 0h-75v73c-49 -69 -98 -96 -175 -96c-102 0 -167 56 -167 143v404h83v-371c0 -63 42 -103 108 -103c87 0 143 70 143 177v297h83v-524z" />
    <glyph glyph-name="Uinvertedbreve" unicode="&#x216;" horiz-adv-x="720" 
d="M516 765h-59c-5 44 -35 66 -92 66c-54 0 -87 -24 -91 -66h-59c7 89 59 135 152 135c61 0 146 -24 149 -135zM547 729h93v-512c0 -146 -110 -240 -281 -240c-173 0 -279 92 -279 240v512h93v-512c0 -110 79 -158 186 -158c117 0 188 60 188 158v512z" />
    <glyph glyph-name="uinvertedbreve" unicode="&#x217;" horiz-adv-x="537" 
d="M424 579h-59c-5 44 -35 66 -92 66c-54 0 -87 -24 -91 -66h-59c7 89 59 135 152 135c61 0 146 -24 149 -135zM477 0h-75v73c-49 -69 -98 -96 -175 -96c-102 0 -167 56 -167 143v404h83v-371c0 -63 42 -103 108 -103c87 0 143 70 143 177v297h83v-524z" />
    <glyph glyph-name="Scommaaccent" unicode="&#x218;" horiz-adv-x="667" 
d="M285 -76h100v-103c0 -74 -37 -121 -98 -121h-2v38c36 0 55 28 55 78v8h-55v100zM342 59c158 0 186 80 186 132c0 57 -42 94 -134 118l-181 48c-96 25 -143 81 -143 170c0 132 99 214 259 214c168 0 266 -83 267 -226h-88c-1 95 -66 148 -182 148
c-98 0 -163 -49 -163 -123c0 -56 32 -84 120 -108l183 -49c99 -27 155 -93 155 -183c0 -89 -57 -223 -285 -223c-126 0 -285 48 -288 255h88v-5c0 -74 41 -168 206 -168z" />
    <glyph glyph-name="scommaaccent" unicode="&#x219;" horiz-adv-x="493" 
d="M195 -76h100v-103c0 -74 -37 -121 -98 -121h-2v38c36 0 55 28 55 78v8h-55v100zM122 156c7 -51 26 -102 128 -102c73 0 122 33 122 82c0 38 -23 59 -81 73l-78 19c-124 30 -166 69 -166 151c0 97 79 160 201 160c121 0 189 -58 190 -161h-88c-2 55 -38 84 -105 84
c-68 0 -111 -31 -111 -79c0 -37 29 -59 97 -75l80 -19c104 -25 148 -68 148 -146c0 -101 -84 -166 -216 -166c-137 0 -205 58 -209 179h88z" />
    <glyph glyph-name="uni021A" unicode="&#x21a;" horiz-adv-x="632" 
d="M255 -76h100v-103c0 -74 -37 -121 -98 -121h-2v38c36 0 55 28 55 78v8h-55v100zM363 647v-647h-93v647h-240v82h572v-82h-239z" />
    <glyph glyph-name="uni021B" unicode="&#x21b;" horiz-adv-x="280" 
d="M95 -76h100v-103c0 -74 -37 -121 -98 -121h-2v38c36 0 55 28 55 78v8h-55v100zM260 524v-68h-86v-359c0 -37 10 -47 46 -47c16 0 29 1 40 4v-70c-28 -5 -48 -7 -68 -7c-65 0 -101 30 -101 83v396h-71v68h71v144h83v-144h86z" />
    <glyph glyph-name="uni021C" unicode="&#x21c;" horiz-adv-x="539" 
d="M263 632c-112 0 -133 -75 -135 -152h-88c3 151 79 229 222 229c135 0 216 -73 216 -195c0 -71 -45 -126 -77 -144c32 -16 98 -56 98 -172c0 -168 -204 -226 -431 -298l-22 87c112 28 363 133 363 210c0 86 -38 99 -82 119c-56 -30 -96 -44 -155 -62l-20 75
c107 44 236 90 236 182c0 75 -47 121 -125 121z" />
    <glyph glyph-name="uni021D" unicode="&#x21d;" horiz-adv-x="414" 
d="M198 464c-50 0 -92 -38 -92 -104h-86c0 105 70 182 177 182c101 0 172 -65 172 -156c0 -59 -31 -97 -55 -110c24 -12 70 -40 70 -128c0 -126 -162 -178 -332 -232l-17 74s262 62 262 158c0 41 -8 56 -47 81c-42 -23 -76 -34 -120 -47l-17 69c81 33 168 63 168 132
c0 57 -34 81 -83 81z" />
    <glyph glyph-name="uni021E" unicode="&#x21e;" horiz-adv-x="721" 
d="M411 775h-95l-96 125h63l81 -61l79 61h64zM548 332h-375v-332h-93v729h93v-315h375v315h93v-729h-93v332z" />
    <glyph glyph-name="uni021F" unicode="&#x21f;" horiz-adv-x="536" 
d="M344 750h-95l-96 150h63l81 -96l79 96h64zM393 363c0 82 -65 103 -108 103c-86 0 -142 -70 -142 -177v-289h-83v729h83v-277c49 64 94 87 168 87c102 0 165 -55 165 -143v-396h-83v363z" />
    <glyph glyph-name="uni0220" unicode="&#x220;" horiz-adv-x="720" 
d="M173 0h-93v729h93v-40c48 33 112 52 188 52c173 0 279 -92 279 -240v-720h-93v720c0 110 -79 158 -186 158c-117 0 -188 -60 -188 -158v-501z" />
    <glyph glyph-name="uni0224" unicode="&#x224;" horiz-adv-x="615" 
d="M583 729v-84l-436 -563h438v-189c0 -71 -50 -109 -144 -109c-13 0 -18 1 -28 3v71c17 -1 17 -1 20 -1c51 0 68 17 68 69v74h-471v82l438 565h-410v82h525z" />
    <glyph glyph-name="uni0225" unicode="&#x225;" horiz-adv-x="486" 
d="M372 0h-342v75l313 376h-292v73h391v-74l-311 -377h325v-180c0 -71 -50 -109 -144 -109c-13 0 -18 1 -28 3v71c17 -1 17 -1 20 -1c51 0 68 17 68 69v74z" />
    <glyph glyph-name="A_dotaccent" unicode="&#x226;" horiz-adv-x="666" 
d="M389 900v-104h-104v104h104zM472 219h-281l-77 -219h-99l260 729h120l256 -729h-104zM446 297l-112 332l-120 -332h232z" />
    <glyph glyph-name="a_dotaccent" unicode="&#x227;" horiz-adv-x="543" 
d="M327 729v-104h-104v104h104zM53 369c5 142 116 170 210 170c129 0 197 -50 197 -143v-308c0 -26 16 -41 45 -41c5 0 9 0 18 2v-63c-27 -7 -40 -9 -57 -9c-54 0 -80 24 -86 77c-59 -54 -112 -77 -178 -77c-106 0 -172 60 -172 155c0 140 107 152 260 172c66 8 87 23 87 58
v22c0 50 -42 78 -117 78c-78 0 -116 -29 -123 -93h-84zM220 50c99 0 157 65 157 115v94c-85 -39 -260 -10 -260 -125c0 -53 38 -84 103 -84z" />
    <glyph glyph-name="uni0228" unicode="&#x228;" horiz-adv-x="633" 
d="M218 -133c39 -17 61 -33 98 -33c31 0 54 19 54 45c0 23 -17 37 -46 37c-12 0 -19 -2 -31 -8l-12 7l39 85h-240v729h505v-82h-412v-233h397v-82h-397v-250h430v-82h-245l-20 -49c13 2 20 2 28 2c50 0 79 -24 79 -67c0 -57 -47 -93 -123 -93c-39 0 -63 7 -125 34z" />
    <glyph glyph-name="uni0229" unicode="&#x229;" horiz-adv-x="533" 
d="M144 -156c39 -17 61 -33 98 -33c31 0 54 19 54 45c0 23 -17 37 -46 37c-12 0 -19 -2 -31 -8l-12 7l39 86c-134 10 -216 114 -216 277c0 172 94 284 240 284c98 0 178 -52 212 -138c15 -39 21 -87 21 -167h-386c1 -52 8 -82 28 -112c28 -44 73 -68 126 -68
c67 0 114 36 137 105h84c-20 -109 -97 -176 -208 -182l-20 -49c13 2 20 2 28 2c50 0 79 -24 79 -67c0 -57 -47 -93 -123 -93c-39 0 -63 7 -125 34zM119 302h294c1 2 1 4 1 6c0 86 -63 154 -145 154c-84 0 -143 -63 -150 -160z" />
    <glyph glyph-name="uni022A" unicode="&#x22a;" horiz-adv-x="784" 
d="M534 864v-104h-104v104h104zM355 864v-104h-104v104h104zM744 353c0 -210 -134 -376 -352 -376c-210 0 -352 154 -352 382s142 382 351 382c214 0 353 -153 353 -388zM391 659c-154 0 -258 -120 -258 -300s104 -300 259 -300c154 0 259 120 259 296
c0 184 -102 304 -260 304zM528 965v-70h-274v70h274z" />
    <glyph glyph-name="uni022B" unicode="&#x22b;" horiz-adv-x="534" 
d="M417 679v-104h-104v104h104zM238 679v-104h-104v104h104zM266 539c151 0 238 -104 238 -285c0 -172 -90 -277 -237 -277c-149 0 -237 105 -237 281s89 281 236 281zM267 462c-93 0 -150 -78 -150 -204c0 -127 57 -204 150 -204c92 0 150 78 150 201
c0 130 -56 207 -150 207zM415 800v-70h-274v70h274z" />
    <glyph glyph-name="uni022C" unicode="&#x22c;" horiz-adv-x="784" 
d="M533 998v-70h-274v70h274zM318 882c49 0 92 -37 133 -37c18 0 29 12 37 37h58c-10 -69 -40 -104 -89 -104c-37 0 -105 38 -134 38c-15 0 -27 -14 -33 -37h-58c11 66 42 103 86 103zM744 353c0 -210 -134 -376 -352 -376c-210 0 -352 154 -352 382s142 382 351 382
c214 0 353 -153 353 -388zM391 659c-154 0 -258 -120 -258 -300s104 -300 259 -300c154 0 259 120 259 296c0 184 -102 304 -260 304z" />
    <glyph glyph-name="uni022D" unicode="&#x22d;" horiz-adv-x="534" 
d="M201 678c49 0 92 -37 133 -37c18 0 29 12 37 37h58c-10 -69 -40 -104 -89 -104c-37 0 -105 38 -134 38c-15 0 -27 -14 -33 -37h-58c11 66 42 103 86 103zM266 539c151 0 238 -104 238 -285c0 -172 -90 -277 -237 -277c-149 0 -237 105 -237 281s89 281 236 281zM267 462
c-93 0 -150 -78 -150 -204c0 -127 57 -204 150 -204c92 0 150 78 150 201c0 130 -56 207 -150 207zM416 800v-70h-274v70h274z" />
    <glyph glyph-name="uni022E" unicode="&#x22e;" horiz-adv-x="784" 
d="M441 900v-104h-104v104h104zM744 353c0 -210 -134 -376 -352 -376c-210 0 -352 154 -352 382s142 382 351 382c214 0 353 -153 353 -388zM391 659c-154 0 -258 -120 -258 -300s104 -300 259 -300c154 0 259 120 259 296c0 184 -102 304 -260 304z" />
    <glyph glyph-name="uni022F" unicode="&#x22f;" horiz-adv-x="534" 
d="M324 701v-104h-104v104h104zM266 539c151 0 238 -104 238 -285c0 -172 -90 -277 -237 -277c-149 0 -237 105 -237 281s89 281 236 281zM267 462c-93 0 -150 -78 -150 -204c0 -127 57 -204 150 -204c92 0 150 78 150 201c0 130 -56 207 -150 207z" />
    <glyph glyph-name="uni0230" unicode="&#x230;" horiz-adv-x="784" 
d="M441 880v-104h-104v104h104zM744 353c0 -210 -134 -376 -352 -376c-210 0 -352 154 -352 382s142 382 351 382c214 0 353 -153 353 -388zM391 659c-154 0 -258 -120 -258 -300s104 -300 259 -300c154 0 259 120 259 296c0 184 -102 304 -260 304zM526 985v-70h-274v70
h274z" />
    <glyph glyph-name="uni0231" unicode="&#x231;" horiz-adv-x="534" 
d="M324 687v-104h-104v104h104zM266 539c151 0 238 -104 238 -285c0 -172 -90 -277 -237 -277c-149 0 -237 105 -237 281s89 281 236 281zM267 462c-93 0 -150 -78 -150 -204c0 -127 57 -204 150 -204c92 0 150 78 150 201c0 130 -56 207 -150 207zM409 802v-70h-274v70h274
z" />
    <glyph glyph-name="uni0232" unicode="&#x232;" horiz-adv-x="678" 
d="M474 851v-70h-274v70h274zM389 286v-286h-93v286l-281 443h115l214 -355l208 355h111z" />
    <glyph glyph-name="uni0233" unicode="&#x233;" horiz-adv-x="478" 
d="M386 649v-70h-274v70h274zM378 524h90l-233 -634c-29 -77 -78 -108 -135 -108c-22 0 -39 4 -56 13v75c18 -4 32 -6 44 -6c35 0 53 14 67 51l32 83l-177 526h89l134 -408z" />
    <glyph glyph-name="dotlessj" unicode="&#x237;" horiz-adv-x="222" 
d="M70 524h83v-633c0 -71 -49 -109 -143 -109c-13 0 -18 1 -28 3v71c17 -1 17 -1 20 -1c51 0 68 17 68 69v600z" />
    <glyph glyph-name="uni0238" unicode="&#x238;" horiz-adv-x="915" 
d="M269 461c-91 0 -152 -81 -152 -203s61 -203 153 -203c88 0 146 80 146 201c0 125 -57 205 -147 205zM499 258c0 -123 58 -203 146 -203c91 0 153 81 153 200c0 125 -60 206 -153 206c-88 0 -146 -80 -146 -203zM416 458v271h83v-276c39 59 90 86 162 86
c138 0 224 -105 224 -275c0 -174 -90 -287 -228 -287c-73 0 -126 29 -166 90v-67h-66v69c-45 -65 -95 -92 -167 -92c-141 0 -228 109 -228 286c0 167 89 276 225 276c70 0 126 -28 161 -81z" />
    <glyph glyph-name="uni0239" unicode="&#x239;" horiz-adv-x="914" 
d="M270 461c-92 0 -153 -82 -153 -203c0 -122 61 -203 153 -203c88 0 146 80 146 200c0 126 -57 206 -146 206zM499 258c0 -123 58 -203 146 -203c91 0 152 81 152 200c0 125 -60 206 -152 206c-88 0 -146 -80 -146 -203zM499 -218h-84v278c-39 -57 -88 -83 -161 -83
c-138 0 -224 105 -224 275c0 174 90 287 228 287c69 0 128 -30 167 -85v70h67v-79c39 62 96 94 167 94c139 0 225 -110 225 -286c0 -167 -89 -276 -224 -276c-68 0 -117 24 -161 78v-273z" />
    <glyph glyph-name="aturn" unicode="&#x250;" horiz-adv-x="543" 
d="M490 147c-5 -142 -116 -170 -210 -170c-129 0 -197 50 -197 143v308c0 26 -16 41 -45 41c-5 0 -9 0 -18 -2v63c27 7 40 9 57 9c54 0 80 -24 86 -77c59 54 112 77 178 77c106 0 172 -60 172 -155c0 -140 -107 -152 -260 -172c-66 -8 -87 -23 -87 -58v-22
c0 -50 42 -78 117 -78c78 0 116 29 123 93h84zM323 466c-99 0 -157 -65 -157 -115v-94c85 39 260 10 260 125c0 53 -38 84 -103 84z" />
    <glyph glyph-name="ascript" unicode="&#x251;" horiz-adv-x="572" 
d="M401 263c0 109 -52 208 -149 208c-89 0 -135 -108 -135 -210c0 -103 60 -201 152 -201c91 0 132 100 132 203zM237 -14c-91 0 -207 105 -207 272c0 154 70 280 220 280c60 0 112 -27 156 -80v66h83v-436c0 -26 16 -41 45 -41c5 0 9 0 18 2v-63c-27 -7 -40 -9 -57 -9
c-52 0 -81 21 -88 80c-47 -45 -89 -69 -170 -71z" />
    <glyph glyph-name="ascriptturn" unicode="&#x252;" horiz-adv-x="572" 
d="M171 261c0 -109 52 -208 149 -208c89 0 135 108 135 210c0 103 -60 201 -152 201c-91 0 -132 -100 -132 -203zM335 538c91 0 207 -105 207 -272c0 -154 -70 -280 -220 -280c-60 0 -112 27 -156 80v-66h-83v436c0 26 -16 41 -45 41c-5 0 -9 0 -18 -2v63c27 7 40 9 57 9
c52 0 81 -21 88 -80c47 45 89 69 170 71z" />
    <glyph glyph-name="bhook" unicode="&#x253;" horiz-adv-x="559" 
d="M289 461c-88 0 -146 -80 -146 -203s58 -203 146 -203c91 0 153 81 153 200c0 125 -60 206 -153 206zM60 0v613c0 75 46 119 123 119c17 0 28 -1 47 -5v-69c-19 1 -22 1 -29 1c-38 0 -58 -18 -58 -53v-153c39 59 90 86 162 86c138 0 224 -105 224 -275
c0 -174 -90 -287 -228 -287c-73 0 -126 29 -166 90v-67h-75z" />
    <glyph glyph-name="cturn" unicode="&#x254;" horiz-adv-x="506" 
d="M36 168h84c10 -73 54 -114 124 -114c91 0 145 78 145 209c0 124 -55 199 -147 199c-71 0 -114 -42 -128 -126h-84c10 128 89 203 214 203c142 0 232 -107 232 -276c0 -174 -92 -286 -233 -286c-120 0 -197 66 -207 191z" />
    <glyph glyph-name="ccurl" unicode="&#x255;" horiz-adv-x="501" 
d="M264 54c74 0 124 19 124 48c-3 29 -7 48 -56 48c-27 0 -58 -11 -138 -77c20 -13 43 -19 70 -19zM464 98c0 -51 -38 -121 -200 -121c-52 0 -97 14 -134 41c-25 -22 -49 -43 -71 -60l-48 60l68 54c-31 47 -48 108 -48 181c0 174 92 286 233 286c120 0 197 -66 207 -191h-84
c-10 73 -54 114 -124 114c-91 0 -145 -78 -145 -209c0 -51 9 -94 27 -126c96 80 116 101 180 101c56 0 139 -19 139 -130z" />
    <glyph glyph-name="dtail" unicode="&#x256;" horiz-adv-x="602" 
d="M269 461c-91 0 -152 -81 -152 -203s61 -203 153 -203c88 0 146 80 146 201c0 125 -57 205 -147 205zM425 69c-45 -65 -95 -92 -167 -92c-141 0 -228 109 -228 286c0 167 89 276 225 276c70 0 126 -28 161 -81v271h83v-805c0 -52 22 -69 73 -69c3 0 3 0 20 1v-71
c-10 -2 -15 -3 -28 -3c-94 0 -139 38 -139 109v178z" />
    <glyph glyph-name="dhook" unicode="&#x257;" horiz-adv-x="596" 
d="M269 461c-91 0 -152 -81 -152 -203s61 -203 153 -203c88 0 146 80 146 201c0 125 -57 205 -147 205zM499 606v-606h-74v69c-45 -65 -95 -92 -167 -92c-141 0 -228 109 -228 286c0 167 89 276 225 276c70 0 126 -28 161 -81v155c0 75 46 119 123 119c17 0 28 -1 47 -5v-69
c-19 1 -22 1 -29 1c-38 0 -58 -18 -58 -53z" />
    <glyph glyph-name="erev" unicode="&#x258;" horiz-adv-x="533" 
d="M30 234c2 156 50 305 233 305c145 0 240 -112 240 -284s-91 -278 -238 -278c-120 0 -203 68 -224 182h84c23 -69 70 -105 137 -105c52 0 151 25 154 180h-386zM414 302c-7 97 -66 160 -150 160c-78 0 -142 -64 -145 -160h295z" />
    <glyph glyph-name="schwa" unicode="&#x259;" horiz-adv-x="533" 
d="M30 282h386c-2 107 -57 180 -154 180c-67 0 -114 -36 -137 -105h-84c21 114 104 182 224 182c147 0 238 -106 238 -278s-94 -284 -240 -284c-162 0 -233 115 -233 305zM414 214h-295c0 -90 59 -160 145 -160c84 0 143 63 150 160z" />
    <glyph glyph-name="schwahook" unicode="&#x25a;" horiz-adv-x="784" 
d="M414 214h-295c0 -111 78 -160 145 -160c84 0 143 63 150 160zM30 282h386c-3 157 -105 180 -154 180c-67 0 -114 -36 -137 -105h-84c21 114 104 182 224 182c67 0 122 -22 163 -62l89 93h69c32 -83 64 -252 97 -252c39 0 58 38 81 75v-114c-24 -24 -48 -45 -87 -45
c-63 0 -111 136 -140 258l-69 -71c23 -43 35 -97 35 -160c0 -172 -94 -284 -240 -284c-233 0 -233 221 -233 305z" />
    <glyph glyph-name="epsilonlatin" unicode="&#x25b;" horiz-adv-x="485" 
d="M367 156h88c-4 -121 -72 -179 -209 -179c-132 0 -216 65 -216 166c0 60 27 98 86 124c-46 26 -65 59 -65 112c0 97 79 160 201 160c121 0 189 -58 190 -161h-88c-2 55 -38 84 -105 84c-68 0 -111 -31 -111 -79c0 -37 27 -86 97 -86h62v-76h-74c-60 0 -102 -47 -102 -85
c0 -49 45 -82 118 -82c102 0 121 51 128 102z" />
    <glyph glyph-name="epsilonlatinrev" unicode="&#x25c;" horiz-adv-x="485" 
d="M118 156c7 -51 26 -102 128 -102c73 0 118 33 118 82c0 38 -42 85 -102 85h-74v76h62c70 0 97 49 97 86c0 48 -43 79 -111 79c-67 0 -103 -29 -105 -84h-88c1 103 69 161 190 161c122 0 201 -63 201 -160c0 -53 -19 -86 -65 -112c59 -26 86 -64 86 -124
c0 -101 -84 -166 -216 -166c-137 0 -205 58 -209 179h88z" />
    <glyph glyph-name="epsilonlatinrevhook" unicode="&#x25d;" horiz-adv-x="736" 
d="M118 156c7 -51 26 -102 128 -102c73 0 118 33 118 82c0 38 -42 85 -102 85h-74v76h62c70 0 97 49 97 86c0 48 -43 79 -111 79c-67 0 -103 -29 -105 -84h-88c1 103 69 161 190 161c64 0 116 -17 151 -48l85 79h69c32 -83 63 -252 99 -252c39 0 56 38 79 75v-114
c-24 -24 -48 -45 -87 -45c-73 0 -107 134 -140 258c0 -2 -35 -37 -62 -64c4 -15 7 -32 7 -49c0 -53 -19 -86 -65 -112c59 -26 86 -64 86 -124c0 -101 -84 -166 -216 -166c-137 0 -205 58 -209 179h88z" />
    <glyph glyph-name="epsilonlatinrevclosed" unicode="&#x25e;" horiz-adv-x="505" 
d="M30 270c1 171 50 269 220 269c122 0 204 -63 204 -160c0 -53 -19 -86 -65 -112c59 -26 86 -64 86 -124c0 -101 -81 -166 -213 -166c-158 0 -232 76 -232 289v4zM253 462c-91 0 -134 -45 -134 -204c0 -146 46 -204 150 -204c73 0 115 33 115 82c0 38 -42 85 -102 85h-53
v76h41c70 0 97 49 97 86c0 48 -46 79 -114 79z" />
    <glyph glyph-name="jdotlessbar" unicode="&#x25f;" horiz-adv-x="288" 
d="M108 524h83v-212h77v-72h-77v-349c0 -71 -49 -109 -143 -109c-13 0 -18 1 -28 3v71c17 -1 17 -1 20 -1c51 0 68 17 68 69v316h-78v72h78v212z" />
    <glyph glyph-name="ghook" unicode="&#x260;" horiz-adv-x="587" 
d="M262 462c-89 0 -145 -78 -145 -204c0 -127 55 -204 146 -204c88 0 142 76 142 201c0 131 -53 207 -143 207zM259 -148c118 0 146 71 146 192v27c-47 -66 -93 -94 -159 -94c-119 0 -216 105 -216 276c0 170 90 286 223 286c67 0 118 -29 160 -91v83c0 75 40 119 117 119
c17 0 28 -1 47 -5v-69c-19 1 -22 1 -29 1c-38 0 -58 -13 -58 -53v-438c0 -182 -35 -304 -234 -304c-123 0 -200 59 -209 158h85c14 -85 101 -88 127 -88z" />
    <glyph glyph-name="gscript" unicode="&#x261;" horiz-adv-x="557" 
d="M262 462c-89 0 -145 -78 -145 -204c0 -127 55 -204 146 -204c88 0 142 76 142 201c0 131 -53 207 -143 207zM246 -23c-119 0 -216 105 -216 276c0 170 90 286 223 286c66 0 117 -28 158 -89c4 44 27 81 70 81c22 0 42 -4 61 -11l-14 -72c-7 2 -12 3 -16 3
c-15 0 -22 -12 -22 -37v-328c0 -182 -35 -304 -234 -304c-123 0 -200 59 -209 158h85c14 -85 101 -88 127 -88c118 0 146 72 146 192v27c-47 -66 -93 -94 -159 -94z" />
    <glyph glyph-name="Gsmallcap" unicode="&#x262;" horiz-adv-x="562" 
d="M117 255c0 -116 35 -203 175 -203c52 0 142 55 142 151v15h-137v61h225v-288h-44l-17 72c-52 -59 -111 -86 -184 -86c-146 0 -247 112 -247 278c0 108 52 284 259 284c124 0 206 -63 226 -172h-86c-15 69 -59 95 -141 95c-114 0 -171 -75 -171 -207z" />
    <glyph glyph-name="gammalatin" unicode="&#x263;" horiz-adv-x="483" 
d="M241 -160c22 0 44 28 44 60c0 17 -28 93 -42 122c-17 -31 -46 -107 -46 -123c0 -31 21 -59 44 -59zM116 -105c0 47 50 143 81 214l-187 415h92l141 -314l141 314h89l-183 -415c31 -68 83 -163 83 -209c0 -93 -91 -130 -133 -130c-53 0 -124 37 -124 125z" />
    <glyph glyph-name="ramshorn" unicode="&#x264;" horiz-adv-x="552" 
d="M162 542c44 0 78 -28 110 -63c47 50 90 63 112 63c89 0 158 -131 158 -209h-76c0 30 -37 131 -78 131c-16 0 -48 -28 -66 -49c58 -87 103 -198 103 -247c0 -152 -83 -192 -143 -192c-66 0 -155 41 -155 192c0 53 41 163 97 249c-10 13 -37 46 -60 46
c-31 0 -74 -77 -78 -130h-76c6 117 89 209 152 209zM273 347c-36 -57 -69 -126 -69 -180c0 -95 45 -114 74 -114c57 0 70 66 70 117c0 31 -34 110 -75 177z" />
    <glyph glyph-name="hturn" unicode="&#x265;" horiz-adv-x="536" 
d="M143 161c0 -82 65 -103 108 -103c86 0 142 70 142 177v289h83v-729h-83v277c-49 -64 -94 -87 -168 -87c-102 0 -165 55 -165 143v396h83v-363z" />
    <glyph glyph-name="hhook" unicode="&#x266;" horiz-adv-x="536" 
d="M393 363c0 82 -65 103 -108 103c-86 0 -142 -70 -142 -177v-289h-83v613c0 75 46 119 123 119c17 0 28 -1 47 -5v-69c-9 1 -22 2 -29 2c-38 0 -58 -19 -58 -54v-154c49 64 94 87 168 87c102 0 165 -55 165 -143v-396h-83v363z" />
    <glyph glyph-name="henghook" unicode="&#x267;" horiz-adv-x="536" 
d="M393 363c0 82 -65 103 -108 103c-86 0 -142 -70 -142 -177v-289h-83v613c0 75 46 119 123 119c17 0 28 -1 47 -5v-69c-19 1 -22 1 -29 1c-38 0 -58 -18 -58 -53v-154c49 64 94 87 168 87c102 0 165 -55 165 -143v-505c0 -71 -49 -109 -143 -109c-13 0 -18 1 -28 3v71
c17 -1 17 -1 20 -1c51 0 68 17 68 69v439z" />
    <glyph glyph-name="ibar" unicode="&#x268;" horiz-adv-x="268" 
d="M173 729v-105h-84v105h84zM90 312v212h83v-212h80v-72h-80v-240h-83v240h-75v72h75z" />
    <glyph glyph-name="iotalatin" unicode="&#x269;" horiz-adv-x="255" 
d="M149 524v-427c0 -37 10 -47 46 -47c16 0 29 1 40 4v-70c-28 -5 -48 -7 -68 -7c-65 0 -101 30 -101 83v464h83z" />
    <glyph glyph-name="Ismallcap" unicode="&#x26a;" horiz-adv-x="278" 
d="M20 524h238v-72h-73v-380h73v-72h-238v72h82v380h-82v72z" />
    <glyph glyph-name="lmidtilde" unicode="&#x26b;" horiz-adv-x="473" 
d="M126 371c-43 0 -51 -51 -53 -78h-53c5 94 43 145 108 145c18 0 36 -6 53 -15v306h84v-356c40 -23 58 -37 84 -37c43 0 51 29 51 75h53c0 -105 -42 -143 -105 -143c-25 0 -55 10 -81 26l-2 1v-295h-84v349s-31 22 -55 22z" />
    <glyph glyph-name="lbelt" unicode="&#x26c;" horiz-adv-x="427" 
d="M171 511v218h84v-373h152v-77h-152v-279h-84v279c-58 0 -151 9 -151 113c0 47 32 115 151 119zM171 356v82c-58 0 -74 -23 -74 -42c0 -32 32 -40 74 -40z" />
    <glyph glyph-name="lrthook" unicode="&#x26d;" horiz-adv-x="260" 
d="M68 -109v838h84v-805c0 -52 17 -69 68 -69c3 0 3 0 20 1v-71c-10 -2 -15 -3 -28 -3c-94 0 -144 38 -144 109z" />
    <glyph glyph-name="lezh" unicode="&#x26e;" horiz-adv-x="608" 
d="M392 276c115 -14 186 -78 186 -198c0 -134 -94 -221 -240 -221c-125 0 -178 56 -202 103l73 46c23 -38 45 -71 132 -71c92 0 147 53 147 142c0 85 -50 130 -147 130c-16 0 -29 -1 -48 -2v75l143 171h-292v-451h-84v729h84v-205h391v-74z" />
    <glyph glyph-name="mturned" unicode="&#x26f;" horiz-adv-x="812" 
d="M752 0h-77v74c-45 -63 -91 -89 -161 -89c-68 0 -110 24 -141 80c-49 -59 -91 -80 -161 -80c-98 0 -152 52 -152 146v393h84v-361c0 -66 36 -105 97 -105c68 0 123 61 123 137v329h84v-361c0 -67 35 -105 97 -105c68 0 123 61 123 137v329h84v-524z" />
    <glyph glyph-name="mlonglegturned" unicode="&#x270;" horiz-adv-x="812" 
d="M752 -200h-77v274c-45 -63 -91 -89 -161 -89c-68 0 -110 24 -141 80c-49 -59 -91 -80 -161 -80c-98 0 -152 52 -152 146v393h84v-361c0 -66 36 -105 97 -105c68 0 123 61 123 137v329h84v-361c0 -67 35 -105 97 -105c68 0 123 61 123 137v329h84v-724z" />
    <glyph glyph-name="mhook" unicode="&#x271;" horiz-adv-x="812" 
d="M60 524h77v-74c45 63 91 89 161 89c68 0 110 -24 141 -80c49 59 91 80 161 80c98 0 152 -52 152 -146v-502c0 -71 -50 -109 -144 -109c-13 0 -18 1 -28 3v71c17 -1 17 -1 20 -1c51 0 68 17 68 69v437c0 66 -36 105 -97 105c-68 0 -123 -61 -123 -137v-329h-84v361
c0 67 -35 105 -97 105c-68 0 -123 -61 -123 -137v-329h-84v524z" />
    <glyph glyph-name="nhookleft" unicode="&#x272;" horiz-adv-x="575" 
d="M98 524h77v-88c46 73 96 103 174 103c101 0 166 -56 166 -143v-396h-83v363c0 63 -42 103 -108 103c-86 0 -142 -70 -142 -177v-398c0 -71 -50 -109 -144 -109c-13 0 -18 1 -28 3v71c17 -1 17 -1 20 -1c51 0 68 17 68 69v600z" />
    <glyph glyph-name="nrthook" unicode="&#x273;" horiz-adv-x="576" 
d="M60 524h77v-88c46 73 96 103 174 103c101 0 167 -56 167 -143v-472c0 -52 17 -69 68 -69c3 0 3 0 20 1v-71c-10 -2 -15 -3 -28 -3c-94 0 -144 38 -144 109v472c0 63 -42 103 -108 103c-86 0 -142 -70 -142 -177v-289h-84v524z" />
    <glyph glyph-name="Nsmallcap" unicode="&#x274;" horiz-adv-x="547" 
d="M487 524v-524h-109l-235 413v-413h-83v524h108l235 -413v413h84z" />
    <glyph glyph-name="obar" unicode="&#x275;" horiz-adv-x="534" 
d="M266 539c151 0 238 -104 238 -285c0 -172 -90 -277 -237 -277c-149 0 -237 105 -237 281s89 281 236 281zM416 290c-10 109 -64 172 -149 172s-140 -65 -149 -172h298zM415 220h-296c10 -104 65 -166 148 -166s138 63 148 166z" />
    <glyph glyph-name="OEsmallcap" unicode="&#x276;" horiz-adv-x="754" 
d="M267 462c-93 0 -150 -78 -150 -204c0 -127 57 -204 150 -204c63 0 109 36 133 98v212c-23 63 -69 98 -133 98zM730 449h-246v-142h212v-76h-212v-155h250v-76h-334v15c-36 -25 -81 -38 -133 -38c-149 0 -237 105 -237 281s89 281 236 281c53 0 98 -13 134 -37v22h330v-75
z" />
    <glyph glyph-name="omegaclosed" unicode="&#x277;" horiz-adv-x="728" 
d="M614 235c0 199 -125 228 -250 228c-175 0 -250 -76 -250 -228c0 -84 24 -172 109 -172c83 0 99 59 99 90v223h84v-223c0 -37 22 -90 98 -90c85 0 110 87 110 172zM30 241c0 120 50 301 334 301c282 0 334 -176 334 -301c0 -198 -111 -250 -190 -250
c-73 0 -116 37 -144 90c-27 -53 -70 -90 -144 -90c-132 0 -190 119 -190 250z" />
    <glyph glyph-name="philatin" unicode="&#x278;" horiz-adv-x="700" 
d="M24 262c0 143 78 270 276 270v180h88v-180c161 0 276 -109 276 -272c0 -143 -71 -270 -276 -270v-190h-88v190c-161 0 -276 109 -276 272zM108 261c0 -103 59 -190 192 -190v380c-142 0 -192 -98 -192 -190zM580 261c0 103 -56 190 -192 190v-380c143 0 192 87 192 190z
" />
    <glyph glyph-name="rturn" unicode="&#x279;" horiz-adv-x="332" 
d="M20 73c101 2 168 32 168 179v272h84v-524h-77v95c-48 -78 -89 -110 -143 -110c-11 0 -18 1 -32 3v85z" />
    <glyph glyph-name="rlonglegturned" unicode="&#x27a;" horiz-adv-x="332" 
d="M20 73c101 2 168 32 168 179v477h84v-729h-77v95c-48 -78 -89 -110 -143 -110c-11 0 -18 1 -32 3v85z" />
    <glyph glyph-name="rhookturned" unicode="&#x27b;" horiz-adv-x="380" 
d="M20 73c101 2 168 32 168 179v272h84v-600c0 -52 17 -69 68 -69c6 0 14 0 20 1v-71c-10 -2 -15 -3 -28 -3c-94 0 -137 38 -137 109v204c-48 -78 -89 -110 -143 -110c-11 0 -18 1 -32 3v85z" />
    <glyph glyph-name="rlongleg" unicode="&#x27c;" horiz-adv-x="332" 
d="M312 451c-101 -2 -168 -32 -168 -179v-472h-84v724h77v-95c48 78 89 110 143 110c11 0 18 -1 32 -3v-85z" />
    <glyph glyph-name="rhook" unicode="&#x27d;" horiz-adv-x="332" 
d="M312 451c-101 -2 -168 -32 -168 -179v-348c0 -52 17 -69 68 -69c3 0 3 0 20 1v-71c-10 -2 -15 -3 -28 -3c-94 0 -144 38 -144 109v633h77v-95c48 78 89 110 143 110c11 0 18 -1 32 -3v-85z" />
    <glyph glyph-name="rfishhook" unicode="&#x27e;" horiz-adv-x="368" 
d="M144 0h-84v430c0 71 50 109 144 109s144 -38 144 -109v-33h-84c0 49 -15 67 -60 69c-45 -2 -60 -20 -60 -69v-397z" />
    <glyph glyph-name="rfishhookrev" unicode="&#x27f;" horiz-adv-x="368" 
d="M224 -200v597c0 49 -15 67 -60 69c-45 -2 -60 -20 -60 -69h-84v33c0 71 50 109 144 109s144 -38 144 -109v-630h-84z" />
    <glyph glyph-name="Rsmallcap" unicode="&#x280;" horiz-adv-x="529" 
d="M463 375c0 -101 -66 -147 -149 -154l205 -221h-103l-203 218h-69v-218h-84v524h248c124 0 155 -93 155 -149zM372 364c0 68 -50 85 -91 85h-137v-155h137c36 0 91 10 91 70z" />
    <glyph glyph-name="Rsmallcapinv" unicode="&#x281;" horiz-adv-x="536" 
d="M467 149c0 -56 -31 -149 -155 -149h-248v524h84v-218h69l203 218h103l-205 -221c83 -7 149 -53 149 -154zM376 160c0 60 -55 70 -91 70h-137v-155h137c56 0 91 32 91 79v6z" />
    <glyph glyph-name="shook" unicode="&#x282;" horiz-adv-x="500" 
d="M34 -107v263h88c7 -51 26 -102 128 -102c73 0 122 33 122 82c0 38 -23 59 -81 73l-78 19c-124 30 -166 69 -166 151c0 97 79 160 201 160c121 0 189 -58 190 -161h-88c-2 55 -38 84 -105 84c-68 0 -111 -31 -111 -79c0 -37 29 -59 97 -75l80 -19
c104 -25 148 -68 148 -146c0 -101 -84 -166 -216 -166c-51 0 -93 8 -125 25v-76c0 -52 17 -69 68 -69c3 0 3 0 20 1v-71c-10 -2 -15 -3 -28 -3c-94 0 -144 38 -144 109z" />
    <glyph glyph-name="esh" unicode="&#x283;" horiz-adv-x="299" 
d="M192 606v-715c0 -71 -50 -109 -144 -109c-13 0 -18 1 -28 3v71c17 -1 17 -1 20 -1c51 0 69 17 69 69v689c0 75 46 119 123 119c17 0 28 -1 47 -5v-69c-19 1 -22 1 -29 1c-38 0 -58 -18 -58 -53z" />
    <glyph glyph-name="dotlessjstrokehook" unicode="&#x284;" horiz-adv-x="298" 
d="M278 312v-68h-87v-353c0 -71 -49 -109 -143 -109c-13 0 -18 1 -28 3v71c17 -1 17 -1 20 -1c51 0 68 17 68 69v320h-70v68h70v301c0 75 46 119 123 119c17 0 28 -1 47 -5v-69c-19 1 -22 1 -29 1c-38 0 -58 -18 -58 -53v-294h87z" />
    <glyph glyph-name="eshshortrev" unicode="&#x285;" horiz-adv-x="309" 
d="M117 413c0 35 -20 53 -58 53c-7 0 -10 0 -29 -1v69c19 4 30 5 47 5c77 0 123 -44 123 -119v-496c0 -52 18 -69 69 -69c3 0 3 0 20 1v-71c-10 -2 -15 -3 -28 -3c-94 0 -144 38 -144 109v522z" />
    <glyph glyph-name="eshcurl" unicode="&#x286;" horiz-adv-x="463" 
d="M92 -103c0 -19 16 -42 75 -42c69 0 83 25 83 64c-41 11 -71 16 -94 16c-52 0 -64 -23 -64 -38zM15 -99c0 90 80 112 135 112c40 0 81 -8 100 -13v613c0 75 46 119 123 119c17 0 28 -1 47 -5v-69c-19 1 -22 1 -29 1c-38 0 -58 -18 -58 -53v-631c33 -10 71 -24 117 -41
l-26 -72c-35 13 -65 23 -91 32c0 -78 -53 -112 -156 -112c-128 0 -162 71 -162 119z" />
    <glyph glyph-name="tturn" unicode="&#x287;" horiz-adv-x="280" 
d="M20 145v68h86v359c0 37 -10 47 -46 47c-16 0 -29 -1 -40 -4v70c28 5 48 7 68 7c65 0 101 -30 101 -83v-396h71v-68h-71v-144h-83v144h-86z" />
    <glyph glyph-name="trthook" unicode="&#x288;" horiz-adv-x="280" 
d="M260 524v-68h-86v-554c0 -37 10 -47 46 -47c16 0 29 1 40 4v-70c-28 -5 -48 -7 -68 -7c-65 0 -101 30 -101 83v591h-71v68h71v144h83v-144h86z" />
    <glyph glyph-name="ubar" unicode="&#x289;" horiz-adv-x="596" 
d="M504 0h-75v73c-49 -69 -98 -96 -175 -96c-102 0 -167 56 -167 143v120h-73v72h73v212h83v-212h251v212h83v-212h78v-72h-78v-240zM170 240v-87c0 -63 42 -103 108 -103c87 0 143 70 143 177v13h-251z" />
    <glyph glyph-name="upsilonlatin" unicode="&#x28a;" horiz-adv-x="608" 
d="M466 471c66 -51 112 -143 112 -222c0 -54 -55 -272 -274 -272c-229 0 -274 218 -274 272c0 79 46 171 112 222h-110v73h212v-77c-110 -77 -125 -172 -125 -213s37 -204 185 -204c155 0 185 163 185 204s-15 136 -125 213v77h212v-73h-110z" />
    <glyph glyph-name="vhook" unicode="&#x28b;" horiz-adv-x="520" 
d="M216 -23h-55c-65 0 -101 30 -101 83v464h83v-427c0 -37 39 -47 73 -47c158 0 185 163 185 204s-15 136 -125 213l102 4c66 -51 112 -143 112 -222c0 -54 -55 -272 -274 -272z" />
    <glyph glyph-name="vturn" unicode="&#x28c;" horiz-adv-x="496" 
d="M211 524h91l184 -524h-94l-140 425l-148 -425h-94z" />
    <glyph glyph-name="wturn" unicode="&#x28d;" horiz-adv-x="722" 
d="M164 524h95l106 -411l101 411h94l152 -524h-92l-107 408l-100 -408h-102l-103 408l-104 -408h-94z" />
    <glyph glyph-name="yturn" unicode="&#x28e;" horiz-adv-x="478" 
d="M100 0h-90l233 634c29 77 78 108 135 108c22 0 39 -4 56 -13v-75c-18 4 -32 6 -44 6c-35 0 -53 -14 -67 -51l-32 -83l177 -526h-89l-134 408z" />
    <glyph glyph-name="Ysmallcap" unicode="&#x28f;" horiz-adv-x="506" 
d="M297 202v-202h-83v202l-204 322h97l149 -246l145 246h95z" />
    <glyph glyph-name="zrthook" unicode="&#x290;" horiz-adv-x="564" 
d="M372 -1h-342v75l313 376h-292v73h391v-74l-311 -377h325v-147c0 -52 17 -69 68 -69c3 0 3 0 20 1v-71c-10 -2 -15 -3 -28 -3c-94 0 -144 38 -144 109v107z" />
    <glyph glyph-name="zcurl" unicode="&#x291;" horiz-adv-x="508" 
d="M478 95c0 -78 -69 -95 -161 -95v-96h-72v96h-215v75l313 376h-292v73h391v-74l-311 -377h114v29c0 59 47 107 118 107c45 0 115 -23 115 -114zM362 136c-36 0 -45 -21 -45 -34v-29h10c78 0 78 8 78 31c0 20 -11 32 -43 32z" />
    <glyph glyph-name="ezh" unicode="&#x292;" horiz-adv-x="524" 
d="M308 276c115 -14 186 -78 186 -198c0 -134 -94 -221 -240 -221c-148 0 -223 75 -234 229h88c6 -103 53 -151 149 -151c92 0 147 53 147 142c0 85 -50 128 -147 128h-48v75l143 171h-292v73h391v-74z" />
    <glyph glyph-name="ezhcurl" unicode="&#x293;" horiz-adv-x="530" 
d="M278 276c115 -14 186 -78 186 -198c0 -16 -1 -32 -4 -47c20 -6 38 -12 50 -17l-26 -72c-11 4 -30 10 -51 17c-39 -64 -116 -97 -212 -97c-115 0 -146 73 -146 119c0 90 80 112 135 112c67 0 108 -16 163 -33c1 5 1 11 1 17c0 85 -50 128 -147 128h-48v75l143 171h-292v73
h391v-74zM216 15c-52 0 -64 -23 -64 -38c0 -19 16 -42 75 -42c66 0 115 34 127 54c-29 11 -69 26 -138 26z" />
    <glyph glyph-name="glottalstop" unicode="&#x294;" horiz-adv-x="498" 
d="M253 632c-112 0 -133 -75 -135 -152h-88c3 151 79 229 222 229c135 0 216 -73 216 -195c0 -71 -45 -153 -123 -173c-22 -6 -41 -9 -57 -11v-330h-84v400c117 2 174 19 174 111c0 75 -47 121 -125 121z" />
    <glyph glyph-name="glottalstoprevinv" unicode="&#x295;" horiz-adv-x="498" 
d="M380 480c-2 92 -34 152 -135 152c-78 0 -125 -46 -125 -121c0 -92 57 -109 174 -111v-400h-84v330c-16 2 -35 5 -57 11c-78 20 -123 102 -123 173c0 122 81 195 216 195c143 0 219 -78 222 -229h-88z" />
    <glyph glyph-name="glottalstopinv" unicode="&#x296;" horiz-adv-x="498" 
d="M245 77c112 0 133 75 135 152h88c-3 -151 -79 -229 -222 -229c-135 0 -216 73 -216 195c0 71 45 153 123 173c22 6 41 9 57 11v330h84v-400c-117 -2 -174 -19 -174 -111c0 -75 47 -121 125 -121z" />
    <glyph glyph-name="cstretch" unicode="&#x297;" horiz-adv-x="699" 
d="M40 356c0 152 67 385 333 385c160 0 252 -78 281 -238h-95c-21 102 -79 156 -197 156c-141 0 -229 -115 -229 -302v-191c0 -182 92 -297 237 -297c122 0 181 69 203 207h96c-22 -193 -122 -289 -300 -289c-262 0 -329 229 -329 378v191z" />
    <glyph glyph-name="bilabialclick" unicode="&#x298;" horiz-adv-x="784" 
d="M744 353c0 -210 -134 -376 -352 -376c-210 0 -352 154 -352 382s142 382 351 382c214 0 353 -153 353 -388zM391 659c-154 0 -258 -120 -258 -300s104 -300 259 -300c154 0 259 120 259 296c0 184 -102 304 -260 304zM441 414v-104h-104v104h104z" />
    <glyph glyph-name="Bsmallcap" unicode="&#x299;" horiz-adv-x="488" 
d="M347 376c0 29 -16 73 -105 73h-98v-142h98c89 0 105 41 105 69zM144 231v-155h140c52 0 84 29 84 80c0 44 -32 75 -84 75h-140zM279 524c122 0 152 -76 152 -132c0 -54 -23 -96 -69 -115c62 -24 96 -60 96 -127c0 -85 -59 -150 -155 -150h-243v524h219z" />
    <glyph glyph-name="epsilonclosed" unicode="&#x29a;" horiz-adv-x="505" 
d="M475 262c0 -213 -74 -285 -232 -285c-132 0 -213 65 -213 166c0 60 27 98 86 124c-46 26 -65 59 -65 112c0 97 82 160 204 160c172 0 220 -78 220 -277zM252 462c-68 0 -114 -31 -114 -79c0 -37 27 -86 97 -86h41v-76h-53c-60 0 -102 -47 -102 -85c0 -49 42 -82 115 -82
c104 0 150 58 150 204c0 159 -43 204 -134 204z" />
    <glyph glyph-name="Gsmallhook" unicode="&#x29b;" horiz-adv-x="622" 
d="M117 255c0 -116 35 -203 175 -203c52 0 142 55 142 151v15h-137v61h225v-288h-44l-17 72c-52 -59 -111 -86 -184 -86c-146 0 -247 112 -247 278c0 108 52 284 259 284c65 0 119 -17 158 -50c19 35 57 55 108 55c17 0 28 -1 47 -5v-69c-19 1 -22 1 -29 1
c-38 0 -58 -18 -58 -53v-51h-86c-15 69 -59 95 -141 95c-114 0 -171 -75 -171 -207z" />
    <glyph glyph-name="Hsmallcap" unicode="&#x29c;" horiz-adv-x="538" 
d="M60 524h84v-215h250v215h84v-524h-84v233h-250v-233h-84v524z" />
    <glyph glyph-name="jcrosstail" unicode="&#x29d;" horiz-adv-x="459" 
d="M332 729v-105h-83v105h83zM14 -99c0 90 80 112 135 112c40 0 81 -8 100 -13v524h83v-549c33 -10 71 -24 117 -41l-26 -72c-35 13 -65 23 -91 32c0 -78 -53 -112 -156 -112c-128 0 -162 71 -162 119zM91 -103c0 -19 16 -42 75 -42c69 0 83 25 83 64c-41 11 -71 16 -94 16
c-52 0 -64 -23 -64 -38z" />
    <glyph glyph-name="kturn" unicode="&#x29e;" horiz-adv-x="514" 
d="M371 -201v427l-222 -222h-107l182 181l-214 343h103l177 -284l81 80v204h83v-729h-83z" />
    <glyph glyph-name="Lsmallcap" unicode="&#x29f;" horiz-adv-x="390" 
d="M60 0v524h84v-448h226v-76h-310z" />
    <glyph glyph-name="qhook" unicode="&#x2a0;" horiz-adv-x="606" 
d="M270 461c-92 0 -153 -82 -153 -203c0 -122 61 -203 153 -203c88 0 146 80 146 200c0 126 -57 206 -146 206zM422 458v73c0 75 40 119 117 119c17 0 28 -1 47 -5v-69c-19 1 -22 1 -29 1c-38 0 -58 -13 -58 -53v-742h-83v278c-39 -57 -89 -83 -162 -83
c-138 0 -224 105 -224 275c0 174 90 287 228 287c67 0 125 -29 164 -81z" />
    <glyph glyph-name="glottalstopbar" unicode="&#x2a1;" horiz-adv-x="498" 
d="M253 632c-112 0 -133 -75 -135 -152h-88c3 151 79 229 222 229c135 0 216 -73 216 -195c0 -71 -45 -153 -123 -173c-22 -6 -41 -9 -57 -11v-18h109v-72h-109v-240h-84v240h-105v72h105v88c117 2 174 19 174 111c0 75 -47 121 -125 121z" />
    <glyph glyph-name="glottalstopbarrev" unicode="&#x2a2;" horiz-adv-x="498" 
d="M380 480c-2 92 -34 152 -135 152c-78 0 -125 -46 -125 -121c0 -92 57 -109 174 -111v-88h105v-72h-105v-240h-84v240h-109v72h109v18c-16 2 -35 5 -57 11c-78 20 -123 102 -123 173c0 122 81 195 216 195c143 0 219 -78 222 -229h-88z" />
    <glyph glyph-name="dzaltone" unicode="&#x2a3;" horiz-adv-x="921" 
d="M269 461c-91 0 -152 -81 -152 -203s61 -203 153 -203c88 0 146 80 146 201c0 125 -57 205 -147 205zM887 524v-74l-311 -377h325v-73h-476v69c-45 -65 -95 -92 -167 -92c-141 0 -228 109 -228 286c0 167 89 276 225 276c70 0 126 -28 161 -81v271h83v-205h388zM499 451
v-347l289 347h-289z" />
    <glyph glyph-name="dezh" unicode="&#x2a4;" horiz-adv-x="960" 
d="M744 276c115 -14 186 -78 186 -198c0 -134 -94 -221 -240 -221c-125 0 -178 56 -202 103l73 46c23 -38 45 -71 132 -71c92 0 147 53 147 142c0 85 -50 130 -147 130c-15 0 -29 -1 -48 -2v75l143 171h-289v-451h-74v69c-45 -65 -95 -92 -167 -92c-141 0 -228 109 -228 286
c0 167 89 276 225 276c70 0 126 -28 161 -81v271h83v-205h388v-74zM269 461c-91 0 -152 -81 -152 -203s61 -203 153 -203c88 0 146 80 146 201c0 125 -57 205 -147 205z" />
    <glyph glyph-name="dzcurl" unicode="&#x2a5;" horiz-adv-x="945" 
d="M269 461c-91 0 -152 -81 -152 -203s61 -203 153 -203c88 0 146 80 146 201c0 125 -57 205 -147 205zM809 136c-36 0 -45 -21 -45 -34v-29h10c78 0 78 8 78 31c0 20 -11 32 -43 32zM925 95c0 -78 -69 -95 -161 -95v-96h-72v96h-267v69c-45 -65 -95 -92 -167 -92
c-141 0 -228 109 -228 286c0 167 89 276 225 276c70 0 126 -28 161 -81v271h83v-205h390v-74l-311 -377h114v29c0 59 47 107 118 107c45 0 115 -23 115 -114zM499 451v-350l291 350h-291z" />
    <glyph glyph-name="ts" unicode="&#x2a6;" horiz-adv-x="705" 
d="M220 54h246c64 0 122 33 122 82c0 38 -23 59 -81 73l-78 19c-124 30 -166 69 -166 151c0 97 79 160 201 160c121 0 189 -58 190 -161h-88c-2 55 -38 84 -105 84c-68 0 -111 -31 -111 -79c0 -37 29 -59 97 -75l80 -19c104 -25 148 -68 148 -146c0 -101 -85 -166 -216 -166
h-267c-64 0 -101 30 -101 83v396h-71v68h71v144h83v-144h86v-68h-86v-355c0 -37 6 -47 46 -47z" />
    <glyph glyph-name="tesh" unicode="&#x2a7;" horiz-adv-x="524" 
d="M417 606v-715c0 -71 -50 -109 -144 -109c-13 0 -18 1 -28 3v71c17 -1 17 -1 20 -1c51 0 69 17 69 69v67c-51 -6 -127 -14 -142 -14c-65 0 -101 30 -101 83v396h-71v68h71v144h83v-144h160v89c0 75 46 119 123 119c17 0 28 -1 47 -5v-69c-19 1 -22 1 -29 1
c-38 0 -58 -18 -58 -53zM334 61v395h-160v-359c0 -37 10 -47 46 -47c11 0 72 6 114 11z" />
    <glyph glyph-name="tccurl" unicode="&#x2a8;" horiz-adv-x="770" 
d="M260 524v-68h-86v-359c0 -37 10 -47 46 -47c10 0 64 15 108 28c-30 45 -46 104 -46 175c0 174 92 286 233 286c120 0 197 -66 207 -191h-84c-10 73 -54 114 -124 114c-91 0 -145 -78 -145 -209c0 -124 55 -199 148 -199v29c0 59 47 107 118 107c45 0 115 -23 115 -114
c0 -78 -69 -95 -161 -95v-96h-72v96c-54 0 -100 15 -138 42c-36 -8 -168 -46 -187 -46c-65 0 -101 30 -101 83v396h-71v68h71v144h83v-144h86zM634 117c-36 0 -45 -21 -45 -34v-29h10c78 0 78 8 78 31c0 20 -11 32 -43 32z" />
    <glyph glyph-name="uni02A9" unicode="&#x2a9;" horiz-adv-x="798" 
d="M737 396l1 -486c0 -70 -50 -109 -144 -109c-14 0 -18 1 -28 3v71c17 -1 17 -1 20 -1c51 0 68 17 68 69v420c0 63 -42 103 -108 103c-86 0 -142 -70 -142 -177v-289h-84v456h-147v-456h-83v456h-70v68h70v89c0 75 46 119 123 119c17 0 28 -1 47 -5v-69c-19 1 -22 1 -29 1
c-38 0 -58 -18 -58 -53v-82h224v-88c46 73 96 103 174 103c101 0 166 -56 166 -143z" />
    <glyph glyph-name="uni02AA" unicode="&#x2aa;" horiz-adv-x="652" 
d="M144 50v-50h-84v729h84v-584c57 -51 180 -91 273 -91c73 0 122 33 122 82c0 38 -23 59 -81 73l-78 19c-124 30 -166 69 -166 151c0 97 79 160 201 160c121 0 189 -58 190 -161h-88c-2 55 -38 84 -105 84c-68 0 -111 -31 -111 -79c0 -37 29 -59 97 -75l80 -19
c104 -25 148 -68 148 -146c0 -101 -84 -166 -216 -166c-114 0 -203 37 -266 73z" />
    <glyph glyph-name="uni02AB" unicode="&#x2ab;" horiz-adv-x="569" 
d="M535 524v-74l-311 -377h325v-73h-489v729h84v-205h391zM144 451v-351l292 351h-292z" />
    <glyph glyph-name="uni02AC" unicode="&#x2ac;" horiz-adv-x="530" 
d="M405 389h-62l-69 267l-66 -267h-61l-99 340h60l70 -265l65 265h66l67 -265l68 265h61zM405 0h-62l-69 267l-66 -267h-61l-99 340h60l70 -265l65 265h66l67 -265l68 265h61z" />
    <glyph glyph-name="uni02AD" unicode="&#x2ad;" horiz-adv-x="486" 
d="M30 616h426v-137h-70v67h-286v-67h-70v137zM30 256h426v-137h-70v67h-286v-67h-70v137z" />
    <glyph glyph-name="uni02AE" unicode="&#x2ae;" horiz-adv-x="574" 
d="M98 590c0 52 -17 69 -68 69c-3 0 -3 0 -20 -1v71c10 2 15 3 28 3c94 0 143 -38 143 -109v-472c0 -82 65 -103 108 -103c86 0 142 70 142 177v299h83v-722h-83v260c-49 -64 -94 -87 -168 -87c-102 0 -165 55 -165 143v472z" />
    <glyph glyph-name="uni02AF" unicode="&#x2af;" horiz-adv-x="611" 
d="M514 -92c0 -35 20 -53 58 -53c7 0 10 0 29 1v-69c-19 -4 -30 -5 -47 -5c-77 0 -123 44 -123 119v161c-49 -64 -94 -87 -168 -87c-102 0 -165 55 -165 143v472c0 52 -17 69 -68 69c-3 0 -3 0 -20 -1v71c10 2 15 3 28 3c94 0 143 -38 143 -109v-472c0 -82 65 -103 108 -103
c86 0 142 70 142 177v289h83v-606z" />
    <glyph glyph-name="hsuper" unicode="&#x2b0;" horiz-adv-x="333" 
d="M243 626c0 53 -43 66 -70 66c-56 0 -93 -45 -93 -115v-187h-54v473h54v-180c32 42 61 57 109 57c67 0 108 -36 108 -93v-257h-54v236z" />
    <glyph glyph-name="hhooksuper" unicode="&#x2b1;" horiz-adv-x="333" 
d="M243 626c0 53 -43 67 -70 67c-56 0 -93 -45 -93 -115v-188h-54v399c0 48 30 77 80 77c11 0 18 -1 31 -3v-45c-6 0 -15 1 -19 1c-25 0 -38 -12 -38 -35v-100c32 42 61 56 109 56c67 0 108 -35 108 -92v-258h-54v236z" />
    <glyph glyph-name="jsuper" unicode="&#x2b2;" horiz-adv-x="167" 
d="M81 747h54v-412c0 -46 -32 -71 -93 -71c-8 0 -12 1 -18 2v46c5 0 11 -1 15 -1c32 0 42 12 42 46v390zM135 880v-68h-54v68h54z" />
    <glyph glyph-name="rsuper" unicode="&#x2b3;" horiz-adv-x="236" 
d="M196 682c-66 -1 -109 -20 -109 -116v-177h-55v341h50v-62c32 51 58 72 93 72c7 0 12 -1 21 -2v-56z" />
    <glyph glyph-name="rturnsuper" unicode="&#x2b4;" horiz-adv-x="236" 
d="M36 438c66 1 109 20 109 116v177h55v-341h-50v62c-32 -51 -58 -72 -93 -72c-7 0 -12 1 -21 2v56z" />
    <glyph glyph-name="rturnrthooksuper" unicode="&#x2b5;" horiz-adv-x="276" 
d="M26 437c66 1 110 21 110 116v177h54v-390c0 -34 11 -45 44 -45c5 0 10 0 14 1v-46c-7 -2 -10 -2 -19 -2c-61 0 -89 25 -89 71v132c-31 -50 -58 -71 -93 -71c-7 0 -11 0 -21 2v55z" />
    <glyph glyph-name="Rturnsuper" unicode="&#x2b6;" horiz-adv-x="359" 
d="M305 488c0 -37 -20 -97 -101 -97h-161v340h55v-141h44l132 141h67l-133 -143c54 -5 97 -35 97 -100zM246 495c0 39 -36 45 -59 45h-89v-101h89c36 0 59 21 59 52v4z" />
    <glyph glyph-name="wsuper" unicode="&#x2b7;" horiz-adv-x="500" 
d="M381 391h-62l-69 267l-66 -267h-61l-99 340h60l70 -265l65 265h66l67 -265l68 265h61z" />
    <glyph glyph-name="ysuper" unicode="&#x2b8;" horiz-adv-x="330" 
d="M250 730h58l-151 -412c-19 -50 -51 -70 -88 -70c-14 0 -25 2 -36 8v49c11 -3 21 -4 28 -4c23 0 35 9 44 33l21 54l-115 342h57l88 -265z" />
    <glyph glyph-name="primemod" unicode="&#x2b9;" horiz-adv-x="278" 
d="M141 716l85 -40l-56 -118l-85 -120l-36 17l36 142z" />
    <glyph glyph-name="dblprimemod" unicode="&#x2ba;" horiz-adv-x="454" 
d="M349 716l85 -40l-56 -118l-85 -120l-36 17l36 142zM141 716l85 -40l-56 -118l-85 -120l-36 17l36 142z" />
    <glyph glyph-name="quoteleftmod" unicode="&#x2bb;" horiz-adv-x="250" 
d="M190 503h-105v120c0 86 35 131 105 131v-38c-47 -2 -55 -22 -55 -91v-18h55v-104z" />
    <glyph glyph-name="apostrophe" unicode="&#x2bc;" horiz-adv-x="250" 
d="M80 708h105v-120c0 -86 -35 -131 -105 -131v38c47 2 55 22 55 91v18h-55v104z" />
    <glyph glyph-name="apostropherev" unicode="&#x2bd;" horiz-adv-x="250" 
d="M190 708v-104h-55v-18c0 -69 8 -89 55 -91v-38c-70 0 -105 45 -105 131v120h105z" />
    <glyph glyph-name="ringhalfright" unicode="&#x2be;" horiz-adv-x="250" 
d="M89 579v44c24 0 44 20 44 43c0 24 -20 44 -44 44v44c48 0 88 -40 88 -88c0 -47 -40 -87 -88 -87z" />
    <glyph glyph-name="ringhalfleft" unicode="&#x2bf;" horiz-adv-x="250" 
d="M167 754v-44c-24 0 -44 -20 -44 -43c0 -24 20 -44 44 -44v-44c-48 0 -88 40 -88 88c0 47 40 87 88 87z" />
    <glyph glyph-name="glottalstopmod" unicode="&#x2c0;" horiz-adv-x="333" 
d="M169 714c-73 0 -86 -49 -88 -99h-57c2 98 51 149 144 149c88 0 141 -47 141 -127c0 -46 -29 -99 -80 -112c-15 -4 -27 -6 -37 -7v-117h-55v162c76 1 113 13 113 72c0 49 -30 79 -81 79z" />
    <glyph glyph-name="glottalstopreversedmod" unicode="&#x2c1;" horiz-adv-x="333" 
d="M252 615c-2 60 -22 99 -88 99c-51 0 -81 -30 -81 -79c0 -59 37 -71 113 -72v-162h-55v117c-10 1 -23 3 -37 7c-50 13 -80 66 -80 112c0 80 53 127 141 127c93 0 142 -51 144 -149h-57z" />
    <glyph glyph-name="fronted" unicode="&#x2c2;" horiz-adv-x="333" 
d="M29 633v29l275 87v-33l-222 -68l222 -69v-34z" />
    <glyph glyph-name="backed" unicode="&#x2c3;" horiz-adv-x="333" 
d="M304 662v-29l-275 -88v34l221 68l-221 69v33z" />
    <glyph glyph-name="raised" unicode="&#x2c4;" horiz-adv-x="333" 
d="M150 750h33l99 -175h-38l-77 141l-78 -141h-38z" />
    <glyph glyph-name="lowered" unicode="&#x2c5;" horiz-adv-x="333" 
d="M183 575h-33l-99 175h38l77 -141l78 141h38z" />
    <glyph glyph-name="circumflex" unicode="&#x2c6;" horiz-adv-x="333" 
d="M116 741h95l96 -150h-63l-81 96l-79 -96h-64z" />
    <glyph glyph-name="caron" unicode="&#x2c7;" horiz-adv-x="333" 
d="M210 591h-95l-96 150h63l81 -96l79 96h64z" />
    <glyph glyph-name="verticallinemod" unicode="&#x2c8;" horiz-adv-x="250" 
d="M161 588h-72v197h72v-197z" />
    <glyph glyph-name="macronmodifier" unicode="&#x2c9;" horiz-adv-x="333" 
d="M302 701v-70h-274v70h274z" />
    <glyph glyph-name="acutemodifier" unicode="&#x2ca;" horiz-adv-x="333" 
d="M188 741h113l-149 -148h-60z" />
    <glyph glyph-name="gravemodifier" unicode="&#x2cb;" horiz-adv-x="333" 
d="M135 740l96 -148h-60l-149 148h113z" />
    <glyph glyph-name="verticallinelowmod" unicode="&#x2cc;" horiz-adv-x="250" 
d="M161 -259h-72v197h72v-197z" />
    <glyph glyph-name="macronlowmod" unicode="&#x2cd;" horiz-adv-x="333" 
d="M303 -70v-70h-274v70h274z" />
    <glyph glyph-name="gravesub" unicode="&#x2ce;" horiz-adv-x="333" 
d="M196 -53l96 -148h-60l-149 148h113z" />
    <glyph glyph-name="acutesub" unicode="&#x2cf;" horiz-adv-x="333" 
d="M131 -52h113l-149 -148h-60z" />
    <glyph glyph-name="colontriangularmod" unicode="&#x2d0;" horiz-adv-x="333" 
d="M229 0h-126l63 114zM103 546h126l-63 -114z" />
    <glyph glyph-name="colontriangularhalfmod" unicode="&#x2d1;" horiz-adv-x="333" 
d="M103 546h126l-63 -114z" />
    <glyph glyph-name="ringhalfrightcentered" unicode="&#x2d2;" horiz-adv-x="250" 
d="M92 -1v44c24 0 44 20 44 43c0 24 -20 44 -44 44v44c48 0 88 -40 88 -88c0 -47 -40 -87 -88 -87z" />
    <glyph glyph-name="ringhalfleftcentered" unicode="&#x2d3;" horiz-adv-x="250" 
d="M171 177v-44c-24 0 -44 -20 -44 -43c0 -24 20 -44 44 -44v-44c-48 0 -88 40 -88 88c0 47 40 87 88 87z" />
    <glyph glyph-name="tackupmid" unicode="&#x2d4;" horiz-adv-x="333" 
d="M132 219v183h70v-183h120v-70h-311v70h121z" />
    <glyph glyph-name="tackdownmid" unicode="&#x2d5;" horiz-adv-x="333" 
d="M201 332v-183h-70v183h-120v70h311v-70h-121z" />
    <glyph glyph-name="plusmod" unicode="&#x2d6;" horiz-adv-x="333" 
d="M322 231h-121v-121h-70v121h-120v70h121v121h70v-121h120v-70z" />
    <glyph glyph-name="minusmod" unicode="&#x2d7;" horiz-adv-x="333" 
d="M322 301v-70h-311v70h311z" />
    <glyph glyph-name="breve" unicode="&#x2d8;" horiz-adv-x="333" 
d="M15 732h59c5 -44 35 -66 92 -66c54 0 87 24 91 66h59c-7 -89 -59 -135 -152 -135c-61 0 -146 24 -149 135z" />
    <glyph glyph-name="dotaccent" unicode="&#x2d9;" horiz-adv-x="333" 
d="M219 716v-104h-104v104h104z" />
    <glyph glyph-name="ring" unicode="&#x2da;" horiz-adv-x="333" 
d="M167 772c59 0 106 -47 106 -106c0 -58 -48 -104 -106 -104s-106 48 -106 105s48 105 106 105zM167 710c-24 0 -44 -20 -44 -43c0 -24 20 -44 44 -44s44 20 44 43c0 25 -19 44 -44 44z" />
    <glyph glyph-name="ogonek" unicode="&#x2db;" horiz-adv-x="333" 
d="M189 -205c-73 0 -132 36 -132 94c0 48 36 89 97 111h70c-73 -41 -94 -64 -94 -106c0 -35 25 -54 72 -54c24 0 45 3 63 10v-45c-24 -5 -57 -10 -76 -10z" />
    <glyph glyph-name="tilde" unicode="&#x2dc;" horiz-adv-x="333" 
d="M91 717c49 0 92 -37 133 -37c18 0 29 12 37 37h58c-10 -69 -40 -104 -89 -104c-37 0 -105 38 -134 38c-15 0 -27 -14 -33 -37h-58c11 66 42 103 86 103z" />
    <glyph glyph-name="hungarumlaut" unicode="&#x2dd;" horiz-adv-x="333" 
d="M51 740h113l-104 -150h-60zM220 740h113l-129 -150h-60z" />
    <glyph glyph-name="uni02DE" unicode="&#x2de;" horiz-adv-x="333" 
d="M0 396v99l74 75h69c31 -86 69 -252 105 -252c40 0 50 38 73 75v-114c-24 -24 -48 -45 -87 -45c-66 0 -121 149 -140 258c0 -3 -94 -96 -94 -96z" />
    <glyph glyph-name="uni02DF" unicode="&#x2df;" horiz-adv-x="333" 
d="M276 794l37 -25l-109 -73l110 -74l-38 -25l-110 74l-109 -73l-38 24l110 74l-109 73l37 24l109 -72z" />
    <glyph glyph-name="gammasuper" unicode="&#x2e0;" horiz-adv-x="333" 
d="M161 284c14 0 29 19 29 39c0 11 -18 61 -28 80c-11 -20 -29 -70 -29 -80c0 -20 13 -39 28 -39zM80 320c0 31 32 93 53 139l-122 270h60l91 -204l92 204h58l-119 -270c20 -44 54 -106 54 -136c0 -60 -59 -84 -87 -84c-34 0 -80 24 -80 81z" />
    <glyph glyph-name="lsuper" unicode="&#x2e1;" horiz-adv-x="186" 
d="M108 863v-473h-54v473h54z" />
    <glyph glyph-name="ssuper" unicode="&#x2e2;" horiz-adv-x="333" 
d="M85 500c5 -33 17 -66 83 -66c48 0 80 21 80 53c0 25 -15 39 -53 48l-51 12c-80 19 -108 45 -108 98c0 63 52 104 131 104s123 -38 123 -105h-57c-1 36 -25 55 -68 55c-44 0 -72 -20 -72 -51c0 -24 19 -39 63 -49l52 -12c67 -17 96 -45 96 -95c0 -66 -55 -108 -140 -108
c-89 0 -134 38 -136 116h57z" />
    <glyph glyph-name="xsuper" unicode="&#x2e3;" horiz-adv-x="333" 
d="M192 567l118 -176h-63l-86 130l-86 -130h-62l121 173l-114 167h62l81 -123l82 123h61z" />
    <glyph glyph-name="glottalrevsuper" unicode="&#x2e4;" horiz-adv-x="334" 
d="M241 702c-1 60 -22 99 -88 99c-50 0 -81 -30 -81 -79c0 -60 37 -71 113 -72v-260h-54v215c-11 1 -23 3 -37 7c-51 13 -80 66 -80 112c0 79 52 127 140 127c93 0 142 -51 144 -149h-57z" />
    <glyph glyph-name="toneextrahigh" unicode="&#x2e5;" horiz-adv-x="526" 
d="M454 800v-800h-72v728h-342v72h414z" />
    <glyph glyph-name="tonehigh" unicode="&#x2e6;" horiz-adv-x="526" 
d="M454 800v-800h-72v563h-342v72h342v165h72z" />
    <glyph glyph-name="tonemid" unicode="&#x2e7;" horiz-adv-x="526" 
d="M454 800v-800h-72v366h-342v72h342v362h72z" />
    <glyph glyph-name="tonelow" unicode="&#x2e8;" horiz-adv-x="526" 
d="M454 800v-800h-72v165h-342v72h342v563h72z" />
    <glyph glyph-name="toneextralow" unicode="&#x2e9;" horiz-adv-x="526" 
d="M454 0h-414v72h342v728h72v-800z" />
    <glyph glyph-name="uni02EA" unicode="&#x2ea;" horiz-adv-x="519" 
d="M72 -1v607h72v-535h335v-72h-407z" />
    <glyph glyph-name="uni02EB" unicode="&#x2eb;" horiz-adv-x="519" 
d="M144 273v-273h-72v614h72v-268h335v-73h-335z" />
    <glyph glyph-name="uni02EC" unicode="&#x2ec;" horiz-adv-x="333" 
d="M214 -200h-95l-96 150h63l81 -96l79 96h64z" />
    <glyph glyph-name="uni02ED" unicode="&#x2ed;" horiz-adv-x="333" 
d="M302 800v-70h-274v70h274zM302 663v-70h-274v70h274z" />
    <glyph glyph-name="uni02EE" unicode="&#x2ee;" horiz-adv-x="400" 
d="M240 729h93v-101c0 -80 -33 -126 -93 -131v38c44 7 47 55 47 90h-47v104zM80 729h93v-101c0 -80 -33 -126 -93 -131v38c44 7 47 55 47 90h-47v104z" />
    <glyph glyph-name="uni02EF" unicode="&#x2ef;" horiz-adv-x="333" 
d="M183 -200h-33l-99 175h38l77 -141l78 141h38z" />
    <glyph glyph-name="uni02F0" unicode="&#x2f0;" horiz-adv-x="333" 
d="M145 -25h33l99 -175h-38l-77 141l-78 -141h-38z" />
    <glyph glyph-name="uni02F1" unicode="&#x2f1;" horiz-adv-x="333" 
d="M27 -133v29l275 87v-33l-222 -68l222 -69v-34z" />
    <glyph glyph-name="uni02F2" unicode="&#x2f2;" horiz-adv-x="333" 
d="M303 -103v-29l-275 -88v34l221 68l-221 69v33z" />
    <glyph glyph-name="uni02F3" unicode="&#x2f3;" horiz-adv-x="333" 
d="M164 -48c59 0 106 -46 106 -105c0 -58 -48 -105 -106 -105s-106 48 -106 106c0 56 48 104 106 104zM164 -109c-24 0 -44 -20 -44 -43c0 -24 20 -44 44 -44s44 20 44 43c0 25 -19 44 -44 44z" />
    <glyph glyph-name="uni02F4" unicode="&#x2f4;" horiz-adv-x="250" 
d="M135 514l96 -148h-60l-149 148h113z" />
    <glyph glyph-name="uni02F5" unicode="&#x2f5;" horiz-adv-x="333" 
d="M282 516l51 -150h-60l-104 150h113zM113 516l76 -150h-60l-129 150h113z" />
    <glyph glyph-name="uni02F6" unicode="&#x2f6;" horiz-adv-x="333" 
d="M51 518h113l-104 -150h-60zM220 518h113l-129 -150h-60z" />
    <glyph glyph-name="uni02F7" unicode="&#x2f7;" horiz-adv-x="333" 
d="M95 -53c49 0 92 -37 133 -37c18 0 29 12 37 37h58c-10 -69 -40 -104 -89 -104c-37 0 -105 38 -134 38c-15 0 -27 -14 -33 -37h-58c11 66 42 103 86 103z" />
    <glyph glyph-name="uni02F8" unicode="&#x2f8;" horiz-adv-x="250" 
d="M184 169v-104h-104v104h104zM184 589v-104h-104v104h104z" />
    <glyph glyph-name="uni02F9" unicode="&#x2f9;" horiz-adv-x="200" 
d="M24 749h152v-72h-80v-165h-72v237z" />
    <glyph glyph-name="uni02FA" unicode="&#x2fa;" horiz-adv-x="200" 
d="M178 749v-237h-72v165h-80v72h152z" />
    <glyph glyph-name="uni02FB" unicode="&#x2fb;" horiz-adv-x="200" 
d="M24 -73v237h72v-165h80v-72h-152z" />
    <glyph glyph-name="uni02FC" unicode="&#x2fc;" horiz-adv-x="200" 
d="M176 -72h-152v72h80v165h72v-237z" />
    <glyph glyph-name="uni02FD" unicode="&#x2fd;" horiz-adv-x="333" 
d="M250 -128v100h72v-172h-311v172h72v-100h167z" />
    <glyph glyph-name="uni02FE" unicode="&#x2fe;" horiz-adv-x="333" 
d="M322 -128v-72h-311v172h72v-100h239z" />
    <glyph glyph-name="uni02FF" unicode="&#x2ff;" horiz-adv-x="333" 
d="M333 -104v-31h-270c15 -17 37 -44 50 -61l4 -4l-21 -20l-4 5c-30 35 -55 60 -88 91l-4 4l4 5c33 31 58 56 88 91l4 5l21 -20l-4 -4c-13 -17 -35 -44 -50 -61h270z" />
    <glyph glyph-name="gravecomb" unicode="&#x300;" 
d="M-198 740l96 -148h-60l-149 148h113z" />
    <glyph glyph-name="acutecomb" unicode="&#x301;" 
d="M-145 740h113l-149 -148h-60z" />
    <glyph glyph-name="circumflexcomb" unicode="&#x302;" 
d="M-217 741h95l96 -150h-63l-81 96l-79 -96h-64z" />
    <glyph glyph-name="tildecomb" unicode="&#x303;" 
d="M-242 717c49 0 92 -37 133 -37c18 0 29 12 37 37h58c-10 -69 -40 -104 -89 -104c-37 0 -105 38 -134 38c-15 0 -27 -14 -33 -37h-58c11 66 42 103 86 103z" />
    <glyph glyph-name="macroncomb" unicode="&#x304;" 
d="M-31 701v-70h-274v70h274z" />
    <glyph glyph-name="overlinecmb" unicode="&#x305;" 
d="M115 701v-72h-566v72h566z" />
    <glyph glyph-name="brevecomb" unicode="&#x306;" 
d="M-318 732h59c5 -44 35 -66 92 -66c54 0 87 24 91 66h59c-7 -89 -59 -135 -152 -135c-61 0 -146 24 -149 135z" />
    <glyph glyph-name="dotaccentcmb" unicode="&#x307;" 
d="M-114 716v-104h-104v104h104z" />
    <glyph glyph-name="dieresiscmb" unicode="&#x308;" 
d="M-25 716v-104h-104v104h104zM-204 716v-104h-104v104h104z" />
    <glyph glyph-name="hookabovecomb" unicode="&#x309;" 
d="M-219 582v-18h-44v64h44c24 0 42 18 42 41c0 34 -27 44 -42 44c-13 0 -25 -6 -33 -16l-32 32c17 17 40 28 65 28c54 0 88 -39 88 -88c0 -48 -40 -87 -88 -87z" />
    <glyph glyph-name="ringcmb" unicode="&#x30a;" 
d="M-166 772c59 0 106 -47 106 -106c0 -58 -48 -104 -106 -104s-106 48 -106 105s48 105 106 105zM-166 710c-24 0 -44 -20 -44 -43c0 -24 20 -44 44 -44s44 20 44 43c0 25 -19 44 -44 44z" />
    <glyph glyph-name="hungarumlautcmb" unicode="&#x30b;" 
d="M-261 741h113l-104 -150h-60zM-92 741h113l-129 -150h-60z" />
    <glyph glyph-name="caroncomb" unicode="&#x30c;" 
d="M-123 591h-95l-96 150h63l81 -96l79 96h64z" />
    <glyph glyph-name="verticallineabovecmb" unicode="&#x30d;" 
d="M-135 588h-72v197h72v-197z" />
    <glyph glyph-name="dblverticallineabovecmb" unicode="&#x30e;" 
d="M-59 588h-72v197h72v-197zM-204 588h-72v197h72v-197z" />
    <glyph glyph-name="gravedblnosp" unicode="&#x30f;" 
d="M-132 740l51 -150h-60l-104 150h113zM-301 740l76 -150h-60l-129 150h113z" />
    <glyph glyph-name="candrabinducmb" unicode="&#x310;" 
d="M-114 815v-104h-104v104h104zM-318 732h59c5 -44 35 -66 92 -66c54 0 87 24 91 66h59c-7 -89 -59 -135 -152 -135c-61 0 -146 24 -149 135z" />
    <glyph glyph-name="breveinvertedcmb" unicode="&#x311;" 
d="M-17 597h-59c-5 44 -35 66 -92 66c-54 0 -87 -24 -91 -66h-59c7 89 59 135 152 135c61 0 146 -24 149 -135z" />
    <glyph glyph-name="commaturnedabovecmb" unicode="&#x312;" 
d="M-127 583h-88v73c0 57 33 90 88 90v-42c-34 0 -45 -12 -45 -47h45v-74z" />
    <glyph glyph-name="commaabovecmb" unicode="&#x313;" 
d="M-206 740h88v-73c0 -57 -33 -90 -88 -90v42c34 0 45 12 45 47h-45v74z" />
    <glyph glyph-name="commareversedabovecmb" unicode="&#x314;" 
d="M-124 740v-74h-45c0 -35 11 -47 45 -47v-42c-55 0 -88 33 -88 90v73h88z" />
    <glyph glyph-name="commaaboverightcmb" unicode="&#x315;" 
d="M0 741h88v-73c0 -57 -33 -90 -88 -90v42c34 0 45 12 45 47h-45v74z" />
    <glyph glyph-name="gravebelowcmb" unicode="&#x316;" 
d="M-198 -52l96 -148h-60l-149 148h113z" />
    <glyph glyph-name="acutebelowcmb" unicode="&#x317;" 
d="M-162 -52h113l-149 -148h-60z" />
    <glyph glyph-name="lefttackbelowcmb" unicode="&#x318;" 
d="M-147 -51h72v-238h-72v83h-133v72h133v83z" />
    <glyph glyph-name="uni0319" unicode="&#x319;" 
d="M-183 -288h-72v238h72v-83h133v-72h-133v-83z" />
    <glyph glyph-name="uni031A" unicode="&#x31a;" 
d="M-203 701h274v-274h-70v204h-204v70z" />
    <glyph glyph-name="horncmb" unicode="&#x31b;" 
d="M30 651c24 -28 37 -59 37 -99c0 -89 -71 -112 -159 -112h-45v84h73c27 1 47 4 47 30c0 17 -6 30 -17 43z" />
    <glyph glyph-name="ringlefthalfsubnosp" unicode="&#x31c;" 
d="M-136 -43v-44c-24 0 -44 -20 -44 -43c0 -24 20 -44 44 -44v-44c-48 0 -88 40 -88 88c0 47 40 87 88 87z" />
    <glyph glyph-name="uptackbelowcmb" unicode="&#x31d;" 
d="M-284 -200v72h83v83h72v-83h83v-72h-238z" />
    <glyph glyph-name="uni031E" unicode="&#x31e;" 
d="M-46 -45v-72h-83v-83h-72v83h-83v72h238z" />
    <glyph glyph-name="uni031F" unicode="&#x31f;" 
d="M-46 -133v-72h-83v-83h-72v83h-83v72h83v83h72v-83h83z" />
    <glyph glyph-name="minusbelowcmb" unicode="&#x320;" 
d="M-113 -86v-70h-311v70h311z" />
    <glyph glyph-name="hookpalatalizedbelowcmb" unicode="&#x321;" 
d="M-83 45h83v-154c0 -71 -49 -109 -143 -109c-13 0 -18 1 -28 3v71c17 -1 17 -1 20 -1c51 0 68 17 68 69v121z" />
    <glyph glyph-name="hookretroflexbelowcmb" unicode="&#x322;" 
d="M0 45v-121c0 -52 17 -69 68 -69c3 0 3 0 20 1v-71c-10 -2 -15 -3 -28 -3c-94 0 -143 38 -143 109v154h83z" />
    <glyph glyph-name="dotbelowcomb" unicode="&#x323;" 
d="M-166 -61v-104h-104v104h104z" />
    <glyph glyph-name="dieresisbelowcmb" unicode="&#x324;" 
d="M-82 -58v-104h-104v104h104zM-261 -58v-104h-104v104h104z" />
    <glyph glyph-name="ringbelowcmb" unicode="&#x325;" 
d="M-231 -44c59 0 106 -47 106 -106c0 -58 -48 -104 -106 -104s-106 48 -106 105s48 105 106 105zM-231 -106c-24 0 -44 -20 -44 -43c0 -24 20 -44 44 -44s44 20 44 43c0 25 -19 44 -44 44z" />
    <glyph glyph-name="commasubnosp" unicode="&#x326;" 
d="M-269 -76h100v-103c0 -74 -37 -121 -98 -121h-2v38c36 0 55 28 55 78v8h-55v100z" />
    <glyph glyph-name="cedillacmb" unicode="&#x327;" 
d="M-347 -140c39 -17 61 -33 98 -33c31 0 54 19 54 45c0 23 -17 37 -46 37c-12 0 -19 -2 -31 -8l-12 7l42 92h38l-23 -56c13 2 20 2 28 2c50 0 79 -24 79 -67c0 -57 -47 -93 -123 -93c-39 0 -63 7 -125 34z" />
    <glyph glyph-name="ogonekcmb" unicode="&#x328;" 
d="M-144 -205c-73 0 -132 36 -132 94c0 48 36 89 97 111h70c-73 -41 -94 -64 -94 -106c0 -35 25 -54 72 -54c24 0 45 3 63 10v-45c-24 -5 -57 -10 -76 -10z" />
    <glyph glyph-name="linevertsubnosp" unicode="&#x329;" 
d="M-187 -243h-72v197h72v-197z" />
    <glyph glyph-name="bridgebelowcmb" unicode="&#x32a;" 
d="M-305 -60h274v-137h-70v67h-134v-67h-70v137z" />
    <glyph glyph-name="dblarchinvertedbelowcmb" unicode="&#x32b;" 
d="M-14 -50v-34c0 -49 -39 -88 -88 -88c-26 0 -49 12 -65 30c-16 -18 -39 -30 -66 -30c-48 0 -87 40 -87 88v34h44v-34c0 -24 20 -44 43 -44c25 0 44 19 44 44v34h44v-34c0 -24 20 -44 43 -44c25 0 44 19 44 44v34h44z" />
    <glyph glyph-name="caronbelowcmb" unicode="&#x32c;" 
d="M-123 -200h-95l-96 150h63l81 -96l79 96h64z" />
    <glyph glyph-name="circumflexbelowcmb" unicode="&#x32d;" 
d="M-218 -50h95l96 -150h-63l-81 96l-79 -96h-64z" />
    <glyph glyph-name="brevebelowcmb" unicode="&#x32e;" 
d="M-318 -65h59c5 -44 35 -66 92 -66c54 0 87 24 91 66h59c-7 -89 -59 -135 -152 -135c-61 0 -146 24 -149 135z" />
    <glyph glyph-name="breveinvertedbelowcmb" unicode="&#x32f;" 
d="M-17 -200h-59c-5 44 -35 66 -92 66c-54 0 -87 -24 -91 -66h-59c7 89 59 135 152 135c61 0 146 -24 149 -135z" />
    <glyph glyph-name="tildebelowcmb" unicode="&#x330;" 
d="M-301 -83c49 0 92 -37 133 -37c18 0 29 12 37 37h58c-10 -69 -40 -104 -89 -104c-37 0 -105 38 -134 38c-15 0 -27 -14 -33 -37h-58c11 66 42 103 86 103z" />
    <glyph glyph-name="macronbelowcmb" unicode="&#x331;" 
d="M-94 -83v-70h-274v70h274z" />
    <glyph glyph-name="lowlinecmb" unicode="&#x332;" 
d="M-1 -126v-50h-600v50h600z" />
    <glyph glyph-name="dbllowlinecmb" unicode="&#x333;" 
d="M-1 -228v-50h-600v50h600zM-1 -126v-50h-600v50h600z" />
    <glyph glyph-name="tildeoverlaycmb" unicode="&#x334;" 
d="M-364 312c49 0 92 -37 133 -37c18 0 29 12 37 37h58c-10 -69 -40 -104 -89 -104c-37 0 -105 38 -134 38c-15 0 -27 -14 -33 -37h-58c11 66 42 103 86 103z" />
    <glyph glyph-name="strokeshortoverlaycmb" unicode="&#x335;" 
d="M-137 302v-70h-274v70h274z" />
    <glyph glyph-name="strokelongoverlaycmb" unicode="&#x336;" 
d="M-111 272v-50h-600v50h600z" />
    <glyph glyph-name="solidusshortoverlaycmb" unicode="&#x337;" 
d="M-89 616h76l-612 -613h-76z" />
    <glyph glyph-name="soliduslongoverlaycmb" unicode="&#x338;" 
d="M-89 749h76l-612 -810h-76z" />
    <glyph glyph-name="ringrighthalfsubnosp" unicode="&#x339;" 
d="M-264 -253v44c24 0 44 20 44 43c0 24 -20 44 -44 44v44c48 0 88 -40 88 -88c0 -47 -40 -87 -88 -87z" />
    <glyph glyph-name="bridgeinvertedbelowcmb" unicode="&#x33a;" 
d="M-88 -176h-274v137h70v-67h134v67h70v-137z" />
    <glyph glyph-name="squarebelowcmb" unicode="&#x33b;" 
d="M-364 -39h261v-261h-261v261zM-171 -232v125h-125v-125h125z" />
    <glyph glyph-name="seagullbelowcmb" unicode="&#x33c;" 
d="M-382 -147c0 49 39 88 88 88c26 0 49 -12 65 -30c16 18 39 30 66 30c48 0 87 -40 87 -88h-44c0 24 -20 44 -43 44c-25 0 -44 -19 -44 -44v-27h-44v27c0 24 -20 44 -43 44c-25 0 -44 -19 -44 -44h-44z" />
    <glyph glyph-name="xabovecmb" unicode="&#x33d;" 
d="M-78 755l32 -24l-95 -71l95 -72l-32 -24l-96 71l-95 -71l-32 24l95 72l-95 71l32 24l95 -71z" />
    <glyph glyph-name="tildeverticalcmb" unicode="&#x33e;" 
d="M-119 646c0 -32 -37 -56 -103 -64v44c23 4 37 13 37 24c0 28 -38 100 -38 133c0 37 35 59 104 67v-44c-25 -6 -37 -14 -37 -28c0 -28 37 -97 37 -132z" />
    <glyph glyph-name="dbloverlinecmb" unicode="&#x33f;" 
d="M0 639v-50h-600v50h600zM0 741v-50h-600v50h600z" />
    <glyph glyph-name="gravetonecmb" unicode="&#x340;" 
d="M-198 741l96 -148h-60l-149 148h113z" />
    <glyph glyph-name="acutetonecmb" unicode="&#x341;" 
d="M-145 740h113l-149 -148h-60z" />
    <glyph glyph-name="perispomenigreekcmb" unicode="&#x342;" 
d="M-258 708c49 0 92 -37 133 -37c18 0 29 12 37 37h58c-10 -69 -40 -104 -89 -104c-37 0 -105 38 -134 38c-15 0 -27 -14 -33 -37h-58c11 66 42 103 86 103z" />
    <glyph glyph-name="koroniscmb" unicode="&#x343;" 
d="M-206 740h88v-73c0 -57 -33 -90 -88 -90v42c34 0 45 12 45 47h-45v74z" />
    <glyph glyph-name="diaeresistonosnosp" unicode="&#x344;" 
d="M-183 758h90l-97 -158h-58zM-271 685v-83h-83v83h83zM-29 685v-83h-83v83h83z" />
    <glyph glyph-name="ypogegrammenigreekcmb" unicode="&#x345;" 
d="M-219 -133c29 0 22 5 29 24h25c0 -60 -24 -61 -82 -61c-53 0 -74 28 -74 79v81h76v-79c0 -20 3 -44 26 -44z" />
    <glyph glyph-name="uni0346" unicode="&#x346;" 
d="M-305 730h274v-137h-70v67h-134v-67h-70v137z" />
    <glyph glyph-name="uni0347" unicode="&#x347;" 
d="M-98 -39v-70h-274v70h274zM-98 -139v-70h-274v70h274z" />
    <glyph glyph-name="uni0348" unicode="&#x348;" 
d="M-115 -239h-72v197h72v-197zM-256 -239h-72v197h72v-197z" />
    <glyph glyph-name="uni0349" unicode="&#x349;" 
d="M-270 -93h144v-144h-61v87h-83v57z" />
    <glyph glyph-name="uni034A" unicode="&#x34a;" 
d="M-201 647l-30 -52h-67l43 71c-9 3 -17 5 -23 5c-15 0 -27 -14 -33 -37h-58c11 66 42 103 86 103c22 0 42 -7 62 -15l39 64h62l-49 -84c7 -1 13 -2 19 -2c18 0 29 12 37 37h58c-10 -69 -40 -104 -89 -104c-15 0 -36 6 -57 14z" />
    <glyph glyph-name="uni034B" unicode="&#x34b;" 
d="M-245 663v-104h-104v104h104zM-147 900v-104h-104v104h104zM-322 782c49 0 92 -37 133 -37c18 0 29 12 37 37h58c-10 -69 -40 -104 -89 -104c-37 0 -105 38 -134 38c-15 0 -27 -14 -33 -37h-58c11 66 42 103 86 103z" />
    <glyph glyph-name="uni034C" unicode="&#x34c;" 
d="M-281 812c49 0 92 -37 133 -37c18 0 29 12 37 37h58c-10 -69 -40 -104 -89 -104c-37 0 -105 38 -134 38c-15 0 -27 -14 -33 -37h-58c11 66 42 103 86 103zM-281 677c49 0 92 -37 133 -37c18 0 29 12 37 37h58c-10 -69 -40 -104 -89 -104c-37 0 -105 38 -134 38
c-15 0 -27 -14 -33 -37h-58c11 66 42 103 86 103z" />
    <glyph glyph-name="uni034D" unicode="&#x34d;" 
d="M-486 -134h384c-42 33 -51 41 -85 77l19 12c39 -36 66 -61 124 -99c-58 -38 -85 -63 -124 -99l-19 12c34 36 43 44 85 77h-384c42 -33 51 -41 85 -77l-19 -12c-39 36 -66 61 -124 99c58 38 85 63 124 99l19 -12c-34 -36 -43 -44 -85 -77z" />
    <glyph glyph-name="uni034E" unicode="&#x34e;" 
d="M-255 -300h-21v202c-14 -15 -52 -46 -75 -64l-13 13c38 33 65 59 98 94c34 -35 60 -61 99 -94l-13 -13c-22 18 -61 49 -75 64v-202z" />
    <glyph glyph-name="uni034F" unicode="&#x34f;" 
 />
    <glyph glyph-name="uni0350" unicode="&#x350;" 
d="M-50 662v-29l-275 -88v34l221 68l-221 69v33z" />
    <glyph glyph-name="uni0351" unicode="&#x351;" 
d="M-110 764v-44c-24 0 -44 -20 -44 -43c0 -24 20 -44 44 -44v-44c-48 0 -88 40 -88 88c0 47 40 87 88 87z" />
    <glyph glyph-name="uni0352" unicode="&#x352;" 
d="M-147 667v-104h-104v104h104zM-50 665h-59c-5 44 -35 66 -92 66c-54 0 -87 -24 -91 -66h-59c7 89 59 135 152 135c61 0 146 -24 149 -135z" />
    <glyph glyph-name="uni0353" unicode="&#x353;" 
d="M-208 -38l32 -24l-95 -71l95 -72l-32 -24l-96 71l-95 -71l-32 24l95 72l-95 71l32 24l95 -71z" />
    <glyph glyph-name="uni0354" unicode="&#x354;" 
d="M-405 -133v29l275 87v-33l-222 -68l222 -69v-34z" />
    <glyph glyph-name="uni0355" unicode="&#x355;" 
d="M-113 -103v-29l-275 -88v34l221 68l-221 69v33z" />
    <glyph glyph-name="uni0356" unicode="&#x356;" 
d="M-259 -117v-25l-233 -74v28l188 58l-188 59v28zM-161 -42h33l99 -175h-38l-77 141l-78 -141h-38z" />
    <glyph glyph-name="uni0357" unicode="&#x357;" 
d="M-197 573v44c24 0 44 20 44 43c0 24 -20 44 -44 44v44c48 0 88 -40 88 -88c0 -47 -40 -87 -88 -87z" />
    <glyph glyph-name="uni0358" unicode="&#x358;" 
d="M-219 740v-104h-104v104h104z" />
    <glyph glyph-name="uni0359" unicode="&#x359;" 
d="M-312 -68h47l-4 -84l80 28l14 -44l-81 -22l53 -67l-39 -27l-46 70l-47 -70l-38 27l52 67l-81 22l14 44l80 -28z" />
    <glyph glyph-name="uni035A" unicode="&#x35a;" 
d="M-425 -49c52 0 99 -48 121 -68c23 20 69 68 121 68c72 0 91 -67 91 -88c0 -42 -35 -90 -86 -90c-68 0 -123 65 -126 68c-37 -32 -69 -68 -126 -68c-51 0 -86 48 -86 90c0 23 19 88 91 88zM-483 -141c0 -14 12 -56 60 -56c41 0 70 32 98 59c-17 15 -61 56 -101 56
c-37 0 -57 -35 -57 -59zM-185 -197c48 0 60 44 60 56c0 24 -20 59 -57 59c-40 0 -84 -41 -101 -56c28 -27 57 -59 98 -59z" />
    <glyph glyph-name="uni035B" unicode="&#x35b;" 
d="M-281 800h65l-37 -101l150 1l-57 -154h-63l39 95h-153z" />
    <glyph glyph-name="uni035C" unicode="&#x35c;" 
d="M0 -131c85 0 172 15 217 30c41 14 68 24 71 66h46c-6 -89 -48 -111 -119 -135c-43 -15 -131 -29 -215 -29s-171 14 -214 29c-71 24 -113 46 -119 135h46c3 -42 30 -52 71 -66c45 -15 131 -30 216 -30z" />
    <glyph glyph-name="uni035D" unicode="&#x35d;" 
d="M4 681c85 0 172 15 217 30c41 14 68 24 71 66h46c-6 -89 -48 -111 -119 -135c-43 -15 -131 -29 -215 -29s-171 14 -214 29c-71 24 -113 46 -119 135h46c3 -42 30 -52 71 -66c45 -15 131 -30 216 -30z" />
    <glyph glyph-name="uni035E" unicode="&#x35e;" 
d="M-324 676h648v-65h-648v65z" />
    <glyph glyph-name="uni035F" unicode="&#x35f;" 
d="M-324 -82h648v-65h-648v65z" />
    <glyph glyph-name="uni0360" unicode="&#x360;" 
d="M-178 672c-67 0 -116 -29 -123 -78h-43c8 94 67 145 169 145c28 0 57 -6 84 -16l183 -69c31 -12 56 -17 78 -17c92 0 111 20 111 75h51c0 -114 -84 -143 -164 -143c-39 0 -86 10 -126 26l-153 63c-16 6 -52 14 -67 14z" />
    <glyph glyph-name="uni0361" unicode="&#x361;" 
d="M1 728c-85 0 -172 -15 -217 -30c-41 -14 -68 -24 -71 -66h-46c6 89 48 111 119 135c43 15 131 29 215 29s171 -14 214 -29c71 -24 113 -46 119 -135h-46c-3 42 -30 52 -71 66c-45 15 -131 30 -216 30z" />
    <glyph glyph-name="uni0362" unicode="&#x362;" 
d="M-300 -168v46h484l-69 63l37 28c46 -41 68 -58 146 -115c-62 -44 -87 -62 -146 -114l-37 28l69 64h-484z" />
    <glyph glyph-name="uni0363" unicode="&#x363;" 
d="M-340 719c2 54 44 64 80 64c49 0 75 -19 75 -54v-117c0 -10 6 -16 17 -16c2 0 3 0 7 1v-24c-10 -3 -15 -3 -22 -3c-20 0 -30 9 -33 29c-22 -21 -42 -29 -67 -29c-40 0 -65 22 -65 59c0 53 40 57 98 65c25 3 33 9 33 22v8c0 19 -16 30 -44 30c-30 0 -44 -11 -47 -35h-32z
M-276 597c37 0 59 25 59 44v36c-32 -15 -98 -4 -98 -48c0 -20 14 -32 39 -32z" />
    <glyph glyph-name="uni0364" unicode="&#x364;" 
d="M-186 668h-147c1 -41 22 -69 58 -69c26 0 44 14 52 40h32c-8 -43 -39 -69 -85 -69c-56 0 -90 40 -90 106c0 65 36 108 91 108c62 0 89 -44 89 -116zM-332 694h112c0 34 -23 61 -55 61s-55 -24 -57 -61z" />
    <glyph glyph-name="uni0365" unicode="&#x365;" 
d="M-253 774v-199h-32v199h32zM-253 852v-40h-32v40h32z" />
    <glyph glyph-name="uni0366" unicode="&#x366;" 
d="M-278 784c58 0 91 -40 91 -109c0 -65 -34 -105 -90 -105c-57 0 -90 40 -90 107s33 107 89 107zM-277 755c-36 0 -57 -30 -57 -78s21 -78 57 -78c35 0 57 30 57 77c0 49 -22 79 -57 79z" />
    <glyph glyph-name="uni0367" unicode="&#x367;" 
d="M-182 579h-29v28c-18 -26 -37 -36 -66 -36c-39 0 -64 21 -64 54v153h32v-141c0 -23 16 -39 41 -39c33 0 54 27 54 68v112h32v-199z" />
    <glyph glyph-name="uni0368" unicode="&#x368;" 
d="M-165 712h-32c-4 28 -20 44 -47 44c-35 0 -55 -30 -55 -80c0 -47 21 -76 56 -76c27 0 43 16 48 48h32c-3 -48 -33 -77 -81 -77c-54 0 -88 41 -88 105c0 66 35 109 88 109c46 0 75 -25 79 -73z" />
    <glyph glyph-name="uni0369" unicode="&#x369;" 
d="M-169 856v-277h-28v26c-17 -25 -36 -35 -63 -35c-54 0 -87 42 -87 109c0 63 34 105 85 105c27 0 48 -11 62 -31v103h31zM-256 754c-35 0 -58 -31 -58 -77s23 -77 58 -77c34 0 56 30 56 76c0 48 -22 78 -56 78z" />
    <glyph glyph-name="uni036A" unicode="&#x36a;" 
d="M-204 708c0 31 -25 39 -41 39c-33 0 -54 -27 -54 -67v-110h-32v277h32v-105c18 24 35 33 64 33c38 0 62 -21 62 -55v-150h-31v138z" />
    <glyph glyph-name="uni036B" unicode="&#x36b;" 
d="M-406 771h29v-28c17 24 35 34 61 34s42 -9 54 -30c18 22 34 30 61 30c37 0 58 -20 58 -56v-149h-32v137c0 25 -14 40 -37 40c-26 0 -47 -23 -47 -52v-125h-32v137c0 26 -13 40 -37 40c-25 0 -46 -23 -46 -52v-125h-32v199z" />
    <glyph glyph-name="uni036C" unicode="&#x36c;" 
d="M-195 743c-38 0 -63 -12 -63 -68v-103h-32v199h29v-36c18 30 34 42 54 42c4 0 7 0 12 -1v-33z" />
    <glyph glyph-name="uni036D" unicode="&#x36d;" 
d="M-214 778v-26h-33v-136c0 -14 4 -18 18 -18c6 0 11 0 15 1v-26c-11 -2 -18 -3 -26 -3c-25 0 -38 12 -38 32v150h-27v26h27v55h31v-55h33z" />
    <glyph glyph-name="uni036E" unicode="&#x36e;" 
d="M-260 570h-35l-69 200h35l53 -162l57 162h35z" />
    <glyph glyph-name="uni036F" unicode="&#x36f;" 
d="M-253 673l69 -103h-37l-50 77l-50 -77h-36l70 102l-67 98h37l47 -73l48 73h36z" />
    <glyph glyph-name="uni0374" unicode="&#x374;" horiz-adv-x="278" 
d="M141 716l85 -40l-56 -118l-85 -120l-36 17l36 142z" />
    </font>
</defs>
</svg>
