<?xml version="1.0" standalone="no"?>
<!DOCTYPE svg PUBLIC "-//W3C//DTD SVG 1.1//EN" "http://www.w3.org/Graphics/SVG/1.1/DTD/svg11.dtd" >
<svg>
<metadata>
Created by FontForge 20120731 at Wed Apr  2 17:41:48 2014
 By World Wide Web Server
Based on the Rashi font from the "Makor" (http://www.ctan.org/tex-archive/language/hebrew/makor/) set.
Licensed under lppl (http://www.latex-project.org/lppl/lppl-1-3c.html).
</metadata>
<defs>
<font id="Mekorot-Rashi" horiz-adv-x="0" >
  <font-face 
    font-family="Mekorot-Rashi"
    font-weight="500"
    font-stretch="normal"
    units-per-em="1000"
    panose-1="2 0 6 3 0 0 0 0 0 0"
    ascent="800"
    descent="-200"
    bbox="-209 -366 1393 1001"
    underline-thickness="50"
    underline-position="-100"
    unicode-range="U+0020-FB4B"
  />
<missing-glyph horiz-adv-x="364" 
d="M33 0v666h265v-666h-265zM66 33h199v600h-199v-600z" />
    <glyph glyph-name=".notdef" horiz-adv-x="364" 
d="M33 0v666h265v-666h-265zM66 33h199v600h-199v-600z" />
    <glyph glyph-name=".null" 
 />
    <glyph glyph-name="nonmarkingreturn" horiz-adv-x="333" 
 />
    <glyph glyph-name="space" unicode=" " horiz-adv-x="172" 
 />
    <glyph glyph-name="exclam" unicode="!" horiz-adv-x="276" 
d="M138 -31q-34 0 -57.5 23.5t-23.5 57.5t23.5 57.5t57.5 23.5t57.5 -23.5t23.5 -57.5t-23.5 -57.5t-57.5 -23.5zM138 185q-9 0 -15 3t-9 10.5t-4.5 14t-3.5 21.5t-4 25q0 94 -22.5 198t-22.5 182q0 57 23 76q19 16 58 16t58 -16q25 -21 25 -76q0 -78 -23.5 -182t-23.5 -198
q-2 -10 -4 -25t-3.5 -21.5t-4.5 -14t-9 -10.5t-15 -3z" />
    <glyph glyph-name="quotedbl" unicode="&#x22;" horiz-adv-x="536" 
d="M276 395l76 273q6 23 20.5 31t60.5 8q57 0 57 -29q0 -2 -0.5 -5t-0.5 -5q-6 -32 -34 -78t-69.5 -105t-60.5 -91q-1 -2 -3.5 -6.5t-4 -5.5t-4.5 -3.5t-7.5 -3t-11.5 -0.5q-16 0 -18 2t0 18zM59 396l76 273q6 23 20.5 31t60.5 8q57 0 57 -29q0 -1 -0.5 -5t-0.5 -5
q-6 -32 -34 -78t-69.5 -105t-60.5 -91q-1 -1 -4.5 -7.5t-5 -7.5t-7 -3t-14.5 -2q-16 0 -18.5 2.5t0.5 18.5z" />
    <glyph glyph-name="numbersign" unicode="#" horiz-adv-x="667" 
d="M181 250l23 148h-98q-20 0 -24.5 5.5t-4.5 31.5q0 24 4 29t22 5h113l30 190q4 26 8.5 30t30.5 4q23 0 30.5 -3t7.5 -14q0 -8 -3 -24l-30 -183h143l30 189q4 26 8.5 30t30.5 4q23 0 30.5 -3t7.5 -14q0 -7 -3 -24l-29 -182h80q21 0 25.5 -4t4.5 -22v-5q0 -28 -4.5 -34
t-25.5 -6h-91l-24 -148h88q21 0 25.5 -4t4.5 -22v-4q0 -28 -4.5 -34t-25.5 -6h-99l-32 -207q-4 -28 -9.5 -33.5t-25.5 -5.5h-10q-21 0 -27.5 2t-6.5 12q0 7 3 25l33 207h-142l-32 -204q-5 -31 -11 -36.5t-34 -5.5q-21 0 -27.5 2.5t-6.5 12.5q0 6 3 24l32 207h-90
q-21 0 -25.5 5.5t-4.5 30.5t4 29.5t23 4.5h105zM256 250h142l23 148h-141z" />
    <glyph glyph-name="dollar" unicode="$" horiz-adv-x="559" 
d="M360 89q42 40 42 96q0 33 -42 59v-155zM246 -50q0 -14 -4 -17t-20 -3q-15 0 -18.5 3t-3.5 18v6v55q-64 16 -106 54.5t-42 95.5q0 22 15.5 37.5t37.5 15.5q27 0 45.5 -21t18.5 -50q0 -57 31 -79v253q-134 66 -134 182q0 66 37 121t97 79v48q0 25 4.5 31t19.5 6t18.5 -6
t3.5 -31v-36q18 2 29 2q7 0 20 -1t19 -1v36q0 25 4.5 31t19.5 6t18.5 -6t3.5 -31v-43q131 -28 131 -123q0 -25 -15 -44.5t-38 -19.5q-20 0 -33.5 16t-13.5 37q0 53 -32 75v-215q68 -31 108.5 -77.5t40.5 -121.5q0 -70 -42 -127.5t-107 -83.5v-66l1 -5q0 -14 -4 -17t-20 -3
q-15 0 -18.5 3t-3.5 18v6v50q-16 -3 -39 -3h-29v-49v-5zM246 55h27q13 0 41 7v206q-10 4 -68 29v-242zM277 665q-19 0 -32 -5v-181l69 -30v216h-37zM200 503v133q-36 -32 -36 -76q0 -34 36 -57z" />
    <glyph glyph-name="percent" unicode="%" horiz-adv-x="904" 
d="M136 462q0 -47 23.5 -81t57.5 -34t57.5 34t23.5 81t-23.5 81t-57.5 34t-57.5 -34t-23.5 -81zM55 462q0 95 47.5 162.5t114.5 67.5t114.5 -67.5t47.5 -162.5t-47.5 -162.5t-114.5 -67.5t-114.5 67.5t-47.5 162.5zM606 150q0 -47 23.5 -81t57.5 -34q33 0 57 34t24 81
t-24 81t-57 34q-34 0 -57.5 -34t-23.5 -81zM525 150q0 95 47.5 162.5t114.5 67.5t114.5 -67.5t47.5 -162.5t-47.5 -162.5t-114.5 -67.5t-114.5 67.5t-47.5 162.5zM623 646q43 0 43 -13l-293 -599q-19 -39 -29.5 -46t-48.5 -7q-43 0 -43 14l301 610q14 30 23.5 35.5t46.5 5.5
z" />
    <glyph glyph-name="ampersand" unicode="&#x26;" horiz-adv-x="923" 
d="M833 184l45 -6q-8 -61 -35 -100q-25 -39 -77.5 -58.5t-107.5 -19.5q-43 0 -76 16t-70 54q-97 -74 -197 -74q-159 0 -204 49q-27 29 -43 69t-16 78q0 66 63.5 132t155.5 111q-42 92 -42 153q0 82 59.5 145t139.5 63q67 0 104 -48.5t37 -116.5q0 -40 -21.5 -79.5
t-56.5 -64.5q-32 -22 -101 -52q91 -166 166 -256q33 38 52.5 80.5t19.5 75.5q0 48 -92 48h-10v44h289v-44h-10q-51 0 -81 -28q-16 -17 -52 -83q-10 -18 -16 -29q-18 -33 -27.5 -47t-40.5 -52q28 -30 74 -47t80 -17t58 27.5t33 76.5zM369 478q25 12 30 15q87 46 87 136
q0 43 -23 69.5t-58 26.5t-57.5 -28t-22.5 -73q0 -57 44 -146zM291 393q-99 -60 -99 -135q0 -76 57.5 -134t126.5 -58q43 0 104 38q-65 76 -101.5 132t-87.5 157z" />
    <glyph glyph-name="quotesingle" unicode="'" horiz-adv-x="319" 
d="M59 396l76 273q6 23 20.5 31t60.5 8q57 0 57 -29q0 -1 -0.5 -5t-0.5 -5q-6 -32 -34 -78t-69.5 -105t-60.5 -91q-1 -1 -4.5 -7.5t-5 -7.5t-7 -3t-14.5 -2q-16 0 -18.5 2.5t0.5 18.5z" />
    <glyph glyph-name="parenleft" unicode="(" horiz-adv-x="382" 
d="M178 320q0 -271 152 -402q11 -9 8.5 -19t-19.5 -10q-31 0 -63 26q-93 74 -145.5 181t-52.5 239t52.5 239t145.5 181q32 26 63 26q17 0 19.5 -10t-8.5 -19q-152 -131 -152 -400v-32z" />
    <glyph glyph-name="parenright" unicode=")" horiz-adv-x="380" 
d="M203 320v32q0 269 -152 400q-11 9 -8.5 19t19.5 10q31 0 63 -26q93 -74 145.5 -181t52.5 -239t-52.5 -239t-145.5 -181q-32 -26 -63 -26q-17 0 -19.5 10t8.5 19q152 131 152 402z" />
    <glyph glyph-name="asterisk" unicode="*" horiz-adv-x="551" 
d="M104 353q-18 0 -31 11.5t-13 29.5q0 30 41 58q27 17 76 23.5t76 20.5q-26 14 -75.5 20t-76.5 24q-41 26 -41 57q0 17 13.5 29t30.5 12q31 0 54.5 -13.5t36 -31.5t31.5 -41t39 -36q0 32 -18.5 77.5t-18.5 75.5q0 28 12.5 49t35.5 21q24 0 37 -21t13 -49q0 -30 -19 -75.5
t-19 -77.5q20 13 39 36t31 41t35.5 31.5t55.5 13.5q18 0 31 -11.5t13 -29.5q0 -31 -41 -57q-27 -18 -76.5 -24t-76.5 -20q27 -14 76.5 -20.5t76.5 -23.5q41 -28 41 -58q0 -17 -13.5 -29t-30.5 -12q-31 0 -54.5 13.5t-35.5 30.5t-31 39.5t-39 35.5q0 -32 19 -77.5t19 -76.5
q0 -27 -13 -48t-37 -21q-23 0 -36 21t-13 48q0 32 18.5 79.5t18.5 78.5q-20 -13 -39 -36.5t-31 -41t-35.5 -31.5t-55.5 -14z" />
    <glyph glyph-name="plus" unicode="+" horiz-adv-x="657" 
d="M274 279h-164q-40 0 -48 7.5t-8 48.5q0 40 7.5 47.5t47.5 7.5h165v158q0 40 7.5 48t48.5 8q40 0 47.5 -7.5t7.5 -47.5v-159h174q31 0 37 -9t6 -46q0 -40 -7.5 -48t-38.5 -8h-172v-180q0 -31 -8.5 -37t-45.5 -6q-40 0 -48 7.5t-8 38.5v177z" />
    <glyph glyph-name="comma" unicode="," horiz-adv-x="321" 
d="M51 -142l76 273q6 23 20.5 31t60.5 8q57 0 57 -29q0 -1 -0.5 -5t-0.5 -5q-6 -32 -34 -78t-69.5 -105t-60.5 -91q-1 -1 -4.5 -7.5t-5 -7.5t-7 -3t-14.5 -2q-16 0 -18.5 2.5t0.5 18.5z" />
    <glyph glyph-name="hyphen" unicode="-" horiz-adv-x="670" 
d="M116 390h450q31 0 37 -9t6 -46q0 -40 -7.5 -48t-38.5 -8h-446q-40 0 -48 7.5t-8 48.5q0 40 7.5 47.5t47.5 7.5z" />
    <glyph glyph-name="period" unicode="." horiz-adv-x="276" 
d="M138 -31q-34 0 -57.5 23.5t-23.5 57.5t23.5 57.5t57.5 23.5t57.5 -23.5t23.5 -57.5t-23.5 -57.5t-57.5 -23.5z" />
    <glyph glyph-name="slash" unicode="/" horiz-adv-x="500" 
d="M414 648q43 0 43 -13l-293 -599q-19 -39 -29.5 -46t-48.5 -7q-43 0 -43 14l301 610q14 30 23.5 35.5t46.5 5.5z" />
    <glyph glyph-name="zero" unicode="0" horiz-adv-x="546" 
d="M357 252q0 105 -17 180.5t-39 106.5t-44 31q-28 0 -44 -53.5t-16 -135.5q0 -75 9.5 -138t24.5 -101t32.5 -59t33.5 -21q27 0 43.5 54t16.5 136zM62 318q0 136 62.5 232t151.5 96t151.5 -96t62.5 -232t-62.5 -232t-151.5 -96t-151.5 96t-62.5 232z" />
    <glyph glyph-name="one" unicode="1" horiz-adv-x="414" 
d="M70 597q50 0 106 26q5 3 12.5 6.5t11 5.5t8 4.5t7 3t6 2t6.5 2t6 1.5t6.5 1h7.5h10h26v-489q0 -63 12 -96t49 -33q15 0 18 -3.5t3 -16.5q0 -16 -3.5 -18.5t-20.5 -2.5h-272q-18 0 -21.5 2.5t-3.5 17.5q0 14 3.5 17.5t21.5 6.5q33 9 44 16.5t18 31.5t7 78v304q0 46 -15 64
t-50 18q-3 0 -6 0.5t-4.5 1.5t-3 3t-2.5 3t-1.5 4t-1 4t-1 5t-0.5 5q0 25 17 25z" />
    <glyph glyph-name="two" unicode="2" horiz-adv-x="533" 
d="M478 139q-6 -33 -21.5 -82.5t-19.5 -62.5h-376h-4q-12 0 -12 28q0 12 5.5 20t16 16.5t14.5 13.5q28 34 85 95t88.5 97.5t58.5 87.5t27 96q0 50 -35 85t-85 35q-35 0 -57 -19.5t-46 -62.5q-12 -22 -22 -22q-9 0 -20.5 5.5t-11.5 12.5v2q0 8 20 46q39 73 86.5 99.5
t122.5 26.5q76 0 130.5 -53.5t54.5 -128.5q0 -65 -33 -122.5t-73 -91.5t-100 -82t-90 -81q35 12 94 12q14 0 44 -1t45 -1q27 0 51.5 21.5t40.5 21.5q22 0 22 -11z" />
    <glyph glyph-name="three" unicode="3" horiz-adv-x="497" 
d="M78 595q58 37 97.5 52t94.5 15q58 0 99.5 -36.5t41.5 -90.5q0 -16 -4.5 -31t-9 -25t-18.5 -23t-19 -18.5t-26 -18.5t-25 -15t-29 -16q84 -9 124.5 -64.5t40.5 -138.5t-74.5 -141t-169.5 -58q-50 0 -130 22q-29 13 -29 47q0 9 4 25q1 7 14 7q20 0 35 -11q6 -4 19 -12.5
t19 -12t16.5 -7t22.5 -3.5q55 0 91.5 43.5t36.5 101.5q0 49 -26 86.5t-68 37.5q-7 0 -22.5 -6.5t-23.5 -6.5q-15 0 -23 19q-4 10 -4 14q0 11 31 30q35 26 53 42t35.5 45.5t17.5 63.5q0 24 -26.5 49.5t-57.5 25.5q-13 0 -21.5 -5t-21 -19t-18.5 -20q-3 -2 -9 -2q-18 0 -44 21
q-6 9 -6 16q0 9 12 18z" />
    <glyph glyph-name="four" unicode="4" horiz-adv-x="558" 
d="M193 228q57 0 67 5t10 36v105q0 60 -7 60q-6 0 -38 -46l-78 -116q-16 -26 -16 -33q0 -8 12 -9.5t50 -1.5zM410 166q0 -69 13.5 -102t53.5 -33q15 0 18 -3.5t3 -16.5q0 -16 -3 -18.5t-21 -2.5h-272q-18 0 -21.5 2.5t-3.5 17.5q0 14 3.5 17.5t21.5 6.5q31 9 43.5 19
t18.5 34.5t6 78.5h-184q-20 0 -23.5 4t-3.5 28q0 22 2.5 29t15.5 29l236 359q20 28 28 33.5t33 5.5q19 0 30 -7.5t11 -16.5l-1 -2v-2q-5 -18 -5 -38v-313q0 -45 16 -45q8 0 26 15q2 3 5 8.5t4.5 7.5t4 4.5t6 3.5t8.5 1q24 0 24 -14q0 -1 -0.5 -3.5t-0.5 -4.5q0 -14 -9 -54
q-6 -20 -12.5 -24t-29.5 -4h-41z" />
    <glyph glyph-name="five" unicode="5" horiz-adv-x="491" 
d="M172 639h183q22 0 34 15q9 13 17 14q4 1 10 1q12 0 16 -6t4 -23q0 -28 -10 -72q-9 -26 -15.5 -31t-30.5 -5h-181q-24 0 -28 -3t-10 -26l-19 -69q36 13 72 13q94 0 159 -61.5t65 -157.5q0 -98 -78 -172t-182 -74q-65 0 -110 18q-23 12 -23 20q0 4 5 16q6 18 14 18
q6 0 21 -6q53 -17 91 -17q56 0 102.5 41.5t46.5 87.5q0 66 -37 111t-96 45q-11 0 -21 -1.5t-22.5 -5t-20.5 -5.5q-18 -6 -25 -6q-10 0 -25 8t-15 17t4 25l57 253q6 27 13.5 32.5t34.5 5.5z" />
    <glyph glyph-name="six" unicode="6" horiz-adv-x="536" 
d="M267 363q-35 0 -59 -53t-24 -112q0 -62 24.5 -117t61.5 -55q33 0 57.5 52.5t24.5 108.5q0 68 -21 122t-64 54zM227 411q10 2 24 6t25 6.5t23 2.5q80 0 132 -64.5t52 -151.5q0 -92 -56 -160t-142 -68q-99 0 -160.5 82t-61.5 190q0 81 31.5 156t80 126t107.5 81.5t113 30.5
q24 0 40 -2q15 -3 15 -10q-11 -26 -44 -37q-149 -48 -179 -188z" />
    <glyph glyph-name="seven" unicode="7" horiz-adv-x="485" 
d="M183 637h227q20 0 26.5 -5.5t6.5 -20.5v-10q-6 -31 -17.5 -61.5t-28 -69t-25.5 -63.5q-25 -67 -39 -109t-28 -107t-14 -117q0 -45 8 -74l1 -1v-2q0 -13 -76 -13h-41q-21 0 -28 3t-7 16t16 75q61 245 206 448q-26 -11 -67 -11q-22 0 -67 4t-65 4q-50 0 -70 -47
q-8 -17 -12.5 -20t-23.5 -3h-3q-10 0 -14 1.5t-4 9.5t6 34l30 126q6 24 12 28q7 3 32 3q5 0 13 -11q9 -7 32 -7h14z" />
    <glyph glyph-name="eight" unicode="8" horiz-adv-x="531" 
d="M197 272q-33 -46 -33 -112q0 -59 31.5 -97.5t95.5 -38.5q29 0 54.5 28t25.5 58q0 19 -4.5 35.5t-17 31t-21.5 24t-30.5 21.5t-31 17.5t-36 17.5t-33.5 15zM323 380q24 32 34 56.5t10 59.5q0 100 -118 100q-33 0 -56.5 -24.5t-23.5 -57.5q0 -16 5 -31t18 -27.5t22 -21
t29.5 -19t27.5 -14t29 -12.5zM151 301q-80 62 -80 159q0 80 59 135.5t141 55.5q77 0 134 -47.5t57 -119.5t-87 -130q102 -70 102 -188q0 -81 -64 -137t-159 -56q-78 0 -137 45.5t-59 116.5q0 96 93 166z" />
    <glyph glyph-name="nine" unicode="9" horiz-adv-x="525" 
d="M266 261q35 0 58.5 53t23.5 112q0 62 -24 117t-62 55q-33 0 -57.5 -52.5t-24.5 -108.5q0 -42 7.5 -80t28 -67t50.5 -29zM306 213q-6 -1 -31 -8t-41 -7q-81 0 -132.5 64.5t-51.5 151.5q0 92 56 160t142 68q98 0 160 -82t62 -190q0 -81 -31.5 -156t-80.5 -126t-107.5 -81.5
t-112.5 -30.5q-24 0 -40 2q-16 3 -16 10q4 9 7 13t12.5 11.5t24.5 12.5q148 48 180 188z" />
    <glyph glyph-name="colon" unicode=":" horiz-adv-x="287" 
d="M90 207q43 41 54 41q15 0 48 -35q40 -40 40 -53t-33 -47q-5 -4 -7 -7q-36 -36 -48 -36q-11 0 -42 30l-8 8q-38 38 -38 52q0 11 34 47zM90 511q14 14 19 18.5t13.5 11.5t13.5 9t10 2q11 0 48 -35q40 -40 40 -53t-33 -47q-5 -4 -7 -7q-36 -36 -48 -36q-13 0 -45 31l-7 7
q-38 38 -38 52q0 11 34 47z" />
    <glyph glyph-name="semicolon" unicode=";" horiz-adv-x="341" 
d="M205 298q-34 0 -57.5 23.5t-23.5 57.5t23.5 57.5t57.5 23.5t57.5 -23.5t23.5 -57.5t-23.5 -57.5t-57.5 -23.5zM42 -142l76 273q6 23 20.5 31t60.5 8q57 0 57 -29q0 -1 -0.5 -5t-0.5 -5q-6 -32 -34 -78t-69.5 -105t-60.5 -91q-1 -1 -4.5 -7.5t-5 -7.5t-7 -3t-14.5 -2
q-16 0 -18.5 2.5t0.5 18.5z" />
    <glyph glyph-name="less" unicode="&#x3c;" horiz-adv-x="707" 
d="M164 335l445 -198q34 -14 40.5 -22.5t6.5 -38.5q0 -21 -2 -29t-10 -8q-10 0 -49 18l-478 213q-45 17 -54.5 26.5t-9.5 38.5t9.5 38.5t54.5 26.5l478 213q39 18 49 18q8 0 10 -8t2 -29q0 -30 -6.5 -38.5t-40.5 -22.5z" />
    <glyph glyph-name="equal" unicode="=" horiz-adv-x="680" 
d="M124 303h450q31 0 37 -9t6 -46q0 -40 -7.5 -48t-38.5 -8h-446q-40 0 -48 7.5t-8 48.5q0 40 7.5 47.5t47.5 7.5zM120 478h450q31 0 37 -9t6 -46q0 -40 -7.5 -48t-38.5 -8h-446q-40 0 -48 7.5t-8 48.5q0 40 7.5 47.5t47.5 7.5z" />
    <glyph glyph-name="greater" unicode="&#x3e;" horiz-adv-x="710" 
d="M545 335l-445 198q-34 14 -40.5 22.5t-6.5 38.5q0 21 2 29t10 8q10 0 49 -18l478 -213q45 -17 54.5 -26.5t9.5 -38.5t-9.5 -38.5t-54.5 -26.5l-478 -213q-39 -18 -49 -18q-8 0 -10 8t-2 29q0 30 6.5 38.5t40.5 22.5z" />
    <glyph glyph-name="question" unicode="?" horiz-adv-x="424" 
d="M92 754q21 -28 44.5 -36t60.5 -8h34q73 0 107.5 -50.5t34.5 -162.5q0 -29 -20 -61t-44 -55t-44 -50.5t-20 -48.5q0 -12 0.5 -29.5t0.5 -28.5q0 -19 -14.5 -31.5t-32.5 -12.5q-31 0 -31 32q0 50 19 92.5t42 67t42 57.5t19 67q0 38 -42 53.5t-127 15.5q-35 0 -55 35.5
t-20 68.5q0 13 3 34t3 35q0 20 24 20q9 0 16 -4zM212 -32q-33 0 -56.5 23.5t-23.5 56.5q0 34 23.5 58t56.5 24q34 0 58 -24t24 -58q0 -33 -24 -56.5t-58 -23.5z" />
    <glyph glyph-name="at" unicode="@" horiz-adv-x="1091" 
d="M626 208l45 202v12q0 28 -16.5 51t-42.5 23q-56 0 -99.5 -46.5t-65 -113.5t-21.5 -138q0 -39 21 -69.5t56 -30.5q41 0 80 44.5t43 65.5zM690 480q8 40 14.5 47t37.5 7q32 0 41.5 -3t9.5 -17q0 -9 -5 -34l-80 -334q12 -16 19 -23t19 -13t26 -6q64 0 121.5 78t57.5 176
q0 191 -90 279.5t-266 88.5q-100 0 -183 -38.5t-137 -103.5t-83.5 -148.5t-29.5 -176.5q0 -106 56.5 -193t151 -134.5t204.5 -47.5q112 0 230 53q20 11 27 11q8 0 14 -17q4 -12 4 -15q0 -8 -6 -12t-23 -11q-79 -37 -145.5 -49t-165.5 -12q-108 0 -211.5 58t-171.5 162.5
t-68 226.5q0 76 16 147.5t55.5 142t98.5 122.5t153.5 84.5t212.5 32.5q68 0 127 -9.5t118.5 -36.5t101.5 -70t68 -115t26 -167q0 -78 -35.5 -159.5t-101 -138t-140.5 -56.5q-51 0 -80 14t-60 62q-65 -79 -172 -79q-53 0 -90.5 39.5t-37.5 94.5q0 86 22.5 156.5t59 114.5
t81 67.5t90.5 23.5q38 0 64 -15.5t55 -53.5z" />
    <glyph glyph-name="bracketleft" unicode="[" horiz-adv-x="375" 
d="M170 679v-688q0 -32 6 -38.5t35 -6.5h100q15 0 18 -3.5t3 -19.5q0 -17 -3 -20.5t-19 -3.5h-171h-5q-44 0 -52 9.5t-8 64.5v722q0 56 8.5 66t56.5 10h171q16 0 19 -3.5t3 -20.5q0 -16 -3 -19t-18 -3h-100q-29 0 -35 -7t-6 -39z" />
    <glyph glyph-name="backslash" unicode="\" horiz-adv-x="502" 
d="M88 648q37 0 46.5 -5.5t23.5 -35.5l301 -610q0 -14 -43 -14q-38 0 -48.5 7t-29.5 46l-293 599q0 13 43 13z" />
    <glyph glyph-name="bracketright" unicode="]" horiz-adv-x="373" 
d="M204 679q0 32 -6 39t-35 7h-100q-15 0 -18 3t-3 19q0 17 3 20.5t19 3.5h171q48 0 56.5 -10t8.5 -66v-722q0 -55 -8 -64.5t-52 -9.5h-5h-171q-16 0 -19 3.5t-3 20.5q0 16 3 19.5t18 3.5h100q29 0 35 6.5t6 38.5v688z" />
    <glyph glyph-name="braceleft" unicode="{" horiz-adv-x="408" 
d="M243 623q0 -15 4 -81t4 -80q0 -49 -26 -82t-74 -44q49 -10 74.5 -43.5t25.5 -82.5q0 -14 -4 -81t-4 -82q0 -81 28.5 -127t97.5 -60q-107 0 -154 31q-45 30 -60 103q-4 16 -4 58q0 20 2 61t2 57q0 73 -24.5 111.5t-89.5 53.5q68 20 91 56t23 111q0 16 -2 56t-2 61
q0 43 4 59q15 75 61.5 104t152.5 29q-69 -16 -97.5 -61.5t-28.5 -126.5z" />
    <glyph glyph-name="braceright" unicode="}" horiz-adv-x="408" 
d="M165 623q0 81 -28.5 126.5t-97.5 61.5q106 0 151.5 -29t60.5 -104q6 -24 6 -59q0 -21 -2 -61t-2 -56q0 -75 23 -111t91 -56q-65 -15 -89.5 -53.5t-24.5 -111.5q0 -16 2 -57t2 -61q0 -34 -6 -58q-16 -75 -58 -103q-47 -31 -154 -31q69 14 97.5 60t28.5 127q0 15 -4 82
t-4 81q0 49 25.5 82.5t74.5 43.5q-48 11 -74 44t-26 82q0 14 4 80t4 81z" />
    <glyph glyph-name="circumflex" unicode="&#x2c6;" horiz-adv-x="548" 
d="M274 780q29 0 38.5 -9.5t26.5 -54.5l138 -330q18 -39 18 -49q0 -8 -8 -10t-29 -2q-30 0 -38.5 6.5t-22.5 40.5l-123 297l-123 -297q-14 -34 -22.5 -40.5t-38.5 -6.5q-21 0 -29 2t-8 10q0 10 18 49l138 330q17 45 26.5 54.5t38.5 9.5z" />
    <glyph glyph-name="afii57799" unicode="&#x5b0;" 
d="M-52 -251q0 22 15 37t37 15t37 -15t15 -37q0 -21 -15 -35t-37 -14t-37 14t-15 35zM-52 -108q0 22 15 36.5t37 14.5t37 -14.5t15 -36.5t-15 -36t-37 -14t-37 14t-15 36z" />
    <glyph glyph-name="afii57801" unicode="&#x5b1;" 
d="M-209 -110q0 23 15 38t37 15q23 0 38.5 -15.5t15.5 -37.5q0 -23 -15.5 -38.5t-38.5 -15.5q-22 0 -37 15.5t-15 38.5zM-50 -110q0 23 14 38t36 15q23 0 39 -15.5t16 -37.5q0 -23 -16 -38.5t-39 -15.5q-22 0 -36 15t-14 39zM-131 -229q0 22 15.5 37.5t38.5 15.5t38 -15
t15 -38t-15 -38t-38 -15t-38.5 15t-15.5 38zM107 -251q0 21 15 36.5t35 15.5q22 0 37 -15.5t15 -36.5t-15 -35t-37 -14q-21 0 -35.5 14t-14.5 35zM107 -108q0 22 14.5 36.5t35.5 14.5q22 0 37 -14.5t15 -36.5t-14.5 -36t-37.5 -14q-21 0 -35.5 14.5t-14.5 35.5z" />
    <glyph glyph-name="afii57800" unicode="&#x5b2;" 
d="M-182 -141q-19 0 -23 5.5t-4 26.5v6q0 24 3.5 28t23.5 4h211q19 0 22.5 -4t3.5 -28q0 -18 -1 -24t-7.5 -10t-20.5 -4h-208zM108 -251q0 22 14.5 37t35.5 15q22 0 36.5 -15t14.5 -37q0 -21 -14.5 -35t-36.5 -14q-21 0 -35.5 14t-14.5 35zM108 -108q0 22 14.5 36.5
t35.5 14.5q22 0 36.5 -14.5t14.5 -36.5t-14.5 -36t-36.5 -14q-21 0 -35.5 14t-14.5 36z" />
    <glyph glyph-name="afii57802" unicode="&#x5b3;" 
d="M29 -72q19 0 22.5 -4t3.5 -27q0 -25 -4 -32.5t-24 -7.5h-83q-1 -3 -1 -15q0 -18 15.5 -49.5t15.5 -46.5q0 -23 -15 -41t-36 -18t-35.5 18t-14.5 41q0 15 14.5 46.5t14.5 49.5v15h-82q-20 0 -24.5 7.5t-4.5 32.5q0 23 3.5 27t23.5 4h211zM108 -252q0 22 14.5 36.5
t36.5 14.5q21 0 35.5 -14.5t14.5 -36.5q0 -20 -14.5 -34t-35.5 -14q-22 0 -36.5 14t-14.5 34zM108 -110q0 22 14.5 37.5t36.5 15.5q21 0 35.5 -15.5t14.5 -37.5q0 -21 -14.5 -34.5t-35.5 -13.5q-22 0 -36.5 13.5t-14.5 34.5z" />
    <glyph glyph-name="afii57793" unicode="&#x5b4;" 
d="M-52 -108q0 22 15 36.5t37 14.5t37 -14.5t15 -36.5t-15 -36t-37 -14t-37 14t-15 36z" />
    <glyph glyph-name="afii57794" unicode="&#x5b5;" 
d="M-132 -110q0 23 15 38t37 15q24 0 38 -15t14 -38q0 -24 -14 -38.5t-38 -14.5q-23 0 -37.5 15t-14.5 38zM27 -110q0 23 15 38t37 15q23 0 38 -15t15 -38t-15 -38t-38 -15t-37.5 15t-14.5 38z" />
    <glyph glyph-name="afii57795" unicode="&#x5b6;" 
d="M-132 -111q0 23 15 38.5t37 15.5q23 0 37.5 -15.5t14.5 -38.5q0 -24 -14 -38.5t-38 -14.5q-23 0 -37.5 14.5t-14.5 38.5zM27 -111q0 23 15 38.5t37 15.5q23 0 38 -15.5t15 -38.5q0 -24 -15 -38.5t-38 -14.5t-37.5 14.5t-14.5 38.5zM-54 -230q0 22 15.5 37.5t38.5 15.5
t38.5 -15t15.5 -38t-15.5 -39t-38.5 -16t-38.5 16t-15.5 39z" />
    <glyph glyph-name="afii57798" unicode="&#x5b7;" 
d="M-94 -128q-17 0 -20.5 6t-3.5 26v8q0 23 2.5 27t17.5 4h4h188h4q15 0 17.5 -4t2.5 -27q0 -18 -1 -24.5t-6.5 -11t-18.5 -4.5h-186z" />
    <glyph glyph-name="afii57797" unicode="&#x5b8;" 
d="M94 -57q18 0 21 -4t3 -28q0 -18 -1 -24.5t-6.5 -10.5t-18.5 -4h-72v-17q0 -16 16 -48t16 -47q0 -23 -15.5 -41t-36.5 -18t-36.5 18t-15.5 41q0 15 16 47t16 48v5v6v6h-72q-18 0 -22 7t-4 32q0 24 3 28t21 4h188z" />
    <glyph glyph-name="afii57806" unicode="&#x5b9;" 
d="M-56 799q0 22 16.5 38t39.5 16t39.5 -16t16.5 -38q0 -24 -16.5 -40.5t-39.5 -16.5t-39.5 16.5t-16.5 40.5z" />
    <glyph glyph-name="uni05BA" unicode="&#x5ba;" 
d="M-56 799q0 22 16.5 38t39.5 16t39.5 -16t16.5 -38q0 -24 -16.5 -40.5t-39.5 -16.5t-39.5 16.5t-16.5 40.5z" />
    <glyph glyph-name="afii57796" unicode="&#x5bb;" 
d="M56 -271q0 22 15.5 36.5t36.5 14.5q22 0 36 -14t14 -37q0 -22 -14 -35.5t-36 -13.5q-21 0 -36.5 14t-15.5 35zM-158 -109q0 21 15 36.5t37 15.5t37 -15.5t15 -36.5q0 -22 -14.5 -35.5t-37.5 -13.5t-37.5 13.5t-14.5 35.5zM-50 -190q0 20 14.5 34t35.5 14q22 0 37 -14
t15 -34q0 -21 -15 -36t-37 -15q-21 0 -35.5 15t-14.5 36z" />
    <glyph glyph-name="afii57807" unicode="&#x5bc;" 
d="M-52 335q0 21 15 36.5t37 15.5t37 -15.5t15 -36.5t-15 -36.5t-37 -15.5t-37 15.5t-15 36.5z" />
    <glyph glyph-name="afii57645" unicode="&#x5be;" horiz-adv-x="482" 
d="M407 637q41 0 41 -15q0 -4 -2 -11t-6 -19.5t-7 -24.5l-3 -12q-3 -8 -8 -21t-7 -17t-5.5 -11.5t-6 -9t-6 -5t-9 -3.5t-11.5 -0.5t-16 -0.5h-286q-19 0 -24.5 2t-5.5 12q0 11 13 52l4 14q20 53 29 61.5t49 8.5h267z" />
    <glyph glyph-name="rafe" unicode="&#x5bf;" 
d="M-133 715q-18 0 -18 9v9l25 58q7 15 13 16h246q18 0 18 -9q0 -5 -2 -9l-18 -58q-8 -16 -19 -16h-245z" />
    <glyph glyph-name="afii57804" unicode="&#x5c1;" 
d="M-56 756q0 23 16.5 39.5t39.5 16.5t39.5 -16.5t16.5 -39.5t-16.5 -38.5t-39.5 -15.5t-39.5 15.5t-16.5 38.5z" />
    <glyph glyph-name="afii57803" unicode="&#x5c2;" 
d="M-56 756q0 23 16.5 39.5t39.5 16.5t39.5 -16.5t16.5 -39.5t-16.5 -38.5t-39.5 -15.5t-39.5 15.5t-16.5 38.5z" />
    <glyph glyph-name="afii57658" unicode="&#x5c3;" horiz-adv-x="263" 
d="M78 137q43 41 54 41q15 0 48 -35q40 -40 40 -53t-33 -47q-5 -4 -7 -7q-36 -36 -48 -36q-11 0 -42 30l-8 8q-38 38 -38 52q0 11 34 47zM76 536q14 14 19 18.5t13.5 11.5t13.5 9t10 2q11 0 48 -35q40 -40 40 -53t-33 -47q-5 -4 -7 -7q-36 -36 -48 -36q-13 0 -45 31l-7 7
q-36 36 -36 52q0 14 32 47z" />
    <glyph glyph-name="uni05C7" unicode="&#x5c7;" 
d="M20 -155q0 -60 14 -87t14 -47q0 -23 -13 -39.5t-35 -16.5t-37 16.5t-15 39.5q0 20 14.5 47t14.5 87v28h-62q-14 0 -18 6t-4 20v14q0 23 3 26.5t20 3.5h167q18 0 21 -3.5t3 -26.5t-5 -31.5t-20 -8.5h-60q0 -1 -0.5 -5t-1 -10.5t-0.5 -12.5z" />
    <glyph glyph-name="afii57664" unicode="&#x5d0;" horiz-adv-x="565" 
d="M208 66q0 -19 -37 -53t-60 -34q-1 0 -3 1h-2q-21 0 -21 42v27q0 12 -1.5 75t-1.5 77v32q0 84 14 138.5t51 92.5q-52 0 -73.5 22.5t-21.5 76.5q0 74 37 74h38q15 131 71 220q19 30 85 30q29 0 51.5 -14.5t22.5 -39.5q0 -29 -25.5 -52t-63 -44t-50.5 -37q-26 -30 -41 -63
h120q123 0 173.5 -80.5t50.5 -225.5q0 -68 -29 -142.5t-66 -118.5q-39 -47 -71 -47q-24 0 -43.5 15t-19.5 34q0 14 11 20q78 43 121 110q41 68 41 132q0 57 -33.5 93.5t-88.5 36.5h-128q-9 0 -21 -8t-24.5 -30.5t-12.5 -54.5v-4q0 -35 25.5 -149t25.5 -152z" />
    <glyph glyph-name="afii57665" unicode="&#x5d1;" horiz-adv-x="488" 
d="M160 464q-52 0 -72 22.5t-20 76.5q0 39 14 106q2 5 4 10.5t2.5 7.5t3.5 4t7.5 2.5t13.5 0.5q18 0 22 -3.5t11 -21.5q5 -12 21.5 -22t32.5 -10h190q25 0 25 -18q0 -7 -3 -21l-39 -126q-1 -3 -1 -8q0 -10 6 -26q9 -26 27.5 -63t28.5 -67t10 -66q0 -73 -63.5 -137.5
t-147 -98t-153.5 -33.5q-22 0 -30.5 8.5t-8.5 29.5q0 15 3 41q13 70 22 82q10 15 35 15h169q48 0 71.5 14.5t23.5 34.5q0 36 -89 104q-10 11 -10 24q0 8 5 35q4 16 37 103h-148z" />
    <glyph glyph-name="afii57666" unicode="&#x5d2;" horiz-adv-x="463" 
d="M401 32q0 -39 -20 -39q-27 0 -32 4.5t-5 32.5v58q-5 19 -36 19q-24 0 -38 -11q-12 -11 -35 -49q-19 -33 -38.5 -47.5t-54.5 -14.5q-36 0 -66 15q-33 19 -38 45q28 9 40 25t21 50q11 36 42 58q26 17 59 17q52 0 140 -52q4 11 4 26q0 10 -2 29t-2 27q0 141 -70 212
q-32 33 -73 50q-12 5 -19 8.5t-14 12t-7 20.5q0 61 39 107q11 13 14.5 16.5t10 7t15.5 3.5q50 0 118 -70q44 -45 44 -159q0 -42 1.5 -142t1.5 -159v-100z" />
    <glyph glyph-name="afii57667" unicode="&#x5d3;" horiz-adv-x="552" 
d="M139 463q-52 0 -72 22.5t-20 76.5q0 40 14 106q2 4 3.5 10t2.5 7.5t4 4t7.5 3t13.5 0.5q18 0 22 -3.5t11 -21.5q5 -11 21.5 -21t32.5 -10h278q18 0 27.5 -18.5t9.5 -45.5q0 -30 -9.5 -55.5t-25.5 -30.5q-16 -7 -16 -30q0 -12 6 -32q1 -2 1 -9q0 -15 -5.5 -45.5
t-17.5 -81.5t-20 -82.5t-25 -97.5t-20 -78q-15 -58 -44 -58q-16 0 -62 33q-37 34 -37 72q0 31 23 71l114 218q37 64 37 80t-27 16h-227z" />
    <glyph glyph-name="afii57668" unicode="&#x5d4;" horiz-adv-x="600" 
d="M98 356q13 0 16.5 -3.5t6.5 -17.5q6 -39 19.5 -67.5t33 -46t38 -28t42.5 -21.5q8 -3 12 -5q6 -2 18 -6.5t15 -6t11 -5t9.5 -6t6 -5.5t4.5 -8t2.5 -10t2 -13.5t0 -16.5t0.5 -22q0 -55 -9.5 -77t-37.5 -22q-20 0 -48 9q-58 27 -91 62t-53.5 107.5t-20.5 187.5q1 8 3.5 12.5
t6.5 6t13 2.5zM457 202q42 68 42 132q0 52 -46.5 91t-95.5 39h-206q-52 0 -72 22.5t-20 76.5q0 17 1.5 32.5t3 24t5.5 24.5t6 25q2 5 3.5 10.5t2 7.5t3.5 4t7.5 2.5t13.5 0.5q17 0 21.5 -3.5t10.5 -21.5q5 -12 21.5 -22t32.5 -10h140q63 0 108 -22.5t69.5 -65t35.5 -95.5
t11 -123q0 -87 -18 -156t-57 -69q-45 0 -45 36q0 26 22 60z" />
    <glyph glyph-name="afii57669" unicode="&#x5d5;" horiz-adv-x="344" 
d="M44 522q0 61 39 107q11 13 14.5 16.5t10 7t15.5 3.5q53 0 115 -63q41 -42 41 -168q0 -43 -0.5 -140t-0.5 -160v-103q0 -16 -7.5 -26t-17.5 -10q-23 0 -27.5 5t-4.5 32v195q0 136 -74 212q-30 31 -63 51q-3 2 -12.5 7t-14 8t-9 10t-4.5 16z" />
    <glyph glyph-name="afii57670" unicode="&#x5d6;" horiz-adv-x="312" 
d="M254 530q0 -32 -23 -59t-45.5 -51.5t-22.5 -50.5q0 -15 7 -32q27 -65 27 -129q0 -52 -18 -132q-20 -88 -39 -99q-7 -4 -20 -4h-11q-12 2 -11 7v3v7v226q0 136 -8 182q-5 24 -20.5 61t-15.5 58q0 15 6 33q7 23 35 46q64 56 115 56q11 0 23 -32q21 -61 21 -90z" />
    <glyph glyph-name="afii57671" unicode="&#x5d7;" horiz-adv-x="564" 
d="M186 637h110q123 0 173.5 -80.5t50.5 -225.5q0 -68 -29 -142.5t-66 -118.5q-39 -47 -71 -47q-24 0 -43.5 15t-19.5 34q0 14 11 20q78 43 121 110q41 68 41 132q0 57 -33.5 93.5t-88.5 36.5h-128q-9 0 -21 -8t-24.5 -30.5t-12.5 -54.5v-4q0 -35 25.5 -149t25.5 -152
q0 -19 -37 -53t-60 -34q-1 0 -3 1h-2q-21 0 -21 42v27q0 12 -1.5 75t-1.5 77v32q0 84 14 138.5t51 92.5q-52 0 -72 22.5t-20 76.5q0 39 14 106q2 4 3 9t2 7t2.5 4.5t4.5 3t7.5 1t11.5 0.5q18 0 22 -3.5t11 -21.5q5 -12 21.5 -22t32.5 -10z" />
    <glyph glyph-name="afii57672" unicode="&#x5d8;" horiz-adv-x="654" 
d="M181 -101q-2 0 -10 1.5t-14 1.5q-10 0 -11 2.5t3 18.5q32 147 32 279q0 223 -98 295q-3 2 -15.5 8.5t-18.5 13.5t-6 18q0 61 39 107q23 27 40 27q27 0 39 -7t25 -37q32 -73 42 -164.5t10 -221.5v-86q16 -2 39 -6t41.5 -6.5t39.5 -2.5q80 0 136 57t56 138q0 66 -45.5 114
t-111.5 48q-15 0 -26.5 -3t-29.5 -12t-25 -12q-13 -5 -16 -5q-5 0 -12 19q-1 2 -3 7t-3.5 8.5t-1.5 5.5q77 117 145 176q2 0 27 -9q76 -27 119 -119t43 -207q0 -95 -28.5 -177t-93.5 -137.5t-155 -55.5q-21 0 -38.5 3t-38.5 8t-36 7q-6 -30 -13 -58l-2.5 -7.5t-2 -6.5
t-1.5 -5.5t-1.5 -5t-2 -4t-2.5 -3.5t-2.5 -2t-3 -1.5t-3.5 -1t-5 -0.5z" />
    <glyph glyph-name="afii57673" unicode="&#x5d9;" horiz-adv-x="340" 
d="M157 242q-9 0 -32 28q0 3 1 5t3 4l3 3q19 19 26 28q43 57 43 88q0 13 -4 26q-6 13 -57 32.5t-65 32.5q-28 25 -28 67t29 110q3 7 4 9t4 5t8 3.5t14 0.5q13 2 15 0.5t2 -8.5v-3q3 -22 16.5 -37t24 -19.5t37.5 -15.5q44 -17 63.5 -42t19.5 -75q0 -62 -31 -124.5t-78 -107.5
q-11 -11 -18 -10z" />
    <glyph glyph-name="afii57674" unicode="&#x5da;" horiz-adv-x="493" 
d="M398 175q4 -31 16.5 -102t21 -138.5t8.5 -128.5q0 -72 -38 -110t-71 -38q-11 0 -19.5 11t-8.5 31v352q0 236 19 322q9 36 31 90h-218q-52 0 -72 22.5t-20 76.5t14 106q1 3 2 8t1.5 6.5t2 4.5t3 3.5l4.5 1.5t7 1h11q18 0 22 -3.5t11 -21.5q5 -12 21.5 -22t32.5 -10h128
q58 0 90.5 -34t32.5 -94q0 -49 -18 -102q-22 -63 -22 -138q0 -46 8 -94z" />
    <glyph glyph-name="afii57675" unicode="&#x5db;" horiz-adv-x="499" 
d="M394 346q0 62 -32.5 90t-99.5 28h-121q-52 0 -72 22.5t-20 76.5q0 59 14 106q1 3 2 8t1.5 6.5t2 4.5t3 3.5l4.5 1.5t7 1h11q18 0 22 -3.5t11 -21.5q5 -12 21.5 -22t32.5 -10h134q9 0 17 -2t16 -6.5t13 -7.5t12.5 -11.5t10 -11t10 -12.5t8.5 -11q50 -65 50 -193
q0 -82 -21.5 -158.5t-57.5 -116.5q-54 -61 -115.5 -91.5t-148.5 -30.5q-28 0 -35.5 13.5t-7.5 52.5v55q0 34 16 44t54 10q37 0 103 12q115 25 149 116q6 21 6 58z" />
    <glyph glyph-name="afii57676" unicode="&#x5dc;" horiz-adv-x="414" 
d="M361 469q8 -61 8 -111q0 -206 -103 -316q-53 -58 -163 -84q-4 -1 -10 -1q-31 0 -31 54q0 23 8 71q1 6 2.5 15.5t2 12.5t2 9t3.5 8t6 5.5t9 5t12 3.5q43 12 66 19.5t54 22.5t46 31.5t26.5 44.5t11.5 64q0 24 -12.5 45.5t-25.5 35t-42.5 30t-40.5 21.5t-43 19
q-20 9 -25.5 17.5t-5.5 27.5v233q0 28 -3 47t-10.5 30.5t-13.5 17.5t-18.5 15t-18.5 14q-15 12 -15 30q0 10 7 43q10 52 38 52q10 0 24 -6q65 -30 85 -44.5t20 -36.5q0 -1 -0.5 -4t-0.5 -5l-32 -250q9 -4 25.5 -9.5t28 -10.5t20.5 -12q95 -64 109 -154z" />
    <glyph glyph-name="afii57677" unicode="&#x5dd;" horiz-adv-x="620" 
d="M429 464h-170q-35 0 -58 -15t-33 -43t-13.5 -53.5t-3.5 -61.5q0 -68 57.5 -109.5t133.5 -41.5q71 0 124.5 43.5t53.5 108.5q0 42 -8 79t-29.5 65t-53.5 28zM142 464q-65 7 -65 99q0 39 14 106q2 4 3 9t2 7t2.5 4.5t4.5 3t7.5 1t11.5 0.5q18 0 22 -3.5t11 -21.5
q5 -12 21.5 -22t32.5 -10h142q225 0 225 -302q0 -68 -17.5 -132.5t-49.5 -117.5t-84 -85t-116 -32q-106 0 -174.5 86.5t-68.5 201.5q0 69 15.5 115t60.5 93z" />
    <glyph glyph-name="afii57678" unicode="&#x5de;" horiz-adv-x="632" 
d="M40 24q0 13 5 24t9 15t15 12t13 10q51 44 74 101t23 149q0 74 -73 141q-4 4 -14.5 13.5t-15 14t-9 13.5t-4.5 19q0 4 2 16q7 23 25.5 53.5t31.5 42.5q11 7 22 7q14 0 32 -15q37 -29 69 -146q4 -3 6 -0.5t6 11.5l21 35q31 58 53 86q19 23 27 28q17 4 37 4q57 0 99 -38
t64 -92q29 -70 29 -172q0 -156 -53 -249q-42 -75 -100 -107q-32 -18 -65 -18q-29 0 -42 20t-13 45q0 7 2 15q15 29 70 45q142 41 142 185q0 27 -4 51q-4 29 -35.5 68t-56.5 49q-28 11 -66 11q-73 0 -118 -33q-1 -5 -1 -9t1 -11.5t1 -9.5q0 -186 -37 -300q-26 -77 -53 -108
q-14 -18 -25 -25t-28 -7q-66 0 -66 56z" />
    <glyph glyph-name="afii57679" unicode="&#x5df;" horiz-adv-x="317" 
d="M186 428q-92 34 -117 62.5t-25 81.5q0 54 14 106q1 3 2 8t1.5 6.5t2 4.5t3 3.5t5 1.5t7.5 1h11q17 0 21.5 -3.5t10.5 -21.5q4 -11 21 -27.5t31 -23.5q44 -21 62 -44.5t18 -70.5q-6 -46 -18 -99q-3 -15 -17 -51.5t-14 -59.5q0 -19 3 -41t8 -45.5t5 -24.5q4 -31 16.5 -102
t21 -138.5t8.5 -128.5q0 -72 -38 -110t-71 -38q-11 0 -19.5 11t-8.5 31v352q0 40 -6.5 110t-6.5 98q0 62 22 96q8 12 20 22t27 34z" />
    <glyph glyph-name="afii57680" unicode="&#x5e0;" horiz-adv-x="370" 
d="M82 -36q-4 -1 -10 -1q-31 0 -31 55q0 19 8 70q1 6 2.5 15.5t2 12.5t2 9t3.5 8t6 5.5t9 5t12 3.5q49 13 77 24.5t55 31.5t38.5 51t11.5 76q0 57 -30 85t-87 49q-25 9 -62 28q-13 7 -13 40q0 41 51 111q7 10 20 10q2 0 10.5 -0.5t14.5 -0.5q27 0 59 -23q66 -44 83 -154
q8 -59 8 -109q0 -206 -105 -318q-59 -64 -135 -84z" />
    <glyph glyph-name="afii57681" unicode="&#x5e1;" horiz-adv-x="601" 
d="M367 464h-106q-35 0 -58 -15t-33 -43t-13.5 -53.5t-3.5 -61.5q0 -68 57.5 -109.5t133.5 -41.5q62 0 108.5 48t46.5 107q0 169 -132 169zM75 256q0 73 12.5 117.5t56.5 90.5q-65 7 -65 99q0 39 14 106q2 4 3 9t2 7t2.5 4.5t4.5 3t7.5 1t11.5 0.5q18 0 22 -3.5t11 -21.5
q5 -11 21.5 -20t32.5 -9h118q56 0 98.5 -20t66 -50t38 -72.5t19 -80t4.5 -79.5q0 -64 -14.5 -127t-42.5 -118.5t-76.5 -90t-110.5 -34.5q-60 0 -112.5 39t-75.5 95q0 -5 -1 -14t-1 -13q0 -29 14 -74t14 -76q0 -23 -18 -38t-42 -15q-20 0 -32 17t-12 39q0 27 4.5 46.5
t10.5 36.5t10.5 79.5t4.5 165.5z" />
    <glyph glyph-name="afii57682" unicode="&#x5e2;" horiz-adv-x="601" 
d="M261 570q0 -32 -8.5 -92t-8.5 -122q0 -33 3.5 -104t3.5 -109q22 0 67 9q73 14 104.5 33t57.5 68q21 40 21 84q0 47 -25 79q-30 36 -98 50q-10 2 -42 14q-15 5 -15 25q0 19 13 52q22 56 37 79q13 20 33 20t46 -20q49 -35 77 -102t28 -152q0 -116 -49 -214t-130 -139
q-118 -62 -242 -62q-40 0 -83 6q-10 1 -10 40q0 45 11 102q2 12 10 14.5t27 2.5h70q22 0 29.5 4.5t7.5 18.5q0 135 -19 238q-8 35 -13 44.5t-24 24.5q-41 30 -46 67q0 7 4 31.5t16 57t28 39.5q8 2 13 2q6 0 13.5 -2t12.5 -4.5t13 -7.5t11.5 -7.5t11 -9t9.5 -7.5
q11 -9 23 -25t12 -26z" />
    <glyph glyph-name="afii57683" unicode="&#x5e3;" horiz-adv-x="580" 
d="M531 -218q0 -72 -38 -110t-71 -38q-11 0 -19.5 11t-8.5 31v477q0 128 39 203q4 7 4 17q0 26 -78.5 73.5t-136.5 47.5q-25 0 -36 -7.5t-29 -31.5q-19 -25 -19 -59q0 -36 20 -68q19 -31 78 -71q6 -4 14.5 -9.5t11 -6.5t7.5 -6t6 -7t3.5 -9.5t3.5 -14t3 -20.5q3 -24 3 -30
q0 -20 -9 -25q-27 -17 -63 -17q-73 0 -112 61t-39 151q0 96 46 182.5t117 117.5q31 14 65 14q49 0 104.5 -27.5t81.5 -49.5t36 -33t10 -23v-11q0 -27 -26 -111q-21 -62 -21 -140q0 -38 7 -92q4 -28 17 -101.5t21 -139.5t8 -128z" />
    <glyph glyph-name="afii57684" unicode="&#x5e4;" horiz-adv-x="587" 
d="M114 464q-44 24 -44 99q0 59 14 106q1 3 2 8t1.5 6.5t2 4.5t3 3.5l4.5 1.5t7 1h11q18 0 22 -3.5t11 -21.5q5 -12 21.5 -22t32.5 -10h152q36 0 72 -20t54 -42q63 -82 63 -193q0 -82 -24.5 -169.5t-60.5 -127.5q-50 -56 -141.5 -89t-185.5 -33q-29 0 -40 15t-11 52v55
q0 33 19 43t59 10q69 0 108 7q62 12 101.5 25t60.5 32t29 33t18 42q3 7 4 11q6 21 6 58q0 69 -50.5 93.5t-144.5 24.5q-114 0 -114 -75q7 -11 20.5 -25t21 -26t7.5 -28q0 -21 -33 -55.5t-54 -34.5t-46 33t-25 67q0 18 6.5 35t12 25t22 27t20.5 24q13 15 13 18q0 6 -27 15z
" />
    <glyph glyph-name="afii57685" unicode="&#x5e5;" horiz-adv-x="468" 
d="M412 637q0 -69 -23.5 -107.5t-107.5 -65.5q-10 -36 -16.5 -96.5t-6.5 -92.5q0 -3 -0.5 -10.5t-0.5 -11.5q0 -62 10 -142q3 -24 13 -82.5t14 -104.5t4 -108q0 -73 -35.5 -119.5t-65.5 -46.5q-48 0 -48 171q0 96 14 215q36 314 61 428q-48 0 -86.5 11t-67 42t-28.5 79
q0 30 12 68q14 23 24 23q11 0 37 -25q59 -33 122 -33q64 0 122 33q8 5 17.5 13.5t15.5 14t10 5.5q10 0 10 -58z" />
    <glyph glyph-name="afii57686" unicode="&#x5e6;" horiz-adv-x="395" 
d="M167 626q64 0 113.5 -46t58.5 -103q8 -59 8 -109q0 -217 -93 -317q-44 -48 -64 -61q-40 -25 -108 -25q-2 0 -5.5 -0.5t-4.5 -0.5q-31 0 -31 55q0 19 8 70q1 6 2.5 15.5t2 12.5t2 9t3.5 8t6 5.5t9 5t12 3.5q106 29 138 47q73 40 73 128q0 60 -30 89t-105 52
q-10 3 -25.5 5.5t-25.5 6t-19 11.5q-7 6 -13 29t-6 46q0 19 3.5 35t14 33.5t15.5 25.5t23.5 30t23.5 28q12 15 23.5 40t19 39.5t30 26t61.5 11.5q27 0 45.5 -13.5t18.5 -41.5q0 -24 -21 -40t-48.5 -25.5t-61 -31.5t-53.5 -53z" />
    <glyph glyph-name="afii57687" unicode="&#x5e7;" horiz-adv-x="568" 
d="M171 360q0 -15 -6 -39q-12 -41 -12 -91q0 -12 0.5 -24t1.5 -21.5t2.5 -19t3 -16t2.5 -11.5t1 -8l1 -3q0 -27 19.5 -139.5t19.5 -189.5q0 -71 -38 -105t-73 -34q-11 0 -19.5 11.5t-8.5 31.5v345q0 249 60 320q16 18 30 18q16 0 16 -25zM150 464q-52 0 -72 22.5t-20 76.5
t14 106q1 3 2 8t1.5 6.5t2 4.5t3 3.5l4.5 1.5t7 1h11q18 0 22 -3.5t11 -21.5q5 -12 21.5 -22t32.5 -10h110q123 0 173.5 -80.5t50.5 -225.5q0 -68 -29 -142.5t-66 -118.5q-39 -47 -71 -47q-24 0 -43.5 15t-19.5 34q0 14 11 20q81 44 121 110q41 66 41 132q0 57 -33.5 93.5
t-88.5 36.5h-196z" />
    <glyph glyph-name="afii57688" unicode="&#x5e8;" horiz-adv-x="536" 
d="M140 464q-52 0 -72 22.5t-20 76.5q0 39 14 106q2 4 3 9t2 7t2.5 4.5t4.5 3t7.5 1t11.5 0.5q18 0 22 -3.5t11 -21.5q5 -12 21.5 -22t32.5 -10h122q42 0 74.5 -16.5t52.5 -46t33 -61.5t19 -72.5t8 -69t2 -59.5q0 -72 -26 -147.5t-74 -137.5q-35 -47 -71 -47q-24 0 -43.5 15
t-19.5 34q0 7 11 20q15 16 38.5 38t37.5 37.5t27 35.5q59 85 59 131q0 67 -23.5 120t-74.5 53h-192z" />
    <glyph glyph-name="afii57689" unicode="&#x5e9;" horiz-adv-x="574" 
d="M104 464q0 11 -29 19t-29 23l58 159q10 22 16.5 29.5t20.5 7.5q17 0 21 -3t7 -20q15 -39 60 -39q17 0 55 -1.5t57 -1.5q89 0 116 33q5 6 8.5 12t5 8t4.5 4.5t8.5 3t15.5 0.5q22 0 22 -20q0 -4 -1.5 -12.5t-1.5 -11.5q-17 -100 -48 -141q-16 -22 -56.5 -35.5t-88.5 -13.5
h-157q0 -20 -2 -107t-2 -108q0 -6 -1.5 -23.5t-1.5 -26.5q0 -16 4 -23q42 -21 133 -21q119 0 158 127q8 26 8 44q0 19 5 24t25 5q19 0 23 -5.5t4 -29.5q0 -63 -19 -146t-51 -129q-17 -24 -54.5 -38t-84.5 -14q-12 0 -54.5 5t-59.5 5q-20 0 -29.5 -9t-16.5 -32
q-11 -35 -23.5 -44.5t-51.5 -9.5q0 101 13.5 287.5t13.5 268.5z" />
    <glyph glyph-name="afii57690" unicode="&#x5ea;" horiz-adv-x="588" 
d="M232 66q0 -27 -9 -45.5t-20.5 -27.5t-32.5 -14t-34 -5.5t-36 -0.5q-60 0 -60 77q0 32 7 48.5t33 40.5q5 5 14 10t13.5 11t4.5 16q0 11 -4 24q-16 58 -16 135q0 87 78 129q-52 0 -72 22.5t-20 76.5q0 59 14 106q1 3 2 8t1.5 6.5t2 4.5t3 3.5t5 1.5t7.5 1h11
q17 0 21.5 -3.5t10.5 -21.5q5 -12 21.5 -22t32.5 -10h110q64 0 109 -22.5t69.5 -65t35 -95.5t10.5 -123q0 -68 -28.5 -143t-65.5 -118q-39 -47 -72 -47q-23 0 -42.5 15t-19.5 34q0 13 10 20q71 35 116.5 98t45.5 144q0 57 -33 93.5t-89 36.5h-128q-7 0 -23 -14t-31.5 -43
t-15.5 -61q0 -34 32 -138t32 -142z" />
    <glyph glyph-name="afii57716" unicode="&#x5f0;" horiz-adv-x="701" 
d="M402 526q0 61 39 107q11 13 14.5 16.5t10 7t15.5 3.5q53 0 115 -63q41 -42 41 -168q0 -43 -0.5 -140t-0.5 -160v-103q0 -16 -7.5 -26t-17.5 -10q-23 0 -27.5 5t-4.5 32v195q0 136 -74 212q-30 31 -63 51q-3 2 -12.5 7t-14 8t-9 10t-4.5 16zM44 523q0 61 39 107
q11 13 14.5 16.5t10 7t15.5 3.5q53 0 115 -63q41 -42 41 -168q0 -43 -0.5 -140t-0.5 -160v-103q0 -16 -7.5 -26t-17.5 -10q-23 0 -27.5 5t-4.5 32v195q0 136 -74 212q-30 31 -63 51q-3 2 -12.5 7t-14 8t-9 10t-4.5 16z" />
    <glyph glyph-name="afii57717" unicode="&#x5f1;" horiz-adv-x="696" 
d="M157 262q-9 0 -32 28q0 3 1 5t3 4l3 3q19 19 26 28q43 57 43 88q0 13 -4 26q-6 13 -57 32.5t-65 32.5q-28 25 -28 67t29 110q3 7 4 9t4 5t8 3.5t14 0.5q13 2 15 0.5t2 -8.5v-3q3 -22 16.5 -37t24 -19.5t37.5 -15.5q44 -17 63.5 -42t19.5 -75q0 -62 -31 -124.5t-78 -107.5
q-11 -11 -18 -10zM396 520q0 61 39 107q11 13 14.5 16.5t10 7t15.5 3.5q53 0 115 -63q41 -42 41 -168q0 -43 -0.5 -140t-0.5 -160v-103q0 -16 -7.5 -26t-17.5 -10q-23 0 -27.5 5t-4.5 32v195q0 136 -74 212q-30 31 -63 51q-3 2 -12.5 7t-14 8t-9 10t-4.5 16z" />
    <glyph glyph-name="afii57718" unicode="&#x5f2;" horiz-adv-x="664" 
d="M481 244q-9 0 -32 28q0 3 1 5t3 4l3 3q19 19 26 28q43 57 43 88q0 13 -4 26q-6 13 -57 32.5t-65 32.5q-28 25 -28 67t29 110q3 7 4 9t4 5t8 3.5t14 0.5q13 2 15 0.5t2 -8.5v-3q3 -22 16.5 -37t24 -19.5t37.5 -15.5q44 -17 63.5 -42t19.5 -75q0 -62 -31 -124.5t-78 -107.5
q-11 -11 -18 -10zM157 242q-9 0 -32 28q0 3 1 5t3 4l3 3q19 19 26 28q43 57 43 88q0 13 -4 26q-6 13 -57 32.5t-65 32.5q-28 25 -28 67t29 110q3 7 4 9t4 5t8 3.5t14 0.5q13 2 15 0.5t2 -8.5v-3q3 -22 16.5 -37t24 -19.5t37.5 -15.5q44 -17 63.5 -42t19.5 -75
q0 -62 -31 -124.5t-78 -107.5q-11 -11 -18 -10z" />
    <glyph glyph-name="uni05F3" unicode="&#x5f3;" horiz-adv-x="200" 
d="M74 454q-9 -12 -24 -4q-8 8 -8 20q18 63 18 82q0 16 -10 59.5t-10 64.5q0 24 10.5 42t29.5 18q31 0 55.5 -26t24.5 -62q0 -55 -21.5 -97t-64.5 -97z" />
    <glyph glyph-name="uni05F4" unicode="&#x5f4;" horiz-adv-x="354" 
d="M205 656q0 33 11 59t35 26q1 0 3.5 -0.5t3.5 -0.5q24 -4 44 -28.5t20 -55.5q0 -11 -1 -16q-10 -55 -37.5 -93t-78.5 -84q-6 -4 -15 -2.5t-11 3.5q-9 11 -5 20q1 3 5.5 12.5t5.5 12t4.5 10.5t4.5 11t3.5 10t3.5 11.5t2 11t1.5 12.5t0.5 13v68zM60 552q0 16 -10 59.5
t-10 64.5q0 24 10.5 42t29.5 18q31 0 55.5 -26t24.5 -62q0 -55 -21.5 -97t-64.5 -97q-3 -4 -11.5 -5.5t-12.5 1.5q-8 8 -8 20q18 63 18 82z" />
    <glyph glyph-name="afii57636" unicode="&#x20aa;" horiz-adv-x="1493" 
d="M232 637h110q123 0 173.5 -80.5t50.5 -225.5q0 -68 -29 -142.5t-66 -118.5q-39 -47 -71 -47q-24 0 -43.5 15t-19.5 34q0 14 11 20q78 43 121 110q41 68 41 132q0 57 -33.5 93.5t-88.5 36.5h-128q-9 0 -21 -8t-24.5 -30.5t-12.5 -54.5v-4q0 -35 25.5 -149t25.5 -152
q0 -19 -37 -53t-60 -34h-5q-21 0 -21 43v27q0 12 -1.5 75t-1.5 77v32q0 84 14 138.5t51 92.5q-52 0 -72 22.5t-20 76.5q0 39 14 106q2 4 3 9t2 7t2.5 4.5t4.5 3t7.5 1t11.5 0.5q18 0 22 -3.5t11 -21.5q5 -12 21.5 -22t32.5 -10zM784 679q0 34 11 59.5t35 25.5q1 0 3 -0.5
t3 -0.5q25 -4 44.5 -28.5t19.5 -55.5v-16q-11 -55 -38.5 -93t-77.5 -84q-7 -4 -15.5 -2.5t-10.5 3.5q-9 11 -6 20q2 4 7.5 15.5t7 15.5t5.5 13t5.5 14.5t3.5 13.5t2.5 15.5t0.5 16.5v68zM638 575q0 16 -10 59.5t-10 64.5q0 24 10.5 42t29.5 18q31 0 55.5 -25.5t24.5 -62.5
q0 -55 -21.5 -97t-64.5 -97q-3 -4 -11.5 -5.5t-12.5 1.5q-8 8 -8 20q18 63 18 82zM976 464q0 11 -29 19t-29 23l58 159q10 22 16.5 29.5t20.5 7.5q17 0 21 -3t7 -20q15 -39 60 -39q17 0 55 -1.5t57 -1.5q89 0 116 33q5 6 8.5 12t5 8t4.5 4.5t8.5 3t15.5 0.5q22 0 22 -20
q0 -4 -1.5 -12.5t-1.5 -11.5q-17 -100 -48 -141q-16 -22 -56.5 -35.5t-88.5 -13.5h-157q0 -20 -2 -107t-2 -108q0 -6 -1.5 -23.5t-1.5 -26.5q0 -16 4 -23q42 -21 133 -21q119 0 158 127q8 26 8 44q0 19 5 24t25 5q19 0 23 -5.5t4 -29.5q0 -63 -19 -146t-51 -129
q-17 -24 -54.5 -38t-84.5 -14q-12 0 -54.5 5t-59.5 5q-20 0 -29.5 -9t-16.5 -32q-11 -35 -23.5 -44.5t-51.5 -9.5q0 101 13.5 287.5t13.5 268.5z" />
    <glyph glyph-name="uniFB1D" unicode="&#xfb1d;" horiz-adv-x="340" 
d="M68 109q0 22 15 36.5t37 14.5t37 -14.5t15 -36.5t-15 -36t-37 -14t-37 14t-15 36zM157 242q-9 0 -32 28q0 3 1 5t3 4l3 3q19 19 26 28q43 57 43 88q0 13 -4 26q-6 13 -57 32.5t-65 32.5q-28 25 -28 67t29 110q3 7 4 9t4 5t8 3.5t14 0.5q13 2 15 0.5t2 -8.5v-3
q3 -22 16.5 -37t24 -19.5t37.5 -15.5q44 -17 63.5 -42t19.5 -75q0 -62 -31 -124.5t-78 -107.5q-11 -11 -18 -10z" />
    <glyph glyph-name="uniFB1F" unicode="&#xfb1f;" horiz-adv-x="664" 
d="M184.346 60.2031q-22.001 0 -26.5303 5.89648q-4.53027 5.89648 -4.53027 25.5527v7.8623q0 22.6045 3.23633 26.5352q3.23535 3.93164 22.6484 3.93164h5.17578h243.309h5.17578q19.4131 0 22.6484 -3.93164q3.23633 -3.93066 3.23633 -26.5352
q0 -17.6904 -1.29492 -24.0781q-1.29395 -6.38867 -8.41211 -10.8105q-7.11816 -4.42285 -23.9424 -4.42285h-240.72zM481 244q-9 0 -32 28q0 3 1 5t3 4l3 3q19 19 26 28q43 57 43 88q0 13 -4 26q-6 13 -57 32.5t-65 32.5q-28 25 -28 67t29 110q3 7 4 9t4 5t8 3.5t14 0.5
q13 2 15 0.5t2 -8.5v-3q3 -22 16.5 -37t24 -19.5t37.5 -15.5q44 -17 63.5 -42t19.5 -75q0 -62 -31 -124.5t-78 -107.5q-11 -11 -18 -10zM157 242q-9 0 -32 28q0 3 1 5t3 4l3 3q19 19 26 28q43 57 43 88q0 13 -4 26q-6 13 -57 32.5t-65 32.5q-28 25 -28 67t29 110q3 7 4 9
t4 5t8 3.5t14 0.5q13 2 15 0.5t2 -8.5v-3q3 -22 16.5 -37t24 -19.5t37.5 -15.5q44 -17 63.5 -42t19.5 -75q0 -62 -31 -124.5t-78 -107.5q-11 -11 -18 -10z" />
    <glyph glyph-name="uniFB29" unicode="&#xfb29;" horiz-adv-x="657" 
d="M110 279q-40 0 -48 7.5t-8 48.5q0 40 7.5 47.5t47.5 7.5h165v158q0 40 7.5 48t48.5 8q40 0 47.5 -7.5t7.5 -47.5v-159h174q31 0 37 -9t6 -46q0 -40 -7.5 -48t-38.5 -8h-446z" />
    <glyph glyph-name="uniFB4B" unicode="&#xfb4b;" horiz-adv-x="344" 
d="M162 799q0 22 16.5 38t39.5 16t39.5 -16t16.5 -38q0 -24 -16.5 -40.5t-39.5 -16.5t-39.5 16.5t-16.5 40.5zM44 522q0 61 39 107q11 13 14.5 16.5t10 7t15.5 3.5q53 0 115 -63q41 -42 41 -168q0 -43 -0.5 -140t-0.5 -160v-103q0 -16 -7.5 -26t-17.5 -10q-23 0 -27.5 5
t-4.5 32v195q0 136 -74 212q-30 31 -63 51q-3 2 -12.5 7t-14 8t-9 10t-4.5 16z" />
  </font>
</defs>
</svg>
